JosefinSans-Thin.ufo
<glyph name="exclam" format="2">
  <advance width="201"/>
  <unicode hex="0021"/>
  <outline>
    <contour>
      <point x="90.5" y="750.667" type="line"/>
      <point x="90.5" y="167.5" type="line"/>
      <point x="109.333" y="167.5" type="line"/>
      <point x="109.333" y="750.667" type="line"/>
    </contour>
    <contour>
      <point x="101" y="32.833" type="curve" smooth="yes"/>
      <point x="113.667" y="32.833"/>
      <point x="124.667" y="43.667"/>
      <point x="124.667" y="58" type="curve" smooth="yes"/>
      <point x="124.667" y="71.167"/>
      <point x="113.667" y="82.167"/>
      <point x="101" y="82.167" type="curve" smooth="yes"/>
      <point x="87.5" y="82.167"/>
      <point x="76.333" y="71.167"/>
      <point x="76.333" y="58" type="curve" smooth="yes"/>
      <point x="76.333" y="43.667"/>
      <point x="87.5" y="32.833"/>
    </contour>
  </outline>
</glyph>
<glyph name="quotedbl" format="2">
  <advance width="296.16667"/>
  <unicode hex="0022"/>
  <outline>
    <contour>
      <point x="85.667" y="720.667" type="curve"/>
      <point x="63" y="720.667" type="line"/>
      <point x="63" y="472.333" type="line"/>
      <point x="81.667" y="472.333" type="line"/>
      <point x="82.667" y="555.5"/>
      <point x="84.667" y="637.5"/>
    </contour>
    <contour>
      <point x="218.833" y="720.667" type="curve"/>
      <point x="196.167" y="720.667" type="line"/>
      <point x="196.167" y="472.333" type="line"/>
      <point x="214.833" y="472.333" type="line"/>
      <point x="215.833" y="555.5"/>
      <point x="217.833" y="637.5"/>
    </contour>
  </outline>
</glyph>
<glyph name="numbersign" format="2">
  <advance width="572"/>
  <unicode hex="0023"/>
  <outline>
    <contour>
      <point x="214.333" y="643.5" type="curve"/>
      <point x="195.333" y="643.5" type="line"/>
      <point x="186.5" y="570.167"/>
      <point x="177.5" y="497"/>
      <point x="168.667" y="423.5" type="curve"/>
      <point x="53.333" y="423.5" type="line"/>
      <point x="53" y="417"/>
      <point x="52" y="411.333"/>
      <point x="51.667" y="404.833" type="curve"/>
      <point x="166.167" y="404.833" type="line"/>
      <point x="159.333" y="350.333"/>
      <point x="153.5" y="295.833"/>
      <point x="146.667" y="241.333" type="curve"/>
      <point x="30.333" y="241.333" type="line"/>
      <point x="30.167" y="234.833"/>
      <point x="29" y="229.167"/>
      <point x="28.667" y="222.5" type="curve"/>
      <point x="144" y="222.5" type="line"/>
      <point x="135.167" y="148.333"/>
      <point x="127.167" y="74.167"/>
      <point x="118.333" y="0" type="curve"/>
      <point x="137.333" y="0" type="line"/>
      <point x="146.167" y="74.167"/>
      <point x="154.167" y="148.333"/>
      <point x="163" y="222.5" type="curve"/>
      <point x="328.167" y="222.5" type="line"/>
      <point x="319.333" y="148.333"/>
      <point x="311.333" y="74.167"/>
      <point x="302.5" y="0" type="curve"/>
      <point x="321.5" y="0" type="line"/>
      <point x="330.333" y="74.167"/>
      <point x="338.333" y="148.333"/>
      <point x="347.167" y="222.5" type="curve"/>
      <point x="481" y="222.5" type="line"/>
      <point x="481.167" y="229.167"/>
      <point x="482.333" y="234.833"/>
      <point x="482.5" y="241.333" type="curve"/>
      <point x="349.833" y="241.333" type="line"/>
      <point x="356.5" y="295.833"/>
      <point x="362.333" y="350.333"/>
      <point x="369.167" y="404.833" type="curve"/>
      <point x="504" y="404.833" type="line"/>
      <point x="504.167" y="411.333"/>
      <point x="505.167" y="417"/>
      <point x="505.333" y="423.5" type="curve"/>
      <point x="371.667" y="423.5" type="line"/>
      <point x="380.667" y="497"/>
      <point x="389.5" y="570.167"/>
      <point x="398.5" y="643.5" type="curve"/>
      <point x="379.5" y="643.5" type="line"/>
      <point x="370.667" y="570.167"/>
      <point x="361.667" y="497"/>
      <point x="352.833" y="423.5" type="curve"/>
      <point x="187.5" y="423.5" type="line"/>
      <point x="196.5" y="497"/>
      <point x="205.333" y="570.167"/>
    </contour>
    <contour>
      <point x="185" y="404.833" type="curve"/>
      <point x="350.167" y="404.833" type="line"/>
      <point x="343.5" y="350.333"/>
      <point x="337.667" y="295.833"/>
      <point x="330.833" y="241.333" type="curve"/>
      <point x="165.5" y="241.333" type="line"/>
      <point x="172.333" y="295.833"/>
      <point x="178.333" y="350.333"/>
    </contour>
  </outline>
</glyph>
<glyph name="dollar" format="2">
  <advance width="567"/>
  <unicode hex="0024"/>
  <outline>
    <contour>
      <point x="276.333" y="-68" type="line"/>
      <point x="293.5" y="-68" type="line"/>
      <point x="293.5" y="374.833" type="line"/>
      <point x="293.5" y="382.833" type="line"/>
      <point x="293.5" y="765.833" type="line"/>
      <point x="276.333" y="765.833" type="line"/>
      <point x="276.333" y="387.667" type="line"/>
      <point x="276.333" y="379.667" type="line"/>
    </contour>
    <component base="S"/>
  </outline>
</glyph>
<glyph name="percent" format="2">
  <advance width="732"/>
  <unicode hex="0025"/>
  <outline>
    <contour>
      <point x="219" y="223.333" type="curve"/>
      <point x="278.333" y="223.333"/>
      <point x="331.167" y="273.667"/>
      <point x="331.167" y="364.5" type="curve"/>
      <point x="331.167" y="453.333"/>
      <point x="280.167" y="504.833"/>
      <point x="219" y="504.833" type="curve"/>
      <point x="156.667" y="504.833"/>
      <point x="106.667" y="453.333"/>
      <point x="106.667" y="364.5" type="curve"/>
      <point x="106.667" y="274.667"/>
      <point x="156.667" y="223.333"/>
    </contour>
    <contour>
      <point x="125.5" y="363.5" type="curve"/>
      <point x="125.5" y="446.667"/>
      <point x="166.833" y="488"/>
      <point x="219" y="488" type="curve"/>
      <point x="271" y="488"/>
      <point x="312.333" y="440"/>
      <point x="312.333" y="363.5" type="curve"/>
      <point x="312.333" y="284.667"/>
      <point x="271" y="240"/>
      <point x="219" y="240" type="curve"/>
      <point x="166.833" y="240"/>
      <point x="125.5" y="284.667"/>
    </contour>
    <contour>
      <point x="527" y="2.667" type="curve"/>
      <point x="586.333" y="2.667"/>
      <point x="639.333" y="53"/>
      <point x="639.333" y="143.833" type="curve"/>
      <point x="639.333" y="232.667"/>
      <point x="588.333" y="284.167"/>
      <point x="527" y="284.167" type="curve"/>
      <point x="464.833" y="284.167"/>
      <point x="414.833" y="232.667"/>
      <point x="414.833" y="143.833" type="curve"/>
      <point x="414.833" y="54"/>
      <point x="464.833" y="2.667"/>
    </contour>
    <contour>
      <point x="433.5" y="142.833" type="curve"/>
      <point x="433.5" y="226"/>
      <point x="475" y="267.333"/>
      <point x="527" y="267.333" type="curve"/>
      <point x="579" y="267.333"/>
      <point x="620.5" y="219.333"/>
      <point x="620.5" y="142.833" type="curve"/>
      <point x="620.5" y="64"/>
      <point x="579" y="19.333"/>
      <point x="527" y="19.333" type="curve"/>
      <point x="475" y="19.333"/>
      <point x="433.5" y="64"/>
    </contour>
    <contour>
      <point x="533" y="507.667" type="line"/>
      <point x="511.5" y="507.667" type="line"/>
      <point x="205.333" y="0" type="line"/>
      <point x="226.667" y="-0.167" type="line"/>
    </contour>
  </outline>
</glyph>
<glyph name="ampersand" format="2">
  <advance width="701.83333"/>
  <unicode hex="0026"/>
  <outline>
    <contour>
      <point x="605" y="0" type="curve"/>
      <point x="216" y="503.667" type="line" smooth="yes"/>
      <point x="215.667" y="504.167"/>
      <point x="186.667" y="547.167"/>
      <point x="186.667" y="600" type="curve" smooth="yes"/>
      <point x="186.667" y="676.833"/>
      <point x="246.833" y="730.833"/>
      <point x="325.333" y="730.833" type="curve" smooth="yes"/>
      <point x="368" y="730.833"/>
      <point x="409.833" y="714.333"/>
      <point x="449.833" y="690.333" type="curve"/>
      <point x="458.833" y="704.167" type="line"/>
      <point x="425.333" y="725.667"/>
      <point x="377.167" y="748.667"/>
      <point x="323.333" y="748.667" type="curve" smooth="yes"/>
      <point x="236.333" y="748.667"/>
      <point x="165.833" y="688.167"/>
      <point x="165.833" y="596.667" type="curve" smooth="yes"/>
      <point x="165.833" y="552.833"/>
      <point x="182" y="522.333"/>
      <point x="198.167" y="494.333" type="curve"/>
      <point x="580.5" y="0" type="line"/>
      <point x="580.5" y="0"/>
      <point x="603.5" y="0"/>
    </contour>
    <contour>
      <point x="299.5" y="368.5" type="curve"/>
      <point x="295.667" y="386.833" type="line"/>
      <point x="182.833" y="382.833"/>
      <point x="74.667" y="300.167"/>
      <point x="74.667" y="187.167" type="curve" smooth="yes"/>
      <point x="74.667" y="81"/>
      <point x="168.333" y="-6.333"/>
      <point x="300.667" y="-6.333" type="curve" smooth="yes"/>
      <point x="396.667" y="-6.333"/>
      <point x="482" y="40.167"/>
      <point x="516.167" y="103.333" type="curve"/>
      <point x="503.5" y="121.167" type="line"/>
      <point x="476.833" y="63"/>
      <point x="394.167" y="11.833"/>
      <point x="301.5" y="11.833" type="curve" smooth="yes"/>
      <point x="191.5" y="11.833"/>
      <point x="97.5" y="82.5"/>
      <point x="97.5" y="185.667" type="curve" smooth="yes"/>
      <point x="97.5" y="296.333"/>
      <point x="207.667" y="367.5"/>
    </contour>
    <contour>
      <point x="602.5" y="386.833" type="line"/>
      <point x="503.667" y="121.5" type="line"/>
      <point x="517.833" y="105.333" type="line"/>
      <point x="624.667" y="386.833" type="line"/>
    </contour>
  </outline>
</glyph>
<glyph name="quotesingle" format="2">
  <advance width="148"/>
  <unicode hex="0027"/>
  <outline>
    <contour>
      <point x="88" y="720.667" type="curve"/>
      <point x="65.333" y="720.667" type="line"/>
      <point x="65.333" y="472.333" type="line"/>
      <point x="84" y="472.333" type="line"/>
      <point x="85" y="555.5"/>
      <point x="87" y="637.5"/>
    </contour>
  </outline>
</glyph>
<glyph name="parenleft" format="2">
  <advance width="395"/>
  <unicode hex="0028"/>
  <outline>
    <contour>
      <point x="143.833" y="292.167" type="curve" smooth="yes"/>
      <point x="143.833" y="292.167" type="line" smooth="yes"/>
      <point x="143.833" y="92"/>
      <point x="224.833" y="-74.167"/>
      <point x="309" y="-163.167" type="curve"/>
      <point x="316.833" y="-138.833" type="line"/>
      <point x="239.833" y="-50.833"/>
      <point x="163.667" y="102.5"/>
      <point x="163.667" y="292.167" type="curve" smooth="yes"/>
      <point x="163.667" y="481.833"/>
      <point x="239.833" y="635.167"/>
      <point x="316.833" y="723.333" type="curve"/>
      <point x="309" y="747.5" type="line"/>
      <point x="224.833" y="658.5"/>
      <point x="143.833" y="492.333"/>
    </contour>
  </outline>
</glyph>
<glyph name="parenright" format="2">
  <advance width="400"/>
  <unicode hex="0029"/>
  <outline>
    <contour>
      <point x="281.333" y="292.167" type="curve" smooth="yes"/>
      <point x="281.333" y="292.167" type="line" smooth="yes"/>
      <point x="281.333" y="492.333"/>
      <point x="200.333" y="658.5"/>
      <point x="116.333" y="747.5" type="curve"/>
      <point x="108.333" y="723.167" type="line"/>
      <point x="185.333" y="635.167"/>
      <point x="261.5" y="481.833"/>
      <point x="261.5" y="292.167" type="curve" smooth="yes"/>
      <point x="261.5" y="102.5"/>
      <point x="185.333" y="-50.833"/>
      <point x="108.333" y="-138.833" type="curve"/>
      <point x="116.333" y="-163.167" type="line"/>
      <point x="200.333" y="-74.167"/>
      <point x="281.333" y="92"/>
    </contour>
  </outline>
</glyph>
<glyph name="asterisk" format="2">
  <advance width="335"/>
  <unicode hex="002A"/>
  <outline>
    <contour>
      <point x="156.667" y="558.5" type="curve"/>
      <point x="156.667" y="434" type="line"/>
      <point x="173.667" y="434" type="line"/>
      <point x="174.5" y="476.167"/>
      <point x="174.667" y="517.333"/>
      <point x="175.5" y="559.333" type="curve"/>
      <point x="211.833" y="537.833"/>
      <point x="248.167" y="516.167"/>
      <point x="284.333" y="494.667" type="curve"/>
      <point x="287.833" y="500.5"/>
      <point x="291.333" y="506.333"/>
      <point x="294.833" y="512.167" type="curve"/>
      <point x="258.5" y="532.833"/>
      <point x="221.333" y="554.333"/>
      <point x="185" y="575" type="curve"/>
      <point x="185" y="575" type="line"/>
      <point x="222.333" y="596.5"/>
      <point x="258.667" y="618.167"/>
      <point x="295.833" y="639.667" type="curve"/>
      <point x="293.333" y="644.5"/>
      <point x="289.833" y="649.333"/>
      <point x="287.5" y="654.167" type="curve"/>
      <point x="250.167" y="633.667"/>
      <point x="212.833" y="612"/>
      <point x="175.667" y="591.5" type="curve"/>
      <point x="176.667" y="634.667"/>
      <point x="176.667" y="676.833"/>
      <point x="177.667" y="720" type="curve"/>
      <point x="156.667" y="720" type="line"/>
      <point x="156.667" y="591.5" type="line"/>
      <point x="120.333" y="613"/>
      <point x="83.167" y="633.667"/>
      <point x="46.833" y="655.167" type="curve"/>
      <point x="44.333" y="650.333"/>
      <point x="40.833" y="645.5"/>
      <point x="38.5" y="640.667" type="curve"/>
      <point x="74.667" y="619.167"/>
      <point x="111" y="597.5"/>
      <point x="147.167" y="576" type="curve"/>
      <point x="111" y="555.5"/>
      <point x="74.667" y="534.833"/>
      <point x="38.333" y="514.333" type="curve"/>
      <point x="41.833" y="508.5"/>
      <point x="45.333" y="502.5"/>
      <point x="48.833" y="496.667" type="curve"/>
      <point x="85.167" y="517.333"/>
      <point x="120.5" y="537.833"/>
    </contour>
  </outline>
</glyph>
<glyph name="plus" format="2">
  <advance width="543.5"/>
  <unicode hex="002B"/>
  <outline>
    <contour>
      <point x="256.833" y="411.333" type="line"/>
      <point x="256.833" y="241.5" type="line"/>
      <point x="86.167" y="241.5" type="line"/>
      <point x="86.167" y="222.833" type="line"/>
      <point x="256.833" y="222.833" type="line"/>
      <point x="256.833" y="51" type="line"/>
      <point x="275.667" y="51" type="line"/>
      <point x="275.667" y="222.833" type="line"/>
      <point x="446.333" y="222.833" type="line"/>
      <point x="446.333" y="241.5" type="line"/>
      <point x="275.667" y="241.5" type="line"/>
      <point x="275.667" y="411.333" type="line"/>
    </contour>
  </outline>
</glyph>
<glyph name="comma" format="2">
  <advance width="183.5"/>
  <unicode hex="002C"/>
  <outline>
    <contour>
      <point x="132.167" y="86.167" type="curve"/>
      <point x="104.833" y="86.167" type="line"/>
      <point x="78.833" y="17"/>
      <point x="53.833" y="-51"/>
      <point x="27.833" y="-120.167" type="curve"/>
      <point x="46.167" y="-120.167" type="line"/>
      <point x="75.167" y="-51"/>
      <point x="103.167" y="17"/>
    </contour>
  </outline>
</glyph>
<glyph name="hyphen" format="2">
  <advance width="300"/>
  <unicode hex="002D"/>
  <outline>
    <contour>
      <point x="53" y="202" type="line"/>
      <point x="53" y="183.333" type="line"/>
      <point x="237.167" y="183.333" type="line"/>
      <point x="237.167" y="202" type="line"/>
    </contour>
  </outline>
</glyph>
<glyph name="period" format="2">
  <advance width="186"/>
  <unicode hex="002E"/>
  <outline>
    <contour>
      <point x="71.333" y="22.333" type="curve" smooth="yes"/>
      <point x="71.333" y="22.333" type="line" smooth="yes"/>
      <point x="71.333" y="9.833"/>
      <point x="81.5" y="0"/>
      <point x="93.5" y="0" type="curve" smooth="yes"/>
      <point x="105.5" y="0"/>
      <point x="115.833" y="9.833"/>
      <point x="115.833" y="22.333" type="curve" smooth="yes"/>
      <point x="115.833" y="34.667"/>
      <point x="105.5" y="44.667"/>
      <point x="93.5" y="44.667" type="curve" smooth="yes"/>
      <point x="81.5" y="44.667"/>
      <point x="71.333" y="34.667"/>
    </contour>
  </outline>
</glyph>
<glyph name="slash" format="2">
  <advance width="326.33333"/>
  <unicode hex="002F"/>
  <outline>
    <contour>
      <point x="314.167" y="736.667" type="curve"/>
      <point x="295.333" y="736.667" type="line"/>
      <point x="202.167" y="484.5"/>
      <point x="110.167" y="233.167"/>
      <point x="17" y="-19" type="curve"/>
      <point x="36" y="-19" type="line"/>
      <point x="129" y="233.167"/>
      <point x="221.167" y="484.5"/>
    </contour>
  </outline>
</glyph>
<glyph name="zero" format="2">
  <advance width="616.5"/>
  <unicode hex="0030"/>
  <outline>
    <contour>
      <point x="308.333" y="-5.833" type="curve"/>
      <point x="488" y="-6.833"/>
      <point x="580.5" y="155.333"/>
      <point x="580.5" y="325.5" type="curve"/>
      <point x="580.5" y="495.167"/>
      <point x="488" y="655.833"/>
      <point x="308.333" y="654.833" type="curve"/>
      <point x="128.167" y="655.833"/>
      <point x="36" y="496.333"/>
      <point x="36" y="325.5" type="curve"/>
      <point x="36" y="155.667"/>
      <point x="128.5" y="-6.833"/>
    </contour>
    <contour>
      <point x="308.167" y="12.833" type="curve"/>
      <point x="167.167" y="11.833"/>
      <point x="57" y="130.333"/>
      <point x="56" y="324.5" type="curve"/>
      <point x="57" y="518.667"/>
      <point x="167.167" y="637.167"/>
      <point x="308.167" y="636.167" type="curve"/>
      <point x="449.333" y="637.167"/>
      <point x="559.5" y="518.667"/>
      <point x="560.5" y="324.667" type="curve"/>
      <point x="559.5" y="130.333"/>
      <point x="449.333" y="11.833"/>
    </contour>
  </outline>
</glyph>
<glyph name="one" format="2">
  <advance width="308.33333"/>
  <unicode hex="0031"/>
  <outline>
    <contour>
      <point x="59.333" y="650.5" type="line"/>
      <point x="59.333" y="631" type="line"/>
      <point x="169.667" y="631" type="line"/>
      <point x="169.667" y="0" type="line"/>
      <point x="189.5" y="0" type="line"/>
      <point x="189.5" y="650.5" type="line"/>
    </contour>
  </outline>
</glyph>
<glyph name="two" format="2">
  <advance width="496"/>
  <unicode hex="0032"/>
  <outline>
    <contour>
      <point x="53" y="0" type="curve"/>
      <point x="452.667" y="0" type="line"/>
      <point x="452.667" y="18.667" type="line"/>
      <point x="86.333" y="18.667" type="line"/>
      <point x="91.167" y="12" type="line"/>
      <point x="227.833" y="154.5"/>
      <point x="408.333" y="310"/>
      <point x="408.333" y="463.5" type="curve" smooth="yes"/>
      <point x="408.333" y="575.5"/>
      <point x="336.5" y="658.5"/>
      <point x="231" y="658.5" type="curve" smooth="yes"/>
      <point x="113.667" y="658.5"/>
      <point x="49.333" y="575.333"/>
      <point x="49.333" y="468.333" type="curve" smooth="yes"/>
      <point x="49.333" y="414.5"/>
      <point x="67" y="375.667"/>
      <point x="96.333" y="343.833" type="curve"/>
      <point x="108" y="355" type="line"/>
      <point x="82" y="382.833"/>
      <point x="69" y="420.667"/>
      <point x="69" y="468.5" type="curve" smooth="yes"/>
      <point x="69" y="536"/>
      <point x="101" y="640"/>
      <point x="230" y="640" type="curve" smooth="yes"/>
      <point x="295.667" y="640"/>
      <point x="388.333" y="597.333"/>
      <point x="388.333" y="462.833" type="curve" smooth="yes"/>
      <point x="388.333" y="325.333"/>
      <point x="224.667" y="165.167"/>
    </contour>
  </outline>
</glyph>
<glyph name="three" format="2">
  <advance width="518"/>
  <unicode hex="0033"/>
  <outline>
    <contour>
      <point x="406.333" y="650.5" type="line"/>
      <point x="85.5" y="650.5" type="line"/>
      <point x="85.5" y="632" type="line"/>
      <point x="376.667" y="632" type="line"/>
      <point x="373.667" y="638.5" type="line"/>
      <point x="148.833" y="361.167" type="line"/>
      <point x="152.833" y="358.167" type="line"/>
      <point x="176.667" y="371.667"/>
      <point x="215.5" y="382.333"/>
      <point x="251.667" y="382.333" type="curve" smooth="yes"/>
      <point x="358.5" y="382.333"/>
      <point x="428.833" y="318.667"/>
      <point x="428.833" y="215.667" type="curve" smooth="yes"/>
      <point x="428.833" y="96.167"/>
      <point x="345.5" y="10.667"/>
      <point x="224" y="10.667" type="curve" smooth="yes"/>
      <point x="169.5" y="10.667"/>
      <point x="115.833" y="35.833"/>
      <point x="84.333" y="73.333" type="curve"/>
      <point x="73.5" y="58.333" type="line"/>
      <point x="110.667" y="18.167"/>
      <point x="164" y="-8"/>
      <point x="224.167" y="-8" type="curve" smooth="yes"/>
      <point x="355.833" y="-8"/>
      <point x="448.833" y="82.667"/>
      <point x="448.833" y="215.333" type="curve" smooth="yes"/>
      <point x="448.833" y="338.167"/>
      <point x="362" y="405"/>
      <point x="254.667" y="399.167" type="curve"/>
      <point x="220.667" y="399.167"/>
      <point x="189.333" y="392.333"/>
      <point x="164.833" y="376.833" type="curve"/>
      <point x="181" y="375" type="line"/>
    </contour>
  </outline>
</glyph>
<glyph name="four" format="2">
  <advance width="506"/>
  <unicode hex="0034"/>
  <outline>
    <contour>
      <point x="23.333" y="181.333" type="line"/>
      <point x="372" y="181.333" type="line"/>
      <point x="372" y="0" type="line"/>
      <point x="391.833" y="0" type="line"/>
      <point x="391.833" y="181.333" type="line"/>
      <point x="488" y="181.333" type="line"/>
      <point x="488" y="198.667" type="line"/>
      <point x="391.833" y="198.667" type="line"/>
      <point x="391.833" y="658.5" type="line"/>
      <point x="390.833" y="658.5" type="line"/>
      <point x="23.333" y="182.333" type="line"/>
    </contour>
    <contour>
      <point x="374.667" y="608.667" type="line"/>
      <point x="372" y="618.5" type="line"/>
      <point x="372" y="198.667" type="line"/>
      <point x="51" y="198.667" type="line"/>
      <point x="56.167" y="195.5" type="line"/>
    </contour>
  </outline>
</glyph>
<glyph name="five" format="2">
  <advance width="543"/>
  <unicode hex="0035"/>
  <outline>
    <contour>
      <point x="253.667" y="-8" type="curve" smooth="yes"/>
      <point x="368" y="-8"/>
      <point x="459.5" y="83.5"/>
      <point x="459.5" y="196.333" type="curve" smooth="yes"/>
      <point x="459.5" y="308.667"/>
      <point x="371.5" y="397.333"/>
      <point x="256.5" y="397.5" type="curve" smooth="yes"/>
      <point x="221.333" y="397.5"/>
      <point x="178.5" y="387.833"/>
      <point x="153.167" y="371.5" type="curve"/>
      <point x="158.667" y="366.333" type="line"/>
      <point x="158.667" y="632" type="line"/>
      <point x="428.667" y="632" type="line"/>
      <point x="428.667" y="650.5" type="line"/>
      <point x="139.833" y="650.5" type="line"/>
      <point x="139.833" y="339.833" type="line"/>
      <point x="140.833" y="339.833" type="line"/>
      <point x="165.667" y="362"/>
      <point x="206.167" y="379.667"/>
      <point x="253" y="379.667" type="curve" smooth="yes"/>
      <point x="359.167" y="379.667"/>
      <point x="439.5" y="297.5"/>
      <point x="439.5" y="196.167" type="curve" smooth="yes"/>
      <point x="439.5" y="96"/>
      <point x="356.333" y="10.333"/>
      <point x="251.167" y="10.333" type="curve" smooth="yes"/>
      <point x="201.667" y="10.333"/>
      <point x="155.5" y="29.333"/>
      <point x="123.833" y="62.167" type="curve"/>
      <point x="110.833" y="48.833" type="line"/>
      <point x="148.167" y="13.5"/>
      <point x="198.5" y="-8"/>
    </contour>
  </outline>
</glyph>
<glyph name="six" format="2">
  <advance width="519.83333"/>
  <unicode hex="0036"/>
  <outline>
    <contour>
      <point x="255.333" y="-8" type="curve" smooth="yes"/>
      <point x="368.833" y="-8"/>
      <point x="461.167" y="81.667"/>
      <point x="461.167" y="194.333" type="curve" smooth="yes"/>
      <point x="461.167" y="306"/>
      <point x="369.833" y="396.833"/>
      <point x="257.667" y="396.833" type="curve" smooth="yes"/>
      <point x="189" y="396.833"/>
      <point x="122" y="366"/>
      <point x="85" y="306.833" type="curve"/>
      <point x="90.5" y="303.833" type="line"/>
      <point x="122" y="403"/>
      <point x="223.5" y="515.167"/>
      <point x="392" y="627.333" type="curve"/>
      <point x="379.167" y="643.5" type="line"/>
      <point x="231.667" y="535.333"/>
      <point x="49.167" y="400.333"/>
      <point x="49.167" y="197.167" type="curve" smooth="yes"/>
      <point x="49.167" y="82.667"/>
      <point x="141" y="-8"/>
    </contour>
    <contour>
      <point x="254.167" y="10.167" type="curve" smooth="yes"/>
      <point x="151.333" y="10.167"/>
      <point x="68.167" y="92.5"/>
      <point x="68.167" y="194" type="curve" smooth="yes"/>
      <point x="68.167" y="201.667" type="line" smooth="yes"/>
      <point x="68.167" y="307.833"/>
      <point x="151.333" y="379"/>
      <point x="254.167" y="379" type="curve" smooth="yes"/>
      <point x="357" y="379"/>
      <point x="441.167" y="296.5"/>
      <point x="441.167" y="194.333" type="curve" smooth="yes"/>
      <point x="441.167" y="92"/>
      <point x="357" y="10.167"/>
    </contour>
  </outline>
</glyph>
<glyph name="seven" format="2">
  <advance width="476"/>
  <unicode hex="0037"/>
  <outline>
    <contour>
      <point x="448.333" y="650.5" type="line"/>
      <point x="45.333" y="650.5" type="line"/>
      <point x="45.333" y="632" type="line"/>
      <point x="433.833" y="632" type="line"/>
      <point x="422.167" y="641.333" type="line"/>
      <point x="134" y="0" type="line"/>
      <point x="158.333" y="0" type="line"/>
    </contour>
  </outline>
</glyph>
<glyph name="eight" format="2">
  <advance width="508"/>
  <unicode hex="0038"/>
  <outline>
    <contour>
      <point x="48.5" y="195.833" type="curve" smooth="yes"/>
      <point x="48.5" y="195.833" type="line" smooth="yes"/>
      <point x="48.5" y="83.667"/>
      <point x="140" y="-8"/>
      <point x="252.5" y="-8" type="curve" smooth="yes"/>
      <point x="366" y="-8"/>
      <point x="459.667" y="83.667"/>
      <point x="459.667" y="195.833" type="curve" smooth="yes"/>
      <point x="459.667" y="291.167"/>
      <point x="392.667" y="368"/>
      <point x="305.5" y="389.5" type="curve"/>
      <point x="358.5" y="409"/>
      <point x="395.833" y="456"/>
      <point x="395.833" y="510.667" type="curve" smooth="yes"/>
      <point x="395.833" y="593.667"/>
      <point x="340.333" y="658.5"/>
      <point x="249.833" y="658.5" type="curve" smooth="yes"/>
      <point x="160.167" y="658.5"/>
      <point x="103.833" y="595.5"/>
      <point x="103.833" y="512.167" type="curve" smooth="yes"/>
      <point x="103.833" y="457"/>
      <point x="143" y="408"/>
      <point x="197.833" y="389.5" type="curve"/>
      <point x="112.667" y="367.167"/>
      <point x="48.5" y="290.333"/>
    </contour>
    <contour>
      <point x="68.333" y="196.167" type="curve" smooth="yes"/>
      <point x="68.333" y="196.167" type="line" smooth="yes"/>
      <point x="68.333" y="297.333"/>
      <point x="149.167" y="379.667"/>
      <point x="251" y="379.667" type="curve" smooth="yes"/>
      <point x="354.833" y="379.5"/>
      <point x="439.833" y="297.167"/>
      <point x="439.833" y="196.167" type="curve" smooth="yes"/>
      <point x="439.833" y="96"/>
      <point x="354.5" y="9.833"/>
      <point x="250.667" y="9.833" type="curve" smooth="yes"/>
      <point x="148.833" y="9.833"/>
      <point x="68.333" y="96"/>
    </contour>
    <contour>
      <point x="123.333" y="510.5" type="curve" smooth="yes"/>
      <point x="123.333" y="510.5" type="line" smooth="yes"/>
      <point x="123.333" y="589.167"/>
      <point x="180" y="640.833"/>
      <point x="251.833" y="640.833" type="curve" smooth="yes"/>
      <point x="322.667" y="640.833"/>
      <point x="376.333" y="589.167"/>
      <point x="376.333" y="510.5" type="curve" smooth="yes"/>
      <point x="376.333" y="446.167"/>
      <point x="322.667" y="397.333"/>
      <point x="251.833" y="397.333" type="curve" smooth="yes"/>
      <point x="180" y="397.333"/>
      <point x="123.333" y="446.167"/>
    </contour>
  </outline>
</glyph>
<glyph name="nine" format="2">
  <advance width="524"/>
  <unicode hex="0039"/>
  <outline>
    <contour>
      <point x="252.667" y="229" type="curve" smooth="yes"/>
      <point x="334.667" y="229"/>
      <point x="383.667" y="257"/>
      <point x="430.167" y="318" type="curve"/>
      <point x="415.167" y="312.5" type="line"/>
      <point x="385.667" y="237.833"/>
      <point x="292.833" y="124.5"/>
      <point x="115.667" y="9" type="curve"/>
      <point x="129.5" y="-8.167" type="line"/>
      <point x="278.833" y="102"/>
      <point x="461.167" y="241.333"/>
      <point x="461.167" y="439.333" type="curve"/>
      <point x="461.167" y="570"/>
      <point x="369.333" y="650.5"/>
      <point x="255" y="650.5" type="curve" smooth="yes"/>
      <point x="141.5" y="650.5"/>
      <point x="49.167" y="557.5"/>
      <point x="49.167" y="439.833" type="curve" smooth="yes"/>
      <point x="49.167" y="324"/>
      <point x="140.5" y="229"/>
    </contour>
    <contour>
      <point x="256.167" y="247.833" type="curve" smooth="yes"/>
      <point x="153.333" y="247.833"/>
      <point x="69.167" y="332.667"/>
      <point x="69.167" y="439.833" type="curve" smooth="yes"/>
      <point x="69.167" y="547.167"/>
      <point x="153.333" y="631.333"/>
      <point x="256.167" y="631.333" type="curve" smooth="yes"/>
      <point x="355.167" y="631.333"/>
      <point x="436.5" y="557.167"/>
      <point x="442.167" y="447.833" type="curve"/>
      <point x="442.167" y="435.333" type="line"/>
      <point x="442.167" y="315.833"/>
      <point x="368.5" y="247.833"/>
    </contour>
  </outline>
</glyph>
<glyph name="colon" format="2">
  <advance width="175.16667"/>
  <unicode hex="003A"/>
  <outline>
    <contour>
      <point x="62.833" y="273.833" type="curve" smooth="yes"/>
      <point x="62.833" y="273.833" type="line" smooth="yes"/>
      <point x="62.833" y="261.333"/>
      <point x="73" y="251.5"/>
      <point x="85.167" y="251.5" type="curve" smooth="yes"/>
      <point x="97" y="251.5"/>
      <point x="107.333" y="261.333"/>
      <point x="107.333" y="273.833" type="curve" smooth="yes"/>
      <point x="107.333" y="286.167"/>
      <point x="97" y="296.167"/>
      <point x="85.167" y="296.167" type="curve" smooth="yes"/>
      <point x="73" y="296.167"/>
      <point x="62.833" y="286.167"/>
    </contour>
    <contour>
      <point x="62.833" y="22.333" type="curve" smooth="yes"/>
      <point x="62.833" y="22.333" type="line" smooth="yes"/>
      <point x="62.833" y="9.833"/>
      <point x="73" y="0"/>
      <point x="85.167" y="0" type="curve" smooth="yes"/>
      <point x="97" y="0"/>
      <point x="107.333" y="9.833"/>
      <point x="107.333" y="22.333" type="curve" smooth="yes"/>
      <point x="107.333" y="34.667"/>
      <point x="97" y="44.667"/>
      <point x="85.167" y="44.667" type="curve" smooth="yes"/>
      <point x="73" y="44.667"/>
      <point x="62.833" y="34.667"/>
    </contour>
  </outline>
</glyph>
<glyph name="semicolon" format="2">
  <advance width="201.16667"/>
  <unicode hex="003B"/>
  <outline>
    <contour>
      <point x="86.333" y="272.5" type="curve" smooth="yes"/>
      <point x="86.333" y="272.5" type="line" smooth="yes"/>
      <point x="86.333" y="260"/>
      <point x="96.667" y="250.167"/>
      <point x="108.667" y="250.167" type="curve" smooth="yes"/>
      <point x="120.667" y="250.167"/>
      <point x="130.833" y="260"/>
      <point x="130.833" y="272.5" type="curve" smooth="yes"/>
      <point x="130.833" y="284.833"/>
      <point x="120.667" y="294.833"/>
      <point x="108.667" y="294.833" type="curve" smooth="yes"/>
      <point x="96.667" y="294.833"/>
      <point x="86.333" y="284.833"/>
    </contour>
    <contour>
      <point x="114.667" y="86.167" type="curve"/>
      <point x="87.333" y="86.167" type="line"/>
      <point x="61.333" y="17"/>
      <point x="36.333" y="-51"/>
      <point x="10.333" y="-120.167" type="curve"/>
      <point x="28.667" y="-120.167" type="line"/>
      <point x="57.667" y="-51"/>
      <point x="85.667" y="17"/>
    </contour>
  </outline>
</glyph>
<glyph name="less" format="2">
  <advance width="674.5"/>
  <unicode hex="003C"/>
  <outline>
    <contour>
      <point x="549.5" y="469.333" type="line"/>
      <point x="549.5" y="491.333" type="line"/>
      <point x="111.333" y="238.167" type="line"/>
      <point x="549.5" y="-15" type="line"/>
      <point x="549.5" y="7" type="line"/>
      <point x="148" y="238.167" type="line"/>
    </contour>
  </outline>
</glyph>
<glyph name="equal" format="2">
  <advance width="709"/>
  <unicode hex="003D"/>
  <outline>
    <contour>
      <point x="100.167" y="360.333" type="line"/>
      <point x="100.167" y="341.667" type="line"/>
      <point x="606.5" y="341.667" type="line"/>
      <point x="606.5" y="360.333" type="line"/>
    </contour>
    <contour>
      <point x="100.167" y="166.167" type="line"/>
      <point x="100.167" y="147.5" type="line"/>
      <point x="606.5" y="147.5" type="line"/>
      <point x="606.5" y="166.167" type="line"/>
    </contour>
  </outline>
</glyph>
<glyph name="greater" format="2">
  <advance width="646"/>
  <unicode hex="003E"/>
  <outline>
    <contour>
      <point x="113.5" y="7" type="line"/>
      <point x="113.5" y="-15" type="line"/>
      <point x="113.5" y="-15" type="line"/>
      <point x="551.833" y="238.167" type="line"/>
      <point x="113.5" y="491.333" type="line"/>
      <point x="113.5" y="469.333" type="line"/>
      <point x="515.167" y="238.167" type="line"/>
    </contour>
  </outline>
</glyph>
<glyph name="question" format="2">
  <advance width="452.5"/>
  <unicode hex="003F"/>
  <outline>
    <contour>
      <point x="205.167" y="165.5" type="line"/>
      <point x="224.667" y="165.5" type="line"/>
      <point x="224.667" y="241" type="line" smooth="yes"/>
      <point x="224.667" y="328.333"/>
      <point x="264.333" y="332"/>
      <point x="317.333" y="370.833" type="curve" smooth="yes"/>
      <point x="374.833" y="413"/>
      <point x="413.333" y="465.333"/>
      <point x="413.333" y="538" type="curve" smooth="yes"/>
      <point x="413.333" y="646.167"/>
      <point x="327.333" y="732.667"/>
      <point x="217.167" y="732.667" type="curve" smooth="yes"/>
      <point x="128.167" y="732.667"/>
      <point x="55.667" y="673.833"/>
      <point x="30" y="598.167" type="curve"/>
      <point x="47.5" y="592.833" type="line"/>
      <point x="70.333" y="664.667"/>
      <point x="138.333" y="714.5"/>
      <point x="216.5" y="714.5" type="curve" smooth="yes"/>
      <point x="315.333" y="714.5"/>
      <point x="393.5" y="638.833"/>
      <point x="393.5" y="537.5" type="curve" smooth="yes"/>
      <point x="393.5" y="462.5"/>
      <point x="356.667" y="422"/>
      <point x="305.333" y="384.333" type="curve" smooth="yes"/>
      <point x="253.833" y="346.333"/>
      <point x="205.167" y="338.5"/>
      <point x="205.167" y="245.167" type="curve" smooth="yes"/>
    </contour>
    <contour>
      <point x="218.667" y="32.833" type="curve" smooth="yes"/>
      <point x="231.333" y="32.833"/>
      <point x="242.333" y="43.667"/>
      <point x="242.333" y="58" type="curve" smooth="yes"/>
      <point x="242.333" y="71.167"/>
      <point x="231.333" y="82.167"/>
      <point x="218.667" y="82.167" type="curve" smooth="yes"/>
      <point x="205.167" y="82.167"/>
      <point x="194" y="71.167"/>
      <point x="194" y="58" type="curve" smooth="yes"/>
      <point x="194" y="43.667"/>
      <point x="205.167" y="32.833"/>
    </contour>
  </outline>
</glyph>
<glyph name="at" format="2">
  <advance width="972"/>
  <unicode hex="0040"/>
  <outline>
    <contour>
      <point x="400.667" y="-207.833" type="curve"/>
      <point x="488" y="-207.833"/>
      <point x="568.833" y="-179.833"/>
      <point x="641.333" y="-133.833" type="curve"/>
      <point x="631.167" y="-118" type="line"/>
      <point x="563.333" y="-160.833"/>
      <point x="485.333" y="-189.667"/>
      <point x="403.5" y="-189.667" type="curve"/>
      <point x="192.5" y="-189.667"/>
      <point x="74.167" y="-69.333"/>
      <point x="74.167" y="137" type="curve"/>
      <point x="74.167" y="289.167"/>
      <point x="208.333" y="571"/>
      <point x="558.667" y="571" type="curve"/>
      <point x="756" y="571"/>
      <point x="896.833" y="435.667"/>
      <point x="896.833" y="260.333" type="curve"/>
      <point x="896.833" y="132.833"/>
      <point x="811.167" y="8.167"/>
      <point x="713.5" y="8.167" type="curve"/>
      <point x="652.333" y="8.167"/>
      <point x="643.333" y="58.667"/>
      <point x="648.333" y="100.333" type="curve"/>
      <point x="687.167" y="377.667" type="line"/>
      <point x="671.667" y="377.667" type="line"/>
      <point x="651.833" y="265.667" type="line"/>
      <point x="631.667" y="336.167"/>
      <point x="566.333" y="386.333"/>
      <point x="479.333" y="386.333" type="curve"/>
      <point x="360.667" y="386.333"/>
      <point x="264.5" y="283.667"/>
      <point x="264.5" y="168" type="curve"/>
      <point x="260.667" y="68.667"/>
      <point x="337" y="-6.333"/>
      <point x="444.167" y="-6.333" type="curve"/>
      <point x="523.333" y="-6.333"/>
      <point x="602.333" y="50.833"/>
      <point x="638.167" y="121.5" type="curve"/>
      <point x="634.167" y="134.833" type="line"/>
      <point x="614.5" y="43.833"/>
      <point x="640.167" y="-9.833"/>
      <point x="712.833" y="-9.833" type="curve"/>
      <point x="825.167" y="-9.833"/>
      <point x="917.833" y="119.833"/>
      <point x="917.833" y="260.333" type="curve"/>
      <point x="917.833" y="447.167"/>
      <point x="769.167" y="589.167"/>
      <point x="561.5" y="589.167" type="curve"/>
      <point x="192.333" y="589.167"/>
      <point x="54.333" y="305.333"/>
      <point x="54.333" y="134" type="curve"/>
      <point x="54.333" y="-80.833"/>
      <point x="181.667" y="-207.833"/>
    </contour>
    <contour>
      <point x="447.667" y="11.167" type="curve"/>
      <point x="350.333" y="11.167"/>
      <point x="283.5" y="79.167"/>
      <point x="285.333" y="168" type="curve"/>
      <point x="285.333" y="279"/>
      <point x="376.667" y="368.833"/>
      <point x="478.5" y="368.833" type="curve"/>
      <point x="571.5" y="368.833"/>
      <point x="641.167" y="303.667"/>
      <point x="645.333" y="221.5" type="curve"/>
      <point x="640" y="180.5" type="line"/>
      <point x="626.167" y="82.833"/>
      <point x="531.167" y="11.167"/>
    </contour>
  </outline>
</glyph>
<glyph name="A" format="2">
  <advance width="709.33333"/>
  <unicode hex="0041"/>
  <anchor x="354.667" y="0" name="bottom"/>
  <anchor x="628.667" y="10" name="ogonek"/>
  <anchor x="354.667" y="703.333" name="top"/>
  <outline>
    <contour>
      <point x="62.667" y="0" type="line"/>
      <point x="83.333" y="0" type="line"/>
      <point x="362.167" y="703.667" type="line"/>
      <point x="349" y="700.5" type="line"/>
      <point x="625" y="0" type="line"/>
      <point x="646.667" y="0" type="line"/>
      <point x="355.833" y="733.5" type="line"/>
      <point x="353.5" y="733.5" type="line"/>
    </contour>
    <contour>
      <point x="183.5" y="281" type="line"/>
      <point x="181.5" y="262.5" type="line"/>
      <point x="529.167" y="262.5" type="line"/>
      <point x="526.833" y="281" type="line"/>
    </contour>
  </outline>
</glyph>
<glyph name="B" format="2">
  <advance width="573"/>
  <unicode hex="0042"/>
  <anchor x="275.833" y="0" name="bottom"/>
  <anchor x="275.833" y="701.667" name="top"/>
  <outline>
    <contour>
      <point x="257.5" y="701.667" type="curve" smooth="yes"/>
      <point x="118.833" y="701.667" type="line"/>
      <point x="118.833" y="0" type="line"/>
      <point x="285.5" y="0" type="line" smooth="yes"/>
      <point x="396.5" y="0"/>
      <point x="499.5" y="61.833"/>
      <point x="499.5" y="180.667" type="curve" smooth="yes"/>
      <point x="499.5" y="279.167"/>
      <point x="420" y="343.833"/>
      <point x="331.833" y="356.167" type="curve"/>
      <point x="331.833" y="348.833" type="line"/>
      <point x="425.333" y="365.167"/>
      <point x="462.667" y="442.667"/>
      <point x="462.667" y="523.333" type="curve" smooth="yes"/>
      <point x="462.667" y="651"/>
      <point x="390.333" y="701.667"/>
    </contour>
    <contour>
      <point x="283" y="360.5" type="curve" smooth="yes"/>
      <point x="138.667" y="360.5" type="line"/>
      <point x="138.667" y="683" type="line"/>
      <point x="258.667" y="683" type="line" smooth="yes"/>
      <point x="371.167" y="683"/>
      <point x="442.667" y="637.833"/>
      <point x="442.667" y="521.833" type="curve" smooth="yes"/>
      <point x="442.667" y="429.167"/>
      <point x="396.5" y="360.5"/>
    </contour>
    <contour>
      <point x="284.333" y="18.333" type="curve" smooth="yes"/>
      <point x="138.667" y="18.333" type="line"/>
      <point x="138.667" y="341.833" type="line"/>
      <point x="283.833" y="341.833" type="line" smooth="yes"/>
      <point x="375.5" y="341.833"/>
      <point x="479.5" y="292.5"/>
      <point x="479.5" y="177.833" type="curve" smooth="yes"/>
      <point x="479.5" y="72"/>
      <point x="390.333" y="18.333"/>
    </contour>
  </outline>
</glyph>
<glyph name="C" format="2">
  <advance width="690"/>
  <unicode hex="0043"/>
  <anchor x="414.333" y="0" name="bottom"/>
  <anchor x="413.833" y="712" name="top"/>
  <outline>
    <contour>
      <point x="615.5" y="42.833" type="curve"/>
      <point x="604.167" y="60" type="line"/>
      <point x="553.167" y="30.167"/>
      <point x="494.333" y="10.667"/>
      <point x="428.667" y="10.667" type="curve" smooth="yes"/>
      <point x="224.833" y="10.667"/>
      <point x="94" y="165.833"/>
      <point x="94" y="346.167" type="curve" smooth="yes"/>
      <point x="94" y="538.333"/>
      <point x="245.5" y="691"/>
      <point x="431.167" y="691" type="curve" smooth="yes"/>
      <point x="494.5" y="691"/>
      <point x="555.333" y="672.167"/>
      <point x="605.667" y="641.5" type="curve"/>
      <point x="615.833" y="659" type="line"/>
      <point x="562" y="691"/>
      <point x="499.333" y="709.667"/>
      <point x="431" y="709.667" type="curve" smooth="yes"/>
      <point x="233.167" y="709.667"/>
      <point x="73.833" y="550.667"/>
      <point x="73.833" y="346.667" type="curve" smooth="yes"/>
      <point x="73.833" y="154.333"/>
      <point x="215.667" y="-7.833"/>
      <point x="428.5" y="-8" type="curve" smooth="yes"/>
      <point x="502.333" y="-8.167"/>
      <point x="563.667" y="12.333"/>
    </contour>
  </outline>
</glyph>
<glyph name="D" format="2">
  <advance width="726"/>
  <unicode hex="0044"/>
  <anchor x="352.167" y="0" name="bottom"/>
  <anchor x="126.833" y="350.833" name="center"/>
  <anchor x="291.167" y="701.667" name="top"/>
  <outline>
    <contour>
      <point x="118.833" y="0" type="line"/>
      <point x="312.833" y="0" type="line" smooth="yes"/>
      <point x="490.833" y="0"/>
      <point x="652.167" y="136"/>
      <point x="652.167" y="350.167" type="curve" smooth="yes"/>
      <point x="652.167" y="509.333"/>
      <point x="548" y="701.667"/>
      <point x="279.667" y="701.667" type="curve" smooth="yes"/>
      <point x="118.833" y="701.667" type="line"/>
    </contour>
    <contour>
      <point x="138.667" y="18.667" type="line"/>
      <point x="138.667" y="682" type="line"/>
      <point x="275.833" y="682" type="line" smooth="yes"/>
      <point x="532" y="682"/>
      <point x="632.167" y="503.5"/>
      <point x="632.167" y="350.667" type="curve" smooth="yes"/>
      <point x="632.167" y="147.167"/>
      <point x="482.5" y="18.667"/>
      <point x="304" y="18.667" type="curve"/>
    </contour>
  </outline>
</glyph>
<glyph name="E" format="2">
  <advance width="631"/>
  <unicode hex="0045"/>
  <anchor x="316.333" y="0" name="bottom"/>
  <anchor x="532.667" y="10" name="ogonek"/>
  <anchor x="316.333" y="702.5" name="top"/>
  <anchor x="2" y="701.667" name="topleft"/>
  <outline>
    <contour>
      <point x="118.833" y="701.667" type="line"/>
      <point x="118.833" y="0" type="line"/>
      <point x="551.667" y="0" type="line"/>
      <point x="551.667" y="18.667" type="line"/>
      <point x="138.667" y="18.667" type="line"/>
      <point x="138.667" y="344.833" type="line"/>
      <point x="498.667" y="344.833" type="line"/>
      <point x="498.667" y="363.5" type="line"/>
      <point x="138.667" y="363.5" type="line"/>
      <point x="138.667" y="683" type="line"/>
      <point x="537.667" y="683" type="line"/>
      <point x="537.667" y="701.667" type="line"/>
    </contour>
  </outline>
</glyph>
<glyph name="F" format="2">
  <advance width="571.33333"/>
  <unicode hex="0046"/>
  <anchor x="289.167" y="0" name="bottom"/>
  <anchor x="289.167" y="701.667" name="top"/>
  <outline>
    <contour>
      <point x="118.833" y="701.667" type="line"/>
      <point x="118.833" y="0" type="line"/>
      <point x="138.667" y="0" type="line"/>
      <point x="138.667" y="334" type="line"/>
      <point x="458.5" y="334" type="line"/>
      <point x="458.5" y="352.5" type="line"/>
      <point x="138.667" y="352.5" type="line"/>
      <point x="138.667" y="683" type="line"/>
      <point x="497.667" y="683" type="line"/>
      <point x="497.667" y="701.667" type="line"/>
    </contour>
  </outline>
</glyph>
<glyph name="G" format="2">
  <advance width="735.16667"/>
  <unicode hex="0047"/>
  <anchor x="389.667" y="0" name="bottom"/>
  <anchor x="400.5" y="701.667" name="top"/>
  <outline>
    <contour>
      <point x="636.5" y="43.333" type="curve"/>
      <point x="636.5" y="303.833" type="line"/>
      <point x="446.667" y="303.833" type="line"/>
      <point x="446.667" y="285.167" type="line"/>
      <point x="616.667" y="285.167" type="line"/>
      <point x="616.667" y="55.667" type="line"/>
      <point x="566.833" y="27.333"/>
      <point x="490.667" y="10.833"/>
      <point x="429.667" y="10.833" type="curve" smooth="yes"/>
      <point x="225.5" y="10.833"/>
      <point x="93.833" y="161.667"/>
      <point x="93.833" y="348.5" type="curve" smooth="yes"/>
      <point x="93.833" y="537.167"/>
      <point x="245" y="690.667"/>
      <point x="432.667" y="690.667" type="curve" smooth="yes"/>
      <point x="495" y="690.667"/>
      <point x="556.833" y="672.5"/>
      <point x="607.167" y="642" type="curve"/>
      <point x="616.833" y="659.333" type="line"/>
      <point x="562.833" y="691.333"/>
      <point x="500" y="709.667"/>
      <point x="431.833" y="709.667" type="curve" smooth="yes"/>
      <point x="234.667" y="709.667"/>
      <point x="73.833" y="550"/>
      <point x="73.833" y="348.833" type="curve" smooth="yes"/>
      <point x="73.833" y="151.5"/>
      <point x="214.333" y="-8"/>
      <point x="432.333" y="-8" type="curve" smooth="yes"/>
      <point x="500.333" y="-8"/>
      <point x="584.333" y="12.167"/>
    </contour>
  </outline>
</glyph>
<glyph name="H" format="2">
  <advance width="735"/>
  <unicode hex="0048"/>
  <anchor x="367.667" y="0" name="bottom"/>
  <anchor x="367.667" y="350.833" name="center"/>
  <anchor x="367.667" y="701.667" name="top"/>
  <anchor x="2" y="701.667" name="topleft"/>
  <outline>
    <contour>
      <point x="616.5" y="701.667" type="line"/>
      <point x="596.667" y="701.667" type="line"/>
      <point x="596.667" y="362.5" type="line"/>
      <point x="138.667" y="362.5" type="line"/>
      <point x="138.667" y="701.667" type="line"/>
      <point x="118.833" y="701.667" type="line"/>
      <point x="118.833" y="0" type="line"/>
      <point x="138.667" y="0" type="line"/>
      <point x="138.667" y="344" type="line"/>
      <point x="596.667" y="344" type="line"/>
      <point x="596.667" y="0" type="line"/>
      <point x="616.5" y="0" type="line"/>
    </contour>
  </outline>
</glyph>
<glyph name="I" format="2">
  <advance width="257.5"/>
  <unicode hex="0049"/>
  <anchor x="128.833" y="0" name="bottom"/>
  <anchor x="120.333" y="10" name="ogonek"/>
  <anchor x="128.833" y="702.5" name="top"/>
  <anchor x="2" y="701.667" name="topleft"/>
  <outline>
    <contour>
      <point x="118.833" y="701.667" type="line"/>
      <point x="118.833" y="0" type="line"/>
      <point x="138.667" y="0" type="line"/>
      <point x="138.667" y="701.667" type="line"/>
    </contour>
  </outline>
</glyph>
<glyph name="J" format="2">
  <advance width="309"/>
  <unicode hex="004A"/>
  <anchor x="168" y="0" name="bottom"/>
  <anchor x="171.167" y="702.5" name="top"/>
  <outline>
    <contour>
      <point x="190.333" y="92.833" type="curve" smooth="yes"/>
      <point x="190.333" y="701.667" type="line"/>
      <point x="170.5" y="701.667" type="line"/>
      <point x="170.5" y="95.833" type="line" smooth="yes"/>
      <point x="170.5" y="-38.5"/>
      <point x="97.833" y="-118.833"/>
      <point x="0.167" y="-123.833" type="curve"/>
      <point x="0.167" y="-142.5" type="line"/>
      <point x="0.167" y="-142.5" type="line"/>
      <point x="104.5" y="-138.5"/>
      <point x="190.333" y="-57"/>
    </contour>
  </outline>
</glyph>
<glyph name="K" format="2">
  <advance width="641"/>
  <unicode hex="004B"/>
  <anchor x="305.167" y="0" name="bottom"/>
  <anchor x="307.333" y="701.667" name="top"/>
  <outline>
    <contour>
      <point x="138.833" y="365" type="line"/>
      <point x="138.833" y="701.667" type="line"/>
      <point x="118.833" y="701.667" type="line"/>
      <point x="118.833" y="0" type="line"/>
      <point x="138.833" y="0" type="line"/>
      <point x="137.833" y="314.333" type="line"/>
      <point x="238.833" y="409.667" type="line"/>
      <point x="562.333" y="0" type="line"/>
      <point x="587.667" y="0" type="line"/>
      <point x="254" y="423.167" type="line"/>
      <point x="544.667" y="701.667" type="line"/>
      <point x="519.167" y="701.667" type="line"/>
      <point x="134.833" y="334" type="line"/>
      <point x="137.667" y="330.833" type="line"/>
    </contour>
  </outline>
</glyph>
<glyph name="L" format="2">
  <advance width="591"/>
  <unicode hex="004C"/>
  <anchor x="310.833" y="0" name="bottom"/>
  <anchor x="310.833" y="350.833" name="center"/>
  <anchor x="128.667" y="702.5" name="top"/>
  <anchor x="618.667" y="701.667" name="topright"/>
  <outline>
    <contour>
      <point x="118.833" y="701.667" type="line"/>
      <point x="118.833" y="0" type="line"/>
      <point x="541" y="0" type="line"/>
      <point x="541" y="18.667" type="line"/>
      <point x="138.667" y="18.667" type="line"/>
      <point x="138.667" y="701.667" type="line"/>
    </contour>
  </outline>
</glyph>
<glyph name="M" format="2">
  <advance width="894.33333"/>
  <unicode hex="004D"/>
  <anchor x="447.167" y="0" name="bottom"/>
  <anchor x="447.167" y="701.667" name="top"/>
  <outline>
    <contour>
      <point x="118.833" y="0" type="line"/>
      <point x="138.5" y="0" type="line"/>
      <point x="138.5" y="664.333" type="line"/>
      <point x="135.5" y="656.5" type="line"/>
      <point x="446" y="220.333" type="line"/>
      <point x="448" y="220.333" type="line"/>
      <point x="758.167" y="656.5" type="line"/>
      <point x="755.833" y="664.667" type="line"/>
      <point x="755.833" y="0" type="line"/>
      <point x="775.5" y="0" type="line"/>
      <point x="775.5" y="713.5" type="line"/>
      <point x="774.5" y="713.5" type="line"/>
      <point x="443" y="242" type="line"/>
      <point x="451.5" y="241.5" type="line"/>
      <point x="119.833" y="713.5" type="line"/>
      <point x="118.833" y="713.5" type="line"/>
    </contour>
  </outline>
</glyph>
<glyph name="N" format="2">
  <advance width="812.83333"/>
  <unicode hex="004E"/>
  <anchor x="407" y="0" name="bottom"/>
  <anchor x="406" y="701.667" name="top"/>
  <outline>
    <contour>
      <point x="692.833" y="-12.833" type="line"/>
      <point x="694" y="-12.833" type="line"/>
      <point x="694" y="701.667" type="line"/>
      <point x="674.5" y="701.667" type="line"/>
      <point x="674.667" y="27.5" type="line"/>
      <point x="685.167" y="26.5" type="line"/>
      <point x="120.167" y="713.333" type="line"/>
      <point x="118.833" y="713.333" type="line"/>
      <point x="118.833" y="0" type="line"/>
      <point x="138.5" y="0" type="line"/>
      <point x="138.333" y="675.667" type="line"/>
      <point x="132.833" y="665.667" type="line"/>
    </contour>
  </outline>
</glyph>
<glyph name="O" format="2">
  <advance width="865"/>
  <unicode hex="004F"/>
  <anchor x="432.667" y="0" name="bottom"/>
  <anchor x="432.667" y="350.833" name="center"/>
  <anchor x="528.167" y="10" name="ogonek"/>
  <anchor x="432.667" y="702" name="top"/>
  <anchor x="24.833" y="701.667" name="topleft"/>
  <anchor x="528.833" y="825.667" name="topright"/>
  <outline>
    <contour>
      <point x="73.833" y="349.833" type="curve"/>
      <point x="73.833" y="141.833"/>
      <point x="234.333" y="-8"/>
      <point x="431.667" y="-8" type="curve" smooth="yes"/>
      <point x="630" y="-8"/>
      <point x="791.5" y="152.333"/>
      <point x="791.5" y="349.833" type="curve" smooth="yes"/>
      <point x="791.5" y="548"/>
      <point x="630" y="709.667"/>
      <point x="431.667" y="709.667" type="curve" smooth="yes"/>
      <point x="234.333" y="709.667"/>
      <point x="73.833" y="548"/>
    </contour>
    <contour>
      <point x="93.833" y="348.833" type="curve"/>
      <point x="93.833" y="530.667"/>
      <point x="239.667" y="691"/>
      <point x="431.667" y="691" type="curve" smooth="yes"/>
      <point x="618" y="691"/>
      <point x="771.5" y="536.333"/>
      <point x="771.5" y="349.833" type="curve" smooth="yes"/>
      <point x="771.5" y="161.5"/>
      <point x="618.167" y="10.667"/>
      <point x="429" y="10.667" type="curve" smooth="yes"/>
      <point x="244.5" y="10.667"/>
      <point x="93.833" y="162.5"/>
    </contour>
  </outline>
</glyph>
<glyph name="P" format="2">
  <advance width="530"/>
  <unicode hex="0050"/>
  <anchor x="258.333" y="0" name="bottom"/>
  <anchor x="258.333" y="701.667" name="top"/>
  <outline>
    <contour>
      <point x="264.5" y="701.667" type="curve" smooth="yes"/>
      <point x="118.833" y="701.667" type="line"/>
      <point x="118.833" y="0" type="line"/>
      <point x="138.667" y="0" type="line"/>
      <point x="138.667" y="317.167" type="line"/>
      <point x="250.333" y="317.167" type="line" smooth="yes"/>
      <point x="401.167" y="317.167"/>
      <point x="466.167" y="413.833"/>
      <point x="466.167" y="514.833" type="curve" smooth="yes"/>
      <point x="466.167" y="643.833"/>
      <point x="380.5" y="701.667"/>
    </contour>
    <contour>
      <point x="250.333" y="335.833" type="curve" smooth="yes"/>
      <point x="138.667" y="335.833" type="line"/>
      <point x="138.667" y="683" type="line"/>
      <point x="263.667" y="683" type="line" smooth="yes"/>
      <point x="372.333" y="683"/>
      <point x="446.5" y="624.833"/>
      <point x="446.5" y="516.5" type="curve" smooth="yes"/>
      <point x="446.5" y="446"/>
      <point x="405.167" y="335.833"/>
    </contour>
  </outline>
</glyph>
<glyph name="Q" format="2">
  <advance width="878.66667"/>
  <unicode hex="0051"/>
  <anchor x="438.833" y="0" name="bottom"/>
  <anchor x="438.833" y="701.667" name="top"/>
  <outline>
    <contour>
      <point x="525.167" y="18.667" type="line"/>
      <point x="492.833" y="0" type="line"/>
      <point x="804.833" y="0" type="line"/>
      <point x="804.833" y="18.667" type="line"/>
    </contour>
    <contour>
      <point x="73.833" y="349.833" type="curve"/>
      <point x="73.833" y="141.833"/>
      <point x="234.333" y="-8"/>
      <point x="431.667" y="-8" type="curve" smooth="yes"/>
      <point x="630" y="-8"/>
      <point x="791.5" y="152.333"/>
      <point x="791.5" y="349.833" type="curve" smooth="yes"/>
      <point x="791.5" y="548"/>
      <point x="630" y="709.667"/>
      <point x="431.667" y="709.667" type="curve" smooth="yes"/>
      <point x="234.333" y="709.667"/>
      <point x="73.833" y="548"/>
    </contour>
    <contour>
      <point x="93.833" y="348.833" type="curve"/>
      <point x="93.833" y="530.333"/>
      <point x="239.667" y="690.833"/>
      <point x="431.667" y="690.833" type="curve" smooth="yes"/>
      <point x="618" y="690.833"/>
      <point x="771.5" y="536.167"/>
      <point x="771.5" y="349.833" type="curve" smooth="yes"/>
      <point x="771.5" y="161.5"/>
      <point x="618.167" y="10.667"/>
      <point x="429" y="10.667" type="curve" smooth="yes"/>
      <point x="244.5" y="10.667"/>
      <point x="93.833" y="162.5"/>
    </contour>
  </outline>
</glyph>
<glyph name="R" format="2">
  <advance width="617"/>
  <unicode hex="0052"/>
  <anchor x="265.333" y="0" name="bottom"/>
  <anchor x="263.667" y="702.5" name="top"/>
  <outline>
    <contour>
      <point x="262.5" y="701.667" type="curve" smooth="yes"/>
      <point x="118.833" y="701.667" type="line"/>
      <point x="118.833" y="0" type="line"/>
      <point x="138.667" y="0" type="line"/>
      <point x="138.667" y="317.167" type="line"/>
      <point x="250.333" y="317.167" type="line" smooth="yes"/>
      <point x="409" y="317.167"/>
      <point x="466.5" y="413.833"/>
      <point x="466.5" y="514.833" type="curve" smooth="yes"/>
      <point x="466.5" y="653.333"/>
      <point x="344.333" y="701.667"/>
    </contour>
    <contour>
      <point x="247.333" y="335.833" type="curve" smooth="yes"/>
      <point x="138.667" y="335.833" type="line"/>
      <point x="138.667" y="683" type="line"/>
      <point x="263.667" y="683" type="line" smooth="yes"/>
      <point x="364.833" y="683"/>
      <point x="446.5" y="614.333"/>
      <point x="446.5" y="513.667" type="curve" smooth="yes"/>
      <point x="446.5" y="431.5"/>
      <point x="405.167" y="335.833"/>
    </contour>
    <contour>
      <point x="338.5" y="334.667" type="line"/>
      <point x="315.5" y="334.5" type="line"/>
      <point x="516.833" y="0" type="line"/>
      <point x="539.667" y="0" type="line"/>
    </contour>
  </outline>
</glyph>
<glyph name="S" format="2">
  <advance width="551"/>
  <unicode hex="0053"/>
  <anchor x="276.833" y="-0.5" name="bottom"/>
  <anchor x="276.833" y="720.667" name="top"/>
  <outline>
    <contour>
      <point x="447.167" y="651.667" type="curve"/>
      <point x="455.333" y="667.167" type="line"/>
      <point x="406.833" y="689.833"/>
      <point x="331.167" y="705.667"/>
      <point x="280.167" y="705.667" type="curve" smooth="yes"/>
      <point x="174.667" y="705.333"/>
      <point x="92.167" y="642.5"/>
      <point x="92.167" y="548.833" type="curve" smooth="yes"/>
      <point x="92.167" y="449.833"/>
      <point x="185.333" y="412.5"/>
      <point x="278.167" y="378.5" type="curve" smooth="yes"/>
      <point x="373.5" y="344"/>
      <point x="469.333" y="305.333"/>
      <point x="469.333" y="187.667" type="curve" smooth="yes"/>
      <point x="469.333" y="68.333"/>
      <point x="370" y="10"/>
      <point x="273.167" y="10" type="curve" smooth="yes"/>
      <point x="192.5" y="10"/>
      <point x="111.833" y="51.333"/>
      <point x="71.333" y="80.833" type="curve"/>
      <point x="60.833" y="63.333" type="line"/>
      <point x="86.333" y="47.5"/>
      <point x="163" y="-8"/>
      <point x="276.5" y="-8" type="curve" smooth="yes"/>
      <point x="397.5" y="-8"/>
      <point x="489.333" y="67.167"/>
      <point x="489.333" y="188.667" type="curve" smooth="yes"/>
      <point x="489.333" y="318.167"/>
      <point x="387" y="358.5"/>
      <point x="290.5" y="394.333" type="curve" smooth="yes"/>
      <point x="197.5" y="429"/>
      <point x="112.167" y="463.833"/>
      <point x="112.167" y="552.167" type="curve" smooth="yes"/>
      <point x="112.167" y="629"/>
      <point x="178.833" y="688.5"/>
      <point x="282" y="688.5" type="curve" smooth="yes"/>
      <point x="344.5" y="688.5"/>
      <point x="410.167" y="668.333"/>
    </contour>
  </outline>
</glyph>
<glyph name="T" format="2">
  <advance width="575"/>
  <unicode hex="0054"/>
  <anchor x="287.333" y="0" name="bottom"/>
  <anchor x="287.333" y="350.833" name="center"/>
  <anchor x="287.333" y="701.667" name="top"/>
  <outline>
    <contour>
      <point x="59.333" y="701.667" type="line"/>
      <point x="59.333" y="683" type="line"/>
      <point x="277.167" y="683" type="line"/>
      <point x="277.167" y="0" type="line"/>
      <point x="297" y="0" type="line"/>
      <point x="297" y="683" type="line"/>
      <point x="515.167" y="683" type="line"/>
      <point x="515.167" y="701.667" type="line"/>
    </contour>
  </outline>
</glyph>
<glyph name="U" format="2">
  <advance width="692.83333"/>
  <unicode hex="0055"/>
  <anchor x="346.5" y="0" name="bottom"/>
  <anchor x="461.667" y="10" name="ogonek"/>
  <anchor x="346.5" y="702.5" name="top"/>
  <anchor x="586.333" y="822.5" name="topright"/>
  <outline>
    <contour>
      <point x="138" y="230" type="curve" smooth="yes"/>
      <point x="138" y="701.667" type="line"/>
      <point x="118.167" y="701.667" type="line"/>
      <point x="118.167" y="227.833" type="line" smooth="yes"/>
      <point x="118.167" y="74.5"/>
      <point x="215.833" y="-8"/>
      <point x="346.333" y="-8" type="curve" smooth="yes"/>
      <point x="346.333" y="-8" type="line" smooth="yes"/>
      <point x="475.167" y="-8"/>
      <point x="574.667" y="74.5"/>
      <point x="574.667" y="227.833" type="curve" smooth="yes"/>
      <point x="574.667" y="701.667" type="line"/>
      <point x="555" y="701.667" type="line"/>
      <point x="555" y="230" type="line" smooth="yes"/>
      <point x="555" y="90.167"/>
      <point x="466" y="10.667"/>
      <point x="346.333" y="10.667" type="curve" smooth="yes"/>
      <point x="225.167" y="10.667"/>
      <point x="138" y="90.167"/>
    </contour>
  </outline>
</glyph>
<glyph name="V" format="2">
  <advance width="692"/>
  <unicode hex="0056"/>
  <anchor x="346" y="0" name="bottom"/>
  <anchor x="346" y="701.667" name="top"/>
  <outline>
    <contour>
      <point x="76" y="701.667" type="line"/>
      <point x="54" y="701.667" type="line"/>
      <point x="346" y="-32.167" type="line"/>
      <point x="638" y="701.667" type="line"/>
      <point x="616.167" y="701.667" type="line"/>
      <point x="341.833" y="-2.667" type="line"/>
      <point x="352.167" y="-3.333" type="line"/>
    </contour>
  </outline>
</glyph>
<glyph name="W" format="2">
  <advance width="984"/>
  <unicode hex="0057"/>
  <anchor x="492" y="0" name="bottom"/>
  <anchor x="492" y="702" name="top"/>
  <outline>
    <contour>
      <point x="54" y="701.333" type="line"/>
      <point x="329.833" y="-32.167" type="line"/>
      <point x="488.333" y="401" type="line"/>
      <point x="477.833" y="424" type="line"/>
      <point x="327.333" y="6.5" type="line"/>
      <point x="334.167" y="5.167" type="line"/>
      <point x="75.833" y="701.333" type="line"/>
    </contour>
    <contour>
      <point x="368.5" y="701.333" type="line"/>
      <point x="644.833" y="-32" type="line"/>
      <point x="929.833" y="701.333" type="line"/>
      <point x="908.667" y="701.333" type="line"/>
      <point x="640.667" y="4.167" type="line"/>
      <point x="651.5" y="0.167" type="line"/>
      <point x="389.167" y="701.333" type="line"/>
    </contour>
  </outline>
</glyph>
<glyph name="X" format="2">
  <advance width="588"/>
  <unicode hex="0058"/>
  <anchor x="292.333" y="0" name="bottom"/>
  <anchor x="292.333" y="701.667" name="top"/>
  <outline>
    <contour>
      <point x="58.833" y="701.667" type="line"/>
      <point x="514.833" y="0" type="line"/>
      <point x="539.333" y="0" type="line"/>
      <point x="82.333" y="701.667" type="line"/>
    </contour>
    <contour>
      <point x="48.833" y="0" type="line"/>
      <point x="72.167" y="0" type="line"/>
      <point x="294.833" y="352" type="line"/>
      <point x="281.333" y="364.167" type="line"/>
    </contour>
    <contour>
      <point x="288.5" y="368.5" type="line"/>
      <point x="302.333" y="355.333" type="line"/>
      <point x="523.833" y="701.667" type="line"/>
      <point x="500.833" y="701.667" type="line"/>
    </contour>
  </outline>
</glyph>
<glyph name="Y" format="2">
  <advance width="643"/>
  <unicode hex="0059"/>
  <anchor x="321.833" y="0" name="bottom"/>
  <anchor x="322.667" y="701.667" name="top"/>
  <anchor x="29.167" y="701.667" name="topleft"/>
  <outline>
    <contour>
      <point x="311.833" y="260.5" type="line"/>
      <point x="311.833" y="0" type="line"/>
      <point x="331.667" y="0" type="line"/>
      <point x="331.667" y="260.5" type="line"/>
      <point x="594.167" y="701.667" type="line"/>
      <point x="571" y="701.667" type="line"/>
      <point x="318" y="275.5" type="line"/>
      <point x="326.667" y="276.5" type="line"/>
      <point x="72.667" y="701.667" type="line"/>
      <point x="48.5" y="701.667" type="line"/>
    </contour>
  </outline>
</glyph>
<glyph name="Z" format="2">
  <advance width="697.16667"/>
  <unicode hex="005A"/>
  <anchor x="348.5" y="0" name="bottom"/>
  <anchor x="348.5" y="701.667" name="top"/>
  <outline>
    <contour>
      <point x="59.333" y="0" type="curve"/>
      <point x="637.5" y="0" type="line"/>
      <point x="637.5" y="18.667" type="line"/>
      <point x="87.667" y="18.667" type="line"/>
      <point x="90" y="14" type="line"/>
      <point x="606" y="701.667" type="line"/>
      <point x="134" y="701.667" type="line"/>
      <point x="111.833" y="701.667"/>
      <point x="103.833" y="711.833"/>
      <point x="103.833" y="724.667" type="curve" smooth="yes"/>
      <point x="103.833" y="736.667" type="line"/>
      <point x="82.667" y="736.667" type="line"/>
      <point x="82.667" y="728.167" type="line" smooth="yes"/>
      <point x="82.667" y="690.167"/>
      <point x="103.333" y="683"/>
      <point x="139.5" y="683" type="curve" smooth="yes"/>
      <point x="580.5" y="683" type="line"/>
      <point x="574" y="688.5" type="line"/>
      <point x="416.333" y="480.167"/>
      <point x="217" y="220.833"/>
    </contour>
  </outline>
</glyph>
<glyph name="bracketleft" format="2">
  <advance width="344"/>
  <unicode hex="005B"/>
  <outline>
    <contour>
      <point x="118.833" y="746.667" type="line"/>
      <point x="118.833" y="-149.167" type="line"/>
      <point x="285" y="-149.167" type="line"/>
      <point x="285" y="-130" type="line"/>
      <point x="140.667" y="-130" type="line"/>
      <point x="140.667" y="727.5" type="line"/>
      <point x="285" y="727.5" type="line"/>
      <point x="285" y="746.667" type="line"/>
    </contour>
  </outline>
</glyph>
<glyph name="backslash" format="2">
  <advance width="324.83333"/>
  <unicode hex="005C"/>
  <outline>
    <contour>
      <point x="35.5" y="736.667" type="curve"/>
      <point x="15.833" y="736.667" type="line"/>
      <point x="108.833" y="484.5"/>
      <point x="201" y="233.167"/>
      <point x="294" y="-19" type="curve"/>
      <point x="313.667" y="-19" type="line"/>
      <point x="220.667" y="233.167"/>
      <point x="128.5" y="484.5"/>
    </contour>
  </outline>
</glyph>
<glyph name="bracketright" format="2">
  <advance width="344.33333"/>
  <unicode hex="005D"/>
  <outline>
    <contour>
      <point x="225.5" y="-149.167" type="line"/>
      <point x="225.5" y="746.667" type="line"/>
      <point x="59.333" y="746.667" type="line"/>
      <point x="59.333" y="727.667" type="line"/>
      <point x="203.833" y="727.667" type="line"/>
      <point x="203.833" y="-130" type="line"/>
      <point x="59.333" y="-130" type="line"/>
      <point x="59.333" y="-149.167" type="line"/>
    </contour>
  </outline>
</glyph>
<glyph name="asciicircum" format="2">
  <advance width="470.33333"/>
  <unicode hex="005E"/>
  <outline>
    <contour>
      <point x="333.333" y="479.5" type="curve"/>
      <point x="352.333" y="479.5" type="line"/>
      <point x="312.333" y="539.5"/>
      <point x="272.167" y="600.5"/>
      <point x="232.167" y="660.5" type="curve"/>
      <point x="232.167" y="660.5" type="line"/>
      <point x="192.167" y="600.5"/>
      <point x="152.167" y="539.5"/>
      <point x="112.167" y="479.5" type="curve"/>
      <point x="131.167" y="479.5" type="line"/>
      <point x="164.667" y="528.167"/>
      <point x="198.667" y="579.833"/>
      <point x="232.167" y="628.667" type="curve"/>
      <point x="265.667" y="579.833"/>
      <point x="299.833" y="528.167"/>
    </contour>
  </outline>
</glyph>
<glyph name="grave" format="2">
  <advance width="205.16667"/>
  <unicode hex="0060"/>
  <outline>
    <contour>
      <point x="-12" y="612.5" type="line"/>
      <point x="79.833" y="479.5" type="line"/>
      <point x="98.833" y="479.5" type="line"/>
      <point x="10" y="612.5" type="line"/>
    </contour>
  </outline>
</glyph>
<glyph name="a" format="2">
  <advance width="542.33333"/>
  <unicode hex="0061"/>
  <anchor x="271.667" y="0" name="bottom"/>
  <anchor x="487.5" y="10" name="ogonek"/>
  <anchor x="272.5" y="378.667" name="top"/>
  <outline>
    <contour>
      <point x="249.333" y="-6.333" type="curve" smooth="yes"/>
      <point x="333.167" y="-6.333"/>
      <point x="405.5" y="45.833"/>
      <point x="432.167" y="114.667" type="curve"/>
      <point x="428.833" y="129.333" type="line"/>
      <point x="428.833" y="0" type="line"/>
      <point x="448.333" y="0" type="line"/>
      <point x="448.333" y="377.667" type="line"/>
      <point x="433" y="377.667" type="line"/>
      <point x="427.833" y="253.333" type="line"/>
      <point x="429.833" y="265.667" type="line"/>
      <point x="401.167" y="336.167"/>
      <point x="331.333" y="386.333"/>
      <point x="251.5" y="386.333" type="curve" smooth="yes"/>
      <point x="142.833" y="386.333"/>
      <point x="54.333" y="314.333"/>
      <point x="54.333" y="189.333" type="curve" smooth="yes"/>
      <point x="54.333" y="79"/>
      <point x="140.667" y="-6.333"/>
    </contour>
    <contour>
      <point x="251" y="11.167" type="curve" smooth="yes"/>
      <point x="152.833" y="11.167"/>
      <point x="73.833" y="91"/>
      <point x="73.833" y="189.667" type="curve" smooth="yes"/>
      <point x="73.833" y="298.833"/>
      <point x="152.667" y="368.833"/>
      <point x="250.833" y="368.833" type="curve" smooth="yes"/>
      <point x="338.333" y="368.833"/>
      <point x="412.833" y="303.667"/>
      <point x="428.833" y="221.5" type="curve"/>
      <point x="428.833" y="180.5" type="line"/>
      <point x="427.833" y="82.833"/>
      <point x="348.833" y="11.167"/>
    </contour>
  </outline>
</glyph>
<glyph name="b" format="2">
  <advance width="543"/>
  <unicode hex="0062"/>
  <anchor x="271.833" y="0" name="bottom"/>
  <anchor x="271.833" y="377.667" name="top"/>
  <outline>
    <contour>
      <point x="293" y="-6.333" type="curve" smooth="yes"/>
      <point x="399.667" y="-6.333"/>
      <point x="488.5" y="61.833"/>
      <point x="488.5" y="189.833" type="curve"/>
      <point x="488.5" y="299.5"/>
      <point x="402.167" y="386.333"/>
      <point x="293.833" y="386.333" type="curve" smooth="yes"/>
      <point x="212.167" y="386.333"/>
      <point x="141.833" y="337.167"/>
      <point x="112.5" y="267" type="curve"/>
      <point x="113.5" y="250.167" type="line"/>
      <point x="113.5" y="751.667" type="line"/>
      <point x="94" y="751.667" type="line"/>
      <point x="94" y="0" type="line"/>
      <point x="113.5" y="0" type="line"/>
      <point x="113.5" y="140.5" type="line"/>
      <point x="110.167" y="118.5" type="line"/>
      <point x="138.5" y="48"/>
      <point x="210.5" y="-6.333"/>
    </contour>
    <contour>
      <point x="291.667" y="11.333" type="curve" smooth="yes"/>
      <point x="193.667" y="11.333"/>
      <point x="114.667" y="90.667"/>
      <point x="113.5" y="173.833" type="curve"/>
      <point x="113.5" y="220.667" type="line"/>
      <point x="127.667" y="304.833"/>
      <point x="200.333" y="369"/>
      <point x="291.667" y="369" type="curve" smooth="yes"/>
      <point x="399.5" y="369"/>
      <point x="468.833" y="285.667"/>
      <point x="468.833" y="189.833" type="curve"/>
      <point x="468.833" y="85.333"/>
      <point x="403.333" y="11.333"/>
    </contour>
  </outline>
</glyph>
<glyph name="c" format="2">
  <advance width="419.66667"/>
  <unicode hex="0063"/>
  <anchor x="210.333" y="0" name="bottom"/>
  <anchor x="249.333" y="378.167" name="top"/>
  <outline>
    <contour>
      <point x="375.167" y="37.167" type="curve"/>
      <point x="362.5" y="49.5" type="line"/>
      <point x="332" y="26"/>
      <point x="293.667" y="11.167"/>
      <point x="251.167" y="11.167" type="curve" smooth="yes"/>
      <point x="152.333" y="11.167"/>
      <point x="73.833" y="90.833"/>
      <point x="73.833" y="189.333" type="curve" smooth="yes"/>
      <point x="73.833" y="288"/>
      <point x="152.333" y="368.5"/>
      <point x="250.5" y="368.5" type="curve" smooth="yes"/>
      <point x="293.5" y="368.5"/>
      <point x="333.167" y="352.333"/>
      <point x="363.667" y="327.833" type="curve"/>
      <point x="375.333" y="342.333" type="line"/>
      <point x="342" y="369.667"/>
      <point x="298.333" y="385.833"/>
      <point x="250" y="385.833" type="curve" smooth="yes"/>
      <point x="141.5" y="385.833"/>
      <point x="54.333" y="299"/>
      <point x="54.333" y="189.333" type="curve" smooth="yes"/>
      <point x="54.333" y="79.667"/>
      <point x="140.667" y="-6.333"/>
      <point x="250.667" y="-6.333" type="curve" smooth="yes"/>
      <point x="298" y="-6.333"/>
      <point x="340.833" y="9.833"/>
    </contour>
  </outline>
</glyph>
<glyph name="d" format="2">
  <advance width="543"/>
  <unicode hex="0064"/>
  <anchor x="271.833" y="0" name="bottom"/>
  <anchor x="437" y="625.833" name="center"/>
  <anchor x="271.833" y="377.667" name="top"/>
  <anchor x="518.167" y="377.667" name="topright"/>
  <outline>
    <contour>
      <point x="249" y="-6.333" type="curve" smooth="yes"/>
      <point x="331.667" y="-6.333"/>
      <point x="402.833" y="43.333"/>
      <point x="431.667" y="113.833" type="curve"/>
      <point x="429.167" y="130" type="line"/>
      <point x="429.167" y="0" type="line"/>
      <point x="448.833" y="0" type="line"/>
      <point x="448.833" y="751.667" type="line"/>
      <point x="429.333" y="751.667" type="line"/>
      <point x="429.333" y="250.167" type="line"/>
      <point x="433.167" y="262.167" type="line"/>
      <point x="403.833" y="332.5"/>
      <point x="330.667" y="386.333"/>
      <point x="249.833" y="386.333" type="curve" smooth="yes"/>
      <point x="142.667" y="386.333"/>
      <point x="54.333" y="308.167"/>
      <point x="54.333" y="189.667" type="curve" smooth="yes"/>
      <point x="54.333" y="79.833"/>
      <point x="140.5" y="-6.333"/>
    </contour>
    <contour>
      <point x="251" y="11.333" type="curve" smooth="yes"/>
      <point x="152.833" y="11.333"/>
      <point x="73.833" y="91.167"/>
      <point x="73.833" y="189.833" type="curve" smooth="yes"/>
      <point x="73.833" y="296.167"/>
      <point x="151.833" y="369"/>
      <point x="251" y="369" type="curve" smooth="yes"/>
      <point x="339.5" y="369"/>
      <point x="414.167" y="301"/>
      <point x="429.167" y="216.833" type="curve"/>
      <point x="429.167" y="183.5" type="line"/>
      <point x="428.167" y="86"/>
      <point x="349.167" y="11.333"/>
    </contour>
  </outline>
</glyph>
<glyph name="e" format="2">
  <advance width="467"/>
  <unicode hex="0065"/>
  <anchor x="234" y="0" name="bottom"/>
  <anchor x="415.667" y="10" name="ogonek"/>
  <anchor x="234.5" y="378.667" name="top"/>
  <outline>
    <contour>
      <point x="250.667" y="-6.333" type="curve" smooth="yes"/>
      <point x="302.5" y="-6.333"/>
      <point x="350" y="13.667"/>
      <point x="385.5" y="45.333" type="curve"/>
      <point x="373.167" y="58.5" type="line"/>
      <point x="341.333" y="29.167"/>
      <point x="298" y="11.333"/>
      <point x="250.833" y="11.333" type="curve" smooth="yes"/>
      <point x="143.833" y="11.333"/>
      <point x="73.667" y="98.333"/>
      <point x="73.667" y="189.833" type="curve" smooth="yes"/>
      <point x="73.667" y="288.667"/>
      <point x="152" y="369"/>
      <point x="250.333" y="369" type="curve" smooth="yes"/>
      <point x="320.667" y="369"/>
      <point x="373.333" y="319.833"/>
      <point x="400.5" y="261" type="curve"/>
      <point x="406.333" y="270.833" type="line"/>
      <point x="74.167" y="137.167" type="line"/>
      <point x="79.833" y="119.833" type="line"/>
      <point x="422.667" y="258.5" type="line"/>
      <point x="393.833" y="332.333"/>
      <point x="334.667" y="387.333"/>
      <point x="250.833" y="387.333" type="curve" smooth="yes"/>
      <point x="141.333" y="387.333"/>
      <point x="54.333" y="298.5"/>
      <point x="54.333" y="189.5" type="curve" smooth="yes"/>
      <point x="54.333" y="80.167"/>
      <point x="140.333" y="-6.333"/>
    </contour>
  </outline>
</glyph>
<glyph name="f" format="2">
  <advance width="291"/>
  <unicode hex="0066"/>
  <anchor x="145.333" y="0" name="bottom"/>
  <anchor x="145.333" y="377.667" name="top"/>
  <outline>
    <contour>
      <point x="115" y="0" type="line"/>
      <point x="134.5" y="0" type="line"/>
      <point x="134.5" y="357" type="line"/>
      <point x="264.667" y="357" type="line"/>
      <point x="264.667" y="375" type="line"/>
      <point x="134.5" y="375" type="line"/>
      <point x="134.5" y="588.833" type="line" smooth="yes"/>
      <point x="134.5" y="703.333"/>
      <point x="163.5" y="741.667"/>
      <point x="226.333" y="741.667" type="curve" smooth="yes"/>
      <point x="239.5" y="741.667"/>
      <point x="249" y="738.667"/>
      <point x="256.333" y="735" type="curve"/>
      <point x="264.667" y="749" type="line"/>
      <point x="251.667" y="754"/>
      <point x="237.833" y="757.333"/>
      <point x="224.833" y="757.333" type="curve" smooth="yes"/>
      <point x="152.333" y="757.333"/>
      <point x="115" y="714.5"/>
      <point x="115" y="585.333" type="curve" smooth="yes"/>
      <point x="115" y="375" type="line"/>
      <point x="49.5" y="375" type="line"/>
      <point x="49.5" y="357" type="line"/>
      <point x="115" y="357" type="line"/>
    </contour>
  </outline>
</glyph>
<glyph name="g" format="2">
  <advance width="543"/>
  <unicode hex="0067"/>
  <anchor x="272" y="0" name="bottom"/>
  <anchor x="272" y="378.667" name="top"/>
  <outline>
    <contour>
      <point x="252.167" y="-181.833" type="curve" smooth="yes"/>
      <point x="405.667" y="-181.833"/>
      <point x="449.167" y="-95.5"/>
      <point x="449.167" y="-7.667" type="curve" smooth="yes"/>
      <point x="449.167" y="377.667" type="line"/>
      <point x="433.833" y="377.667" type="line"/>
      <point x="428" y="255.667" type="line"/>
      <point x="430.667" y="266.833" type="line"/>
      <point x="401.667" y="337"/>
      <point x="331.333" y="386.333"/>
      <point x="251" y="386.333" type="curve" smooth="yes"/>
      <point x="143.167" y="386.333"/>
      <point x="54.333" y="306.333"/>
      <point x="54.333" y="189.5" type="curve" smooth="yes"/>
      <point x="54.333" y="80.333"/>
      <point x="140.833" y="-6.333"/>
      <point x="249.333" y="-6.333" type="curve" smooth="yes"/>
      <point x="332.833" y="-6.333"/>
      <point x="407.833" y="46.667"/>
      <point x="435.667" y="124.167" type="curve"/>
      <point x="429.667" y="129.5" type="line"/>
      <point x="428.667" y="-7.5" type="line"/>
      <point x="425.833" y="-91.667"/>
      <point x="389.667" y="-164"/>
      <point x="251" y="-164" type="curve" smooth="yes"/>
      <point x="209" y="-164"/>
      <point x="158.5" y="-154.833"/>
      <point x="93.167" y="-91.5" type="curve"/>
      <point x="81.833" y="-104.333" type="line"/>
      <point x="148.833" y="-170"/>
      <point x="202" y="-181.833"/>
    </contour>
    <contour>
      <point x="73.833" y="189.667" type="curve" smooth="yes"/>
      <point x="73.833" y="296"/>
      <point x="151.667" y="368.833"/>
      <point x="251.333" y="368.833" type="curve" smooth="yes"/>
      <point x="339.833" y="368.833"/>
      <point x="414.5" y="304.667"/>
      <point x="429.667" y="220.5" type="curve"/>
      <point x="429.667" y="177.5" type="line"/>
      <point x="428.5" y="89.667"/>
      <point x="349.333" y="11.167"/>
      <point x="251.333" y="11.167" type="curve" smooth="yes"/>
      <point x="152.667" y="11.167"/>
      <point x="73.833" y="91"/>
    </contour>
  </outline>
</glyph>
<glyph name="h" format="2">
  <advance width="487"/>
  <unicode hex="0068"/>
  <anchor x="243.5" y="0" name="bottom"/>
  <anchor x="103.5" y="563.833" name="center"/>
  <anchor x="97" y="737.333" name="top"/>
  <outline>
    <contour>
      <point x="94" y="0" type="line"/>
      <point x="113.5" y="0" type="line"/>
      <point x="113.5" y="219.167" type="line" smooth="yes"/>
      <point x="113.5" y="303.5"/>
      <point x="190.833" y="367.667"/>
      <point x="274" y="367.667" type="curve"/>
      <point x="337.167" y="364.833"/>
      <point x="371.333" y="324.5"/>
      <point x="373.333" y="271.167" type="curve"/>
      <point x="373.333" y="0" type="line"/>
      <point x="393" y="0" type="line"/>
      <point x="393" y="272.5" type="line"/>
      <point x="391" y="339"/>
      <point x="346.167" y="385.333"/>
      <point x="275.667" y="385.333" type="curve" smooth="yes"/>
      <point x="200.333" y="385.333"/>
      <point x="136.333" y="340.667"/>
      <point x="112" y="284.833" type="curve"/>
      <point x="113.333" y="272" type="line"/>
      <point x="113.333" y="751.667" type="line"/>
      <point x="94" y="751.667" type="line"/>
    </contour>
  </outline>
</glyph>
<glyph name="k" format="2">
  <advance width="422.66667"/>
  <unicode hex="006B"/>
  <anchor x="211.833" y="0" name="bottom"/>
  <anchor x="211.833" y="377.667" name="top"/>
  <outline>
    <contour>
      <point x="94" y="0" type="line"/>
      <point x="113.5" y="0" type="line"/>
      <point x="113.5" y="751.667" type="line"/>
      <point x="94" y="751.667" type="line"/>
    </contour>
    <contour>
      <point x="196.833" y="241.5" type="line"/>
      <point x="181.333" y="231.333" type="line"/>
      <point x="351.333" y="0" type="line"/>
      <point x="373.833" y="0" type="line"/>
    </contour>
    <contour>
      <point x="105" y="147.833" type="line"/>
      <point x="348.167" y="374" type="line"/>
      <point x="335" y="384.833" type="line"/>
      <point x="104.333" y="169.833" type="line"/>
    </contour>
  </outline>
</glyph>
<glyph name="l" format="2">
  <advance width="207.5"/>
  <unicode hex="006C"/>
  <anchor x="103.833" y="0" name="bottom"/>
  <anchor x="103.833" y="189.333" name="center"/>
  <anchor x="110.5" y="752.5" name="top"/>
  <anchor x="182.833" y="377.667" name="topright"/>
  <outline>
    <contour>
      <point x="94" y="751.667" type="line"/>
      <point x="94" y="0" type="line"/>
      <point x="113.5" y="0" type="line"/>
      <point x="113.5" y="751.667" type="line"/>
    </contour>
  </outline>
</glyph>
<glyph name="m" format="2">
  <advance width="765"/>
  <unicode hex="006D"/>
  <anchor x="382.333" y="0" name="bottom"/>
  <anchor x="382.333" y="377.667" name="top"/>
  <outline>
    <contour>
      <point x="109.167" y="377.667" type="line"/>
      <point x="94" y="377.667" type="line"/>
      <point x="94" y="0" type="line"/>
      <point x="113.5" y="0" type="line"/>
      <point x="113.5" y="219.167" type="line" smooth="yes"/>
      <point x="113.5" y="304.833"/>
      <point x="189.667" y="367.667"/>
      <point x="273.833" y="367.667" type="curve"/>
      <point x="336.667" y="364.667"/>
      <point x="370.5" y="324.333"/>
      <point x="372.5" y="276.667" type="curve"/>
      <point x="372.5" y="0" type="line"/>
      <point x="392" y="0" type="line"/>
      <point x="392" y="224.833" type="line"/>
      <point x="396.833" y="305.833"/>
      <point x="471" y="367.667"/>
      <point x="552.5" y="367.667" type="curve"/>
      <point x="615.333" y="364.667"/>
      <point x="649" y="324.333"/>
      <point x="651" y="276.667" type="curve"/>
      <point x="651" y="0" type="line"/>
      <point x="670.5" y="0" type="line"/>
      <point x="670.5" y="281.667" type="line"/>
      <point x="668.5" y="339"/>
      <point x="624.167" y="385.333"/>
      <point x="553.333" y="385.333" type="curve" smooth="yes"/>
      <point x="481" y="385.333"/>
      <point x="415.833" y="347.667"/>
      <point x="390.333" y="279.167" type="curve"/>
      <point x="393.833" y="285.167" type="line"/>
      <point x="391.167" y="340.333"/>
      <point x="337.667" y="385.333"/>
      <point x="275.167" y="385.333" type="curve" smooth="yes"/>
      <point x="200.333" y="385.333"/>
      <point x="132.5" y="340.833"/>
      <point x="108" y="269.5" type="curve"/>
      <point x="111.667" y="260.333" type="line"/>
    </contour>
  </outline>
</glyph>
<glyph name="n" format="2">
  <advance width="487"/>
  <unicode hex="006E"/>
  <anchor x="243.5" y="0" name="bottom"/>
  <anchor x="243.5" y="378.167" name="top"/>
  <outline>
    <contour>
      <point x="109.167" y="377.667" type="line"/>
      <point x="94" y="377.667" type="line"/>
      <point x="94" y="0" type="line"/>
      <point x="113.5" y="0" type="line"/>
      <point x="113.5" y="219.167" type="line" smooth="yes"/>
      <point x="113.5" y="308.333"/>
      <point x="190.833" y="367.667"/>
      <point x="274" y="367.667" type="curve"/>
      <point x="337.167" y="364.833"/>
      <point x="371.333" y="324.5"/>
      <point x="373.333" y="271.167" type="curve"/>
      <point x="373.333" y="0" type="line"/>
      <point x="393" y="0" type="line"/>
      <point x="393" y="272.5" type="line"/>
      <point x="391" y="339"/>
      <point x="346.167" y="385.333"/>
      <point x="275.667" y="385.333" type="curve" smooth="yes"/>
      <point x="200.333" y="385.333"/>
      <point x="131.167" y="341.667"/>
      <point x="109.833" y="270.333" type="curve"/>
      <point x="112.5" y="256.333" type="line"/>
    </contour>
  </outline>
</glyph>
<glyph name="o" format="2">
  <advance width="503"/>
  <unicode hex="006F"/>
  <anchor x="251.667" y="0" name="bottom"/>
  <anchor x="251.667" y="189.333" name="center"/>
  <anchor x="418.5" y="10" name="ogonek"/>
  <anchor x="251.667" y="378.667" name="top"/>
  <anchor x="349.667" y="377.667" name="topright"/>
  <outline>
    <contour>
      <point x="54.333" y="189.667" type="curve"/>
      <point x="54.333" y="77"/>
      <point x="141" y="-6.333"/>
      <point x="250.667" y="-6.333" type="curve" smooth="yes"/>
      <point x="360.667" y="-6.333"/>
      <point x="448.833" y="80.5"/>
      <point x="448.833" y="189.667" type="curve" smooth="yes"/>
      <point x="448.833" y="298.667"/>
      <point x="360.667" y="387.333"/>
      <point x="250.833" y="387.333" type="curve" smooth="yes"/>
      <point x="141" y="387.333"/>
      <point x="54.333" y="298.667"/>
    </contour>
    <contour>
      <point x="73.833" y="189.5" type="curve"/>
      <point x="73.833" y="280.5"/>
      <point x="148.5" y="368.833"/>
      <point x="250.667" y="368.833" type="curve" smooth="yes"/>
      <point x="349" y="368.833"/>
      <point x="428.333" y="288.167"/>
      <point x="428.333" y="189.5" type="curve" smooth="yes"/>
      <point x="428.333" y="90.833"/>
      <point x="349" y="11.167"/>
      <point x="250.667" y="11.167" type="curve" smooth="yes"/>
      <point x="152.333" y="11.167"/>
      <point x="73.833" y="90.833"/>
    </contour>
  </outline>
</glyph>
<glyph name="p" format="2">
  <advance width="542.83333"/>
  <unicode hex="0070"/>
  <anchor x="271.833" y="0" name="bottom"/>
  <anchor x="271.833" y="377.667" name="top"/>
  <outline>
    <contour>
      <point x="292.5" y="-6.333" type="curve" smooth="yes"/>
      <point x="401.833" y="-6.333"/>
      <point x="488.5" y="78.667"/>
      <point x="488.5" y="189.333" type="curve" smooth="yes"/>
      <point x="488.5" y="299.167"/>
      <point x="402.333" y="386.333"/>
      <point x="293.667" y="386.333" type="curve" smooth="yes"/>
      <point x="212.167" y="386.333"/>
      <point x="141.833" y="336.333"/>
      <point x="112" y="265.833" type="curve"/>
      <point x="113.5" y="236.833" type="line"/>
      <point x="112.667" y="378.167" type="line"/>
      <point x="94" y="378.167" type="line"/>
      <point x="94" y="-181.333" type="line"/>
      <point x="113.5" y="-181.333" type="line"/>
      <point x="113.5" y="138.333" type="line"/>
      <point x="111.333" y="113.833" type="line"/>
      <point x="139.667" y="43.333"/>
      <point x="210.833" y="-6.333"/>
    </contour>
    <contour>
      <point x="291.167" y="11" type="curve" smooth="yes"/>
      <point x="195.333" y="11"/>
      <point x="117" y="87.667"/>
      <point x="113.5" y="182.333" type="curve"/>
      <point x="113.5" y="191.833" type="line"/>
      <point x="114.667" y="289.333"/>
      <point x="193.667" y="368.667"/>
      <point x="291.667" y="368.667" type="curve" smooth="yes"/>
      <point x="390.167" y="368.667"/>
      <point x="468.833" y="289.167"/>
      <point x="468.833" y="189.333" type="curve" smooth="yes"/>
      <point x="468.833" y="90.667"/>
      <point x="389.833" y="11"/>
    </contour>
  </outline>
</glyph>
<glyph name="q" format="2">
  <advance width="543"/>
  <unicode hex="0071"/>
  <anchor x="271.833" y="0" name="bottom"/>
  <anchor x="271.833" y="377.667" name="top"/>
  <outline>
    <contour>
      <point x="248.833" y="-6.333" type="curve" smooth="yes"/>
      <point x="331.5" y="-6.333"/>
      <point x="402.833" y="43"/>
      <point x="431.167" y="113.167" type="curve"/>
      <point x="429.333" y="134.5" type="line"/>
      <point x="429.333" y="-181.333" type="line"/>
      <point x="448.833" y="-181.333" type="line"/>
      <point x="448.833" y="378.167" type="line"/>
      <point x="429.167" y="378.167" type="line"/>
      <point x="429.167" y="237.667" type="line"/>
      <point x="433.5" y="261.5" type="line"/>
      <point x="404.167" y="332.167"/>
      <point x="331.333" y="386.333"/>
      <point x="250.833" y="386.333" type="curve" smooth="yes"/>
      <point x="141.167" y="386.333"/>
      <point x="54.333" y="300.167"/>
      <point x="54.333" y="189.333" type="curve" smooth="yes"/>
      <point x="54.333" y="79.667"/>
      <point x="140.667" y="-6.333"/>
    </contour>
    <contour>
      <point x="251" y="11" type="curve" smooth="yes"/>
      <point x="152.833" y="11"/>
      <point x="73.833" y="90.667"/>
      <point x="73.833" y="189.333" type="curve" smooth="yes"/>
      <point x="73.833" y="289"/>
      <point x="152.833" y="368.667"/>
      <point x="251" y="368.667" type="curve" smooth="yes"/>
      <point x="349.167" y="368.667"/>
      <point x="428.167" y="289.333"/>
      <point x="429.167" y="191.833" type="curve"/>
      <point x="429.167" y="179.5" type="line"/>
      <point x="424.667" y="85.833"/>
      <point x="346.333" y="11"/>
    </contour>
  </outline>
</glyph>
<glyph name="r" format="2">
  <advance width="321.16667"/>
  <unicode hex="0072"/>
  <anchor x="157.667" y="0" name="bottom"/>
  <anchor x="160.5" y="377.667" name="top"/>
  <outline>
    <contour>
      <point x="109.167" y="377.667" type="line"/>
      <point x="94" y="377.667" type="line"/>
      <point x="94" y="0" type="line"/>
      <point x="113.5" y="0" type="line"/>
      <point x="113.5" y="217.833" type="line" smooth="yes"/>
      <point x="113.5" y="304.333"/>
      <point x="188.833" y="364.333"/>
      <point x="276.167" y="366.833" type="curve"/>
      <point x="276.5" y="385.333" type="line"/>
      <point x="203.333" y="383.5"/>
      <point x="132.5" y="342.167"/>
      <point x="109.833" y="271" type="curve"/>
      <point x="111.667" y="260.167" type="line"/>
    </contour>
  </outline>
</glyph>
<glyph name="s" format="2">
  <advance width="344"/>
  <unicode hex="0073"/>
  <anchor x="172.167" y="-0.5" name="bottom"/>
  <anchor x="172.5" y="378.167" name="top"/>
  <outline>
    <contour>
      <point x="171" y="-8" type="curve" smooth="yes"/>
      <point x="248.333" y="-8"/>
      <point x="289.167" y="36.333"/>
      <point x="289.167" y="102" type="curve" smooth="yes"/>
      <point x="289.167" y="170.833"/>
      <point x="228.167" y="187.833"/>
      <point x="172.833" y="206.833" type="curve" smooth="yes"/>
      <point x="128.667" y="222.833"/>
      <point x="88" y="240.333"/>
      <point x="88" y="289" type="curve" smooth="yes"/>
      <point x="88" y="342.833"/>
      <point x="137.833" y="365.333"/>
      <point x="172.833" y="365.333" type="curve" smooth="yes"/>
      <point x="199.833" y="365.167"/>
      <point x="241.5" y="353.667"/>
      <point x="263.5" y="326.333" type="curve"/>
      <point x="274.5" y="339.333" type="line"/>
      <point x="245.667" y="371.333"/>
      <point x="202.667" y="382.5"/>
      <point x="171.667" y="382.5" type="curve" smooth="yes"/>
      <point x="119.333" y="382.5"/>
      <point x="68.5" y="350.333"/>
      <point x="68.5" y="287.167" type="curve" smooth="yes"/>
      <point x="68.5" y="228.167"/>
      <point x="112.833" y="206.833"/>
      <point x="162.333" y="190.333" type="curve" smooth="yes"/>
      <point x="215" y="172.5"/>
      <point x="269.667" y="157.833"/>
      <point x="269.667" y="97" type="curve" smooth="yes"/>
      <point x="269.667" y="30.5"/>
      <point x="218.833" y="9.167"/>
      <point x="171.333" y="9.167" type="curve" smooth="yes"/>
      <point x="126.167" y="9.167"/>
      <point x="86.333" y="27.167"/>
      <point x="66.167" y="51.833" type="curve"/>
      <point x="54.167" y="40" type="line"/>
      <point x="82.667" y="4.5"/>
      <point x="133.333" y="-8"/>
    </contour>
  </outline>
</glyph>
<glyph name="t" format="2">
  <advance width="304.16667"/>
  <unicode hex="0074"/>
  <anchor x="129" y="0" name="bottom"/>
  <anchor x="154.5" y="204.333" name="center"/>
  <anchor x="154.5" y="377.667" name="top"/>
  <anchor x="279.333" y="377.667" name="topright"/>
  <outline>
    <contour>
      <point x="133" y="543" type="line"/>
      <point x="133" y="370.167" type="line"/>
      <point x="45" y="370.167" type="line"/>
      <point x="45" y="353" type="line"/>
      <point x="133" y="353" type="line"/>
      <point x="133" y="0" type="line"/>
      <point x="152.667" y="0" type="line"/>
      <point x="152.667" y="353" type="line"/>
      <point x="278.667" y="353" type="line"/>
      <point x="278.667" y="370.167" type="line"/>
      <point x="152.667" y="370.167" type="line"/>
      <point x="152.667" y="543" type="line"/>
    </contour>
  </outline>
</glyph>
<glyph name="u" format="2">
  <advance width="487"/>
  <unicode hex="0075"/>
  <anchor x="243.333" y="0" name="bottom"/>
  <anchor x="437.833" y="10" name="ogonek"/>
  <anchor x="243.333" y="378.667" name="top"/>
  <anchor x="418.167" y="377.667" name="topright"/>
  <outline>
    <contour>
      <point x="211.167" y="-7.667" type="curve" smooth="yes"/>
      <point x="285.333" y="-7.667"/>
      <point x="359.167" y="44.167"/>
      <point x="376.667" y="106.833" type="curve"/>
      <point x="373.833" y="116.333" type="line"/>
      <point x="376.333" y="0" type="line"/>
      <point x="392.5" y="0" type="line"/>
      <point x="392.5" y="377.667" type="line"/>
      <point x="373" y="377.667" type="line"/>
      <point x="373" y="159.667" type="line" smooth="yes"/>
      <point x="373" y="73.333"/>
      <point x="295.667" y="10"/>
      <point x="214.667" y="10" type="curve"/>
      <point x="149.667" y="13"/>
      <point x="115.5" y="53.167"/>
      <point x="113.5" y="107.5" type="curve"/>
      <point x="113.5" y="377.667" type="line"/>
      <point x="94" y="377.667" type="line"/>
      <point x="94" y="105.167" type="line"/>
      <point x="96" y="38.667"/>
      <point x="140.667" y="-7.667"/>
    </contour>
  </outline>
</glyph>
<glyph name="v" format="2">
  <advance width="430.66667"/>
  <unicode hex="0076"/>
  <anchor x="215.333" y="0" name="bottom"/>
  <anchor x="215.333" y="377.667" name="top"/>
  <outline>
    <contour>
      <point x="212.667" y="-16.667" type="line"/>
      <point x="218.667" y="-16.667" type="line"/>
      <point x="396.833" y="377.667" type="line"/>
      <point x="375.667" y="377.667" type="line"/>
      <point x="210.333" y="6.167" type="line"/>
      <point x="221.833" y="6" type="line"/>
      <point x="55.5" y="377.667" type="line"/>
      <point x="33.833" y="377.667" type="line"/>
    </contour>
  </outline>
</glyph>
<glyph name="w" format="2">
  <advance width="659"/>
  <unicode hex="0077"/>
  <anchor x="329.5" y="0" name="bottom"/>
  <anchor x="329.5" y="377.667" name="top"/>
  <outline>
    <contour>
      <point x="286.5" y="377.667" type="line"/>
      <point x="266.833" y="377.667" type="line"/>
      <point x="314.833" y="271.333" type="line"/>
      <point x="210.667" y="12.667" type="line"/>
      <point x="218.5" y="8.5" type="line"/>
      <point x="54.167" y="377.667" type="line"/>
      <point x="33.833" y="377.667" type="line"/>
      <point x="212.833" y="-23.167" type="line"/>
      <point x="324.5" y="251.5" type="line"/>
      <point x="446.333" y="-23.167" type="line"/>
      <point x="625.333" y="377.667" type="line"/>
      <point x="604.833" y="377.667" type="line"/>
      <point x="443.5" y="11.167" type="line"/>
      <point x="450.333" y="11.333" type="line"/>
    </contour>
  </outline>
</glyph>
<glyph name="x" format="2">
  <advance width="369.16667"/>
  <unicode hex="0078"/>
  <anchor x="184.333" y="0" name="bottom"/>
  <anchor x="184.333" y="377.667" name="top"/>
  <outline>
    <contour>
      <point x="184" y="198.667" type="line"/>
      <point x="195.667" y="183.667" type="line"/>
      <point x="332.333" y="376.833" type="line"/>
      <point x="310" y="376.833" type="line"/>
    </contour>
    <contour>
      <point x="335.333" y="0" type="line"/>
      <point x="58.667" y="377.667" type="line"/>
      <point x="33.833" y="377.667" type="line"/>
      <point x="312.667" y="0" type="line"/>
    </contour>
    <contour>
      <point x="188" y="176.333" type="line"/>
      <point x="173.667" y="189" type="line"/>
      <point x="38" y="0" type="line"/>
      <point x="61.333" y="0" type="line"/>
    </contour>
  </outline>
</glyph>
<glyph name="y" format="2">
  <advance width="431"/>
  <unicode hex="0079"/>
  <anchor x="328" y="-0.5" name="bottom"/>
  <anchor x="215.833" y="377.667" name="top"/>
  <outline>
    <contour>
      <point x="130" y="-181.333" type="line"/>
      <point x="154" y="-181.333" type="line"/>
      <point x="396.833" y="377.667" type="line"/>
      <point x="375" y="377.667" type="line"/>
    </contour>
    <contour>
      <point x="209.667" y="-4.833" type="line"/>
      <point x="225.833" y="6.833" type="line"/>
      <point x="55.167" y="377.667" type="line"/>
      <point x="33.833" y="377.667" type="line"/>
    </contour>
  </outline>
</glyph>
<glyph name="z" format="2">
  <advance width="368"/>
  <unicode hex="007A"/>
  <anchor x="173" y="0" name="bottom"/>
  <anchor x="192.167" y="377.667" name="top"/>
  <outline>
    <contour>
      <point x="86.5" y="360.333" type="curve" smooth="yes"/>
      <point x="307.167" y="360.333" type="line"/>
      <point x="300.5" y="365.833" type="line"/>
      <point x="41" y="0" type="line"/>
      <point x="327.333" y="0" type="line"/>
      <point x="327.333" y="17.5" type="line"/>
      <point x="69" y="17.5" type="line"/>
      <point x="74" y="13.333" type="line"/>
      <point x="332.167" y="377.667" type="line"/>
      <point x="85.833" y="377.667" type="line" smooth="yes"/>
      <point x="63.667" y="377.667"/>
      <point x="52.667" y="388.333"/>
      <point x="52.667" y="401" type="curve" smooth="yes"/>
      <point x="52.667" y="413" type="line"/>
      <point x="35.667" y="413" type="line"/>
      <point x="35.667" y="406.5" type="line" smooth="yes"/>
      <point x="35.667" y="367.667"/>
      <point x="55.667" y="360.333"/>
    </contour>
  </outline>
</glyph>
<glyph name="braceleft" format="2">
  <advance width="277.66667"/>
  <unicode hex="007B"/>
  <outline>
    <contour>
      <point x="181.167" y="727.833" type="curve" smooth="yes"/>
      <point x="237.333" y="727.833" type="line"/>
      <point x="237.333" y="746.667" type="line"/>
      <point x="198.333" y="746.667" type="line" smooth="yes"/>
      <point x="153.833" y="746.667"/>
      <point x="109.333" y="749.833"/>
      <point x="109.333" y="628.5" type="curve" smooth="yes"/>
      <point x="109.333" y="447.667" type="line" smooth="yes"/>
      <point x="109.333" y="393.333"/>
      <point x="94.667" y="316.333"/>
      <point x="30.167" y="313.333" type="curve"/>
      <point x="30.167" y="285.333" type="line"/>
      <point x="30.167" y="285.333" type="line"/>
      <point x="94.667" y="282.333"/>
      <point x="109.333" y="205.333"/>
      <point x="109.333" y="151.167" type="curve" smooth="yes"/>
      <point x="109.333" y="4.333" type="line" smooth="yes"/>
      <point x="109.333" y="-152.5"/>
      <point x="144.5" y="-148.167"/>
      <point x="198.333" y="-148.167" type="curve" smooth="yes"/>
      <point x="237.333" y="-148.167" type="line"/>
      <point x="237.333" y="-129.5" type="line"/>
      <point x="181.167" y="-129.5" type="line" smooth="yes"/>
      <point x="140.167" y="-129.5"/>
      <point x="129.167" y="-98.5"/>
      <point x="129.167" y="-18" type="curve" smooth="yes"/>
      <point x="129.167" y="130.667" type="line" smooth="yes"/>
      <point x="129.167" y="250.833"/>
      <point x="97.5" y="279.333"/>
      <point x="63.167" y="299.333" type="curve"/>
      <point x="97.667" y="318.167"/>
      <point x="129.167" y="345.833"/>
      <point x="129.167" y="468.667" type="curve" smooth="yes"/>
      <point x="129.167" y="616.5" type="line" smooth="yes"/>
      <point x="129.167" y="696.833"/>
      <point x="140.167" y="727.833"/>
    </contour>
  </outline>
</glyph>
<glyph name="bar" format="2">
  <advance width="223"/>
  <unicode hex="007C"/>
  <outline>
    <contour>
      <point x="98.5" y="700.667" type="line"/>
      <point x="98.5" y="-232.167" type="line"/>
      <point x="117.5" y="-232.167" type="line"/>
      <point x="117.5" y="700.667" type="line"/>
    </contour>
  </outline>
</glyph>
<glyph name="braceright" format="2">
  <advance width="324"/>
  <unicode hex="007D"/>
  <outline>
    <contour>
      <point x="142.5" y="-129.5" type="curve" smooth="yes"/>
      <point x="86.333" y="-129.5" type="line"/>
      <point x="86.333" y="-148.167" type="line"/>
      <point x="125.167" y="-148.167" type="line" smooth="yes"/>
      <point x="169.667" y="-148.167"/>
      <point x="214.333" y="-153.333"/>
      <point x="214.333" y="-30.167" type="curve" smooth="yes"/>
      <point x="214.333" y="116.5" type="line" smooth="yes"/>
      <point x="214.333" y="162.167"/>
      <point x="210.667" y="281.167"/>
      <point x="293.333" y="285" type="curve"/>
      <point x="293.333" y="313.167" type="line"/>
      <point x="293.333" y="313.167" type="line"/>
      <point x="210.667" y="317"/>
      <point x="214.333" y="435.167"/>
      <point x="214.333" y="481.667" type="curve" smooth="yes"/>
      <point x="214.333" y="628.5" type="line" smooth="yes"/>
      <point x="214.333" y="750.833"/>
      <point x="170.5" y="746.667"/>
      <point x="125.167" y="746.667" type="curve" smooth="yes"/>
      <point x="86.333" y="746.667" type="line"/>
      <point x="86.333" y="727.833" type="line"/>
      <point x="142.5" y="727.833" type="line" smooth="yes"/>
      <point x="183.5" y="727.833"/>
      <point x="194.5" y="697"/>
      <point x="194.5" y="616.5" type="curve" smooth="yes"/>
      <point x="194.5" y="467.833" type="line" smooth="yes"/>
      <point x="194.5" y="345.833"/>
      <point x="226.167" y="318.167"/>
      <point x="260.5" y="299.167" type="curve"/>
      <point x="235.5" y="285"/>
      <point x="194.5" y="254.5"/>
      <point x="194.5" y="165.167" type="curve" smooth="yes"/>
      <point x="194.5" y="-18" type="line" smooth="yes"/>
      <point x="194.5" y="-98.5"/>
      <point x="183.5" y="-129.5"/>
    </contour>
  </outline>
</glyph>
<glyph name="asciitilde" format="2">
  <advance width="387"/>
  <unicode hex="007E"/>
  <outline>
    <contour>
      <point x="264.5" y="457.333" type="curve"/>
      <point x="304" y="457.333"/>
      <point x="336" y="489.5"/>
      <point x="338.167" y="567.833" type="curve"/>
      <point x="322" y="569.667" type="line"/>
      <point x="318.333" y="494.333"/>
      <point x="292.333" y="475.167"/>
      <point x="265.167" y="475.167" type="curve"/>
      <point x="236.667" y="475.167"/>
      <point x="218.667" y="495"/>
      <point x="201.333" y="516" type="curve"/>
      <point x="182" y="539"/>
      <point x="162.333" y="563.167"/>
      <point x="124.333" y="563.167" type="curve"/>
      <point x="88.667" y="563.167"/>
      <point x="51.167" y="530.5"/>
      <point x="48.833" y="452.667" type="curve"/>
      <point x="65" y="450.833" type="line"/>
      <point x="68.667" y="526"/>
      <point x="102.333" y="545"/>
      <point x="124.833" y="545" type="curve"/>
      <point x="152.5" y="545"/>
      <point x="169.5" y="524.333"/>
      <point x="187.5" y="503.667" type="curve"/>
      <point x="207" y="480.667"/>
      <point x="227.5" y="457.333"/>
    </contour>
  </outline>
</glyph>
<glyph name="exclamdown" format="2">
  <advance width="200"/>
  <unicode hex="00A1"/>
  <outline>
    <contour>
      <point x="90.5" y="-210.16700000000003" type="line"/>
      <point x="90.5" y="373.0" type="line"/>
      <point x="109.333" y="373.0" type="line"/>
      <point x="109.333" y="-210.16700000000003" type="line"/>
    </contour>
    <contour>
      <point x="101.0" y="507.66700000000003" type="curve" smooth="yes"/>
      <point x="113.667" y="507.66700000000003"/>
      <point x="124.667" y="496.83299999999997"/>
      <point x="124.667" y="482.5" type="curve" smooth="yes"/>
      <point x="124.667" y="469.33299999999997"/>
      <point x="113.667" y="458.33299999999997"/>
      <point x="101.0" y="458.33299999999997" type="curve" smooth="yes"/>
      <point x="87.5" y="458.33299999999997"/>
      <point x="76.333" y="469.33299999999997"/>
      <point x="76.333" y="482.5" type="curve" smooth="yes"/>
      <point x="76.333" y="496.83299999999997"/>
      <point x="87.5" y="507.66700000000003"/>
    </contour>
  </outline>
</glyph>
<glyph name="cent" format="2">
  <advance width="420"/>
  <unicode hex="00A2"/>
  <outline>
    <contour>
      <point x="234.167" y="441" type="line"/>
      <point x="234.167" y="-68" type="line"/>
      <point x="251.333" y="-68" type="line"/>
      <point x="251.333" y="441" type="line"/>
    </contour>
    <component base="c"/>
  </outline>
</glyph>
<glyph name="sterling" format="2">
  <advance width="573.83333"/>
  <unicode hex="00A3"/>
  <outline>
    <contour>
      <point x="276.833" y="329.167" type="line"/>
      <point x="62.5" y="329.167" type="line"/>
      <point x="62.5" y="309.5" type="line"/>
      <point x="276.833" y="309.5" type="line"/>
    </contour>
    <contour>
      <point x="127.5" y="502.667" type="curve" smooth="yes"/>
      <point x="127.5" y="166.167" type="line" smooth="yes"/>
      <point x="127.5" y="53.167"/>
      <point x="123" y="19.5"/>
      <point x="75.5" y="19.5" type="curve" smooth="yes"/>
      <point x="31.333" y="19.5" type="line"/>
      <point x="31.333" y="0" type="line"/>
      <point x="376.833" y="0" type="line" smooth="yes"/>
      <point x="497.5" y="0"/>
      <point x="495.833" y="43.5"/>
      <point x="495.833" y="88" type="curve" smooth="yes"/>
      <point x="495.833" y="127" type="line"/>
      <point x="477" y="127" type="line"/>
      <point x="477" y="71" type="line" smooth="yes"/>
      <point x="477" y="30.667"/>
      <point x="445.667" y="19.5"/>
      <point x="368" y="19.5" type="curve" smooth="yes"/>
      <point x="117.833" y="19.5" type="line"/>
      <point x="124.333" y="19.5" type="line"/>
      <point x="143.5" y="37.667"/>
      <point x="147.167" y="79.167"/>
      <point x="147.167" y="113.833" type="curve" smooth="yes"/>
      <point x="147.167" y="151" type="line"/>
      <point x="147.167" y="504" type="line" smooth="yes"/>
      <point x="147.167" y="565.167"/>
      <point x="179.167" y="619"/>
      <point x="290" y="619" type="curve" smooth="yes"/>
      <point x="369.667" y="619"/>
      <point x="401.5" y="599.5"/>
      <point x="434.167" y="539.667" type="curve"/>
      <point x="448.333" y="548.667" type="line"/>
      <point x="421.833" y="602.333"/>
      <point x="379.333" y="638.5"/>
      <point x="290" y="638.5" type="curve" smooth="yes"/>
      <point x="192.833" y="638.5"/>
      <point x="127.5" y="595.833"/>
    </contour>
  </outline>
</glyph>
<glyph name="currency" format="2">
  <advance width="500.33333"/>
  <unicode hex="00A4"/>
  <outline>
    <contour>
      <point x="349" y="446.667" type="curve"/>
      <point x="386.333" y="484" type="line"/>
      <point x="374.167" y="496.167" type="line"/>
      <point x="336.833" y="458.833" type="line"/>
      <point x="336.833" y="458.833" type="line"/>
      <point x="313.667" y="481.333"/>
      <point x="282" y="495.167"/>
      <point x="247.167" y="495.167" type="curve" smooth="yes"/>
      <point x="212.5" y="495.167"/>
      <point x="180.833" y="481.333"/>
      <point x="157.667" y="459.833" type="curve"/>
      <point x="120.333" y="497.167" type="line"/>
      <point x="108.167" y="485" type="line"/>
      <point x="121" y="472.167"/>
      <point x="132.667" y="460.333"/>
      <point x="145.5" y="447.667" type="curve"/>
      <point x="125.833" y="423.667"/>
      <point x="114" y="393.833"/>
      <point x="114" y="361" type="curve" smooth="yes"/>
      <point x="114" y="361" type="line" smooth="yes"/>
      <point x="114" y="326.167"/>
      <point x="126.833" y="294.333"/>
      <point x="148.333" y="270.333" type="curve"/>
      <point x="108.167" y="230.167" type="line"/>
      <point x="120.333" y="218" type="line"/>
      <point x="160.667" y="258.333" type="line"/>
      <point x="160.667" y="258.333" type="line"/>
      <point x="183.667" y="238.667"/>
      <point x="214.333" y="226.833"/>
      <point x="247.167" y="226.833" type="curve" smooth="yes"/>
      <point x="280" y="226.833"/>
      <point x="310.833" y="238.667"/>
      <point x="333.833" y="259.333" type="curve"/>
      <point x="347.667" y="245.5"/>
      <point x="360.5" y="232.667"/>
      <point x="374.167" y="219" type="curve"/>
      <point x="386.333" y="231.167" type="line"/>
      <point x="346.167" y="271.333" type="line"/>
      <point x="366.833" y="295.333"/>
      <point x="380.667" y="326.167"/>
      <point x="380.667" y="361" type="curve" smooth="yes"/>
      <point x="380.667" y="393.833"/>
      <point x="368.833" y="423.667"/>
    </contour>
    <contour>
      <point x="131" y="361" type="curve" smooth="yes"/>
      <point x="131" y="361" type="line" smooth="yes"/>
      <point x="131" y="426"/>
      <point x="183.333" y="478.167"/>
      <point x="247.333" y="478.167" type="curve" smooth="yes"/>
      <point x="311.333" y="478.167"/>
      <point x="363.5" y="426"/>
      <point x="363.5" y="361" type="curve" smooth="yes"/>
      <point x="363.5" y="296"/>
      <point x="311.333" y="243.833"/>
      <point x="247.333" y="243.833" type="curve" smooth="yes"/>
      <point x="183.333" y="243.833"/>
      <point x="131" y="296"/>
    </contour>
  </outline>
</glyph>
<glyph name="yen" format="2">
  <advance width="642.66667"/>
  <unicode hex="00A5"/>
  <anchor x="321.667" y="0" name="bottom"/>
  <anchor x="322.5" y="701.667" name="top"/>
  <anchor x="29" y="701.667" name="topleft"/>
  <outline>
    <contour>
      <point x="151" y="278.667" type="line"/>
      <point x="151" y="260.333" type="line"/>
      <point x="484.667" y="260.333" type="line"/>
      <point x="484.667" y="278.667" type="line"/>
    </contour>
    <contour>
      <point x="151.167" y="116.833" type="line"/>
      <point x="151.167" y="98.333" type="line"/>
      <point x="483.667" y="98.333" type="line"/>
      <point x="483.667" y="116.833" type="line"/>
    </contour>
    <contour>
      <point x="311.833" y="292.833" type="line"/>
      <point x="311.833" y="0" type="line"/>
      <point x="331.667" y="0" type="line"/>
      <point x="331.667" y="292.833" type="line"/>
      <point x="594.167" y="701.667" type="line"/>
      <point x="571" y="701.667" type="line"/>
      <point x="318" y="307.667" type="line"/>
      <point x="326.667" y="308.833" type="line"/>
      <point x="72.667" y="701.667" type="line"/>
      <point x="48.5" y="701.667" type="line"/>
    </contour>
  </outline>
</glyph>
<glyph name="brokenbar" format="2">
  <advance width="215.16667"/>
  <unicode hex="00A6"/>
  <outline>
    <contour>
      <point x="99.833" y="700.667" type="line"/>
      <point x="99.833" y="350.333" type="line"/>
      <point x="118.667" y="350.333" type="line"/>
      <point x="118.667" y="700.667" type="line"/>
    </contour>
    <contour>
      <point x="99.833" y="117.167" type="line"/>
      <point x="99.833" y="-233.167" type="line"/>
      <point x="118.667" y="-233.167" type="line"/>
      <point x="118.667" y="117.167" type="line"/>
    </contour>
  </outline>
</glyph>
<glyph name="section" format="2">
  <advance width="559.83333"/>
  <unicode hex="00A7"/>
  <outline>
    <contour>
      <point x="348.667" y="133.333" type="line"/>
      <point x="442.833" y="150.5"/>
      <point x="509.833" y="211"/>
      <point x="509.833" y="292.667" type="curve" smooth="yes"/>
      <point x="509.833" y="399.167"/>
      <point x="410.833" y="431.167"/>
      <point x="314.5" y="455.167" type="curve" smooth="yes"/>
      <point x="208.5" y="481.667"/>
      <point x="132.5" y="505.5"/>
      <point x="132.5" y="588.5" type="curve" smooth="yes"/>
      <point x="132.5" y="648.167"/>
      <point x="198.5" y="707.5"/>
      <point x="301.667" y="707.5" type="curve" smooth="yes"/>
      <point x="363.5" y="707.333"/>
      <point x="428.167" y="687.833"/>
      <point x="465" y="670.5" type="curve"/>
      <point x="473.5" y="685.667" type="line"/>
      <point x="425.333" y="708.833"/>
      <point x="349.833" y="724.5"/>
      <point x="300" y="724.5" type="curve" smooth="yes"/>
      <point x="193.333" y="724.5"/>
      <point x="112.5" y="660.667"/>
      <point x="112.5" y="590.5" type="curve" smooth="yes"/>
      <point x="112.5" y="504.333"/>
      <point x="184.5" y="469.667"/>
      <point x="261.333" y="448" type="curve"/>
      <point x="264.667" y="453.167" type="line"/>
      <point x="164.5" y="452.333"/>
      <point x="80.167" y="387.254"/>
      <point x="80.167" y="298.333" type="curve" smooth="yes"/>
      <point x="80.167" y="191.333"/>
      <point x="180.333" y="165.333"/>
      <point x="275.833" y="137.667" type="curve"/>
      <point x="368.167" y="115.167"/>
      <point x="456.5" y="91.333"/>
      <point x="456.5" y="5.333" type="curve" smooth="yes"/>
      <point x="456.5" y="-80.667"/>
      <point x="358.333" y="-131.5"/>
      <point x="261.667" y="-131.5" type="curve" smooth="yes"/>
      <point x="181.333" y="-131.5"/>
      <point x="101" y="-91.5"/>
      <point x="59.833" y="-61.667" type="curve"/>
      <point x="50" y="-78.333" type="line"/>
      <point x="75.167" y="-94.5"/>
      <point x="151.667" y="-149.667"/>
      <point x="264.833" y="-149.667" type="curve" smooth="yes"/>
      <point x="384.5" y="-149.667"/>
      <point x="476.5" y="-82.167"/>
      <point x="476.5" y="3.333" type="curve" smooth="yes"/>
      <point x="476.5" y="84.333"/>
      <point x="415.667" y="119.333"/>
      <point x="345.333" y="139.5" type="curve"/>
    </contour>
    <contour>
      <point x="489.333" y="291.5" type="curve" smooth="yes"/>
      <point x="489.167" y="202.393"/>
      <point x="394.333" y="152"/>
      <point x="323.5" y="146.167" type="curve"/>
      <point x="188.667" y="182"/>
      <point x="100.667" y="203.333"/>
      <point x="100.667" y="299.833" type="curve" smooth="yes"/>
      <point x="100.833" y="380.5"/>
      <point x="175" y="440.833"/>
      <point x="294" y="440.667" type="curve"/>
      <point x="398" y="412.833"/>
      <point x="489.333" y="381.833"/>
    </contour>
  </outline>
</glyph>
<glyph name="dieresis" format="2">
  <advance width="373"/>
  <unicode hex="00A8"/>
  <outline>
    <contour>
      <point x="80.667" y="501.833" type="curve" smooth="yes"/>
      <point x="80.667" y="501.833" type="line" smooth="yes"/>
      <point x="80.667" y="489.5"/>
      <point x="90.833" y="479.5"/>
      <point x="102.833" y="479.5" type="curve" smooth="yes"/>
      <point x="114.833" y="479.5"/>
      <point x="125.167" y="489.5"/>
      <point x="125.167" y="501.833" type="curve" smooth="yes"/>
      <point x="125.167" y="514.167"/>
      <point x="114.833" y="524.167"/>
      <point x="102.833" y="524.167" type="curve" smooth="yes"/>
      <point x="90.833" y="524.167"/>
      <point x="80.667" y="514.167"/>
    </contour>
    <contour>
      <point x="247.167" y="501.833" type="curve" smooth="yes"/>
      <point x="247.167" y="501.833" type="line" smooth="yes"/>
      <point x="247.167" y="489.5"/>
      <point x="257.333" y="479.5"/>
      <point x="269.5" y="479.5" type="curve" smooth="yes"/>
      <point x="281.333" y="479.5"/>
      <point x="291.667" y="489.5"/>
      <point x="291.667" y="501.833" type="curve" smooth="yes"/>
      <point x="291.667" y="514.167"/>
      <point x="281.333" y="524.167"/>
      <point x="269.5" y="524.167" type="curve" smooth="yes"/>
      <point x="257.333" y="524.167"/>
      <point x="247.167" y="514.167"/>
    </contour>
  </outline>
</glyph>
<glyph name="copyright" format="2">
  <advance width="794"/>
  <unicode hex="00A9"/>
  <outline>
    <contour>
      <point x="493.5" y="233.667" type="curve"/>
      <point x="484.833" y="248.333" type="line"/>
      <point x="461.833" y="234.667"/>
      <point x="436.5" y="226.333"/>
      <point x="407.5" y="226.333" type="curve" smooth="yes"/>
      <point x="325.167" y="226.333"/>
      <point x="264.667" y="290.167"/>
      <point x="264.667" y="370.5" type="curve" smooth="yes"/>
      <point x="264.667" y="456.5"/>
      <point x="334.667" y="518.5"/>
      <point x="408.5" y="518.5" type="curve" smooth="yes"/>
      <point x="437.333" y="518.5"/>
      <point x="462.333" y="512.5"/>
      <point x="485.167" y="498.167" type="curve"/>
      <point x="493.333" y="513.333" type="line"/>
      <point x="469" y="528.167"/>
      <point x="438.5" y="536.333"/>
      <point x="408" y="536.333" type="curve" smooth="yes"/>
      <point x="321" y="536.333"/>
      <point x="245" y="463.667"/>
      <point x="245" y="371.333" type="curve" smooth="yes"/>
      <point x="245" y="283.333"/>
      <point x="310" y="208.5"/>
      <point x="406.5" y="208.333" type="curve" smooth="yes"/>
      <point x="440.5" y="208.333"/>
      <point x="470" y="218.667"/>
    </contour>
    <contour>
      <point x="397" y="109.667" type="curve" smooth="yes"/>
      <point x="556.5" y="109.667"/>
      <point x="658" y="220.167"/>
      <point x="658" y="369.333" type="curve" smooth="yes"/>
      <point x="658" y="519.667"/>
      <point x="544" y="630"/>
      <point x="397" y="630" type="curve" smooth="yes"/>
      <point x="250" y="630"/>
      <point x="136" y="519.667"/>
      <point x="136" y="369.333" type="curve" smooth="yes"/>
      <point x="136" y="220.167"/>
      <point x="250" y="109.667"/>
    </contour>
    <contour>
      <point x="396" y="128" type="curve" smooth="yes"/>
      <point x="242" y="128"/>
      <point x="154.667" y="229.667"/>
      <point x="154.667" y="368.333" type="curve" smooth="yes"/>
      <point x="154.667" y="509.167"/>
      <point x="264" y="611.667"/>
      <point x="396" y="611.667" type="curve" smooth="yes"/>
      <point x="529.833" y="611.667"/>
      <point x="639.167" y="509.167"/>
      <point x="639.167" y="368.333" type="curve" smooth="yes"/>
      <point x="639.167" y="231.5"/>
      <point x="529.833" y="128"/>
    </contour>
  </outline>
</glyph>
<glyph name="ordfeminine" format="2">
  <advance width="415.83333"/>
  <unicode hex="00AA"/>
  <outline>
    <contour>
      <point x="189.167" y="413.667" type="curve"/>
      <point x="251" y="413.667"/>
      <point x="303.833" y="451.833"/>
      <point x="324.167" y="503.5" type="curve"/>
      <point x="320" y="513.833" type="line"/>
      <point x="320" y="417.833" type="line"/>
      <point x="337.167" y="417.833" type="line"/>
      <point x="337.167" y="699.167" type="line"/>
      <point x="323.167" y="699.167" type="line"/>
      <point x="319.833" y="609.833" type="line"/>
      <point x="321.833" y="619.167" type="line"/>
      <point x="300.167" y="671.667"/>
      <point x="248.5" y="705.333"/>
      <point x="189" y="705.333" type="curve"/>
      <point x="109.833" y="705.333"/>
      <point x="44.167" y="652"/>
      <point x="44.167" y="559" type="curve"/>
      <point x="44.167" y="476.833"/>
      <point x="108.667" y="413.667"/>
    </contour>
    <contour>
      <point x="190.667" y="429.833" type="curve"/>
      <point x="119.667" y="429.833"/>
      <point x="62.167" y="487.5"/>
      <point x="62.167" y="559.167" type="curve"/>
      <point x="62.167" y="638.333"/>
      <point x="119.667" y="689.167"/>
      <point x="190.667" y="689.167" type="curve"/>
      <point x="254.833" y="689.167"/>
      <point x="308.167" y="641.667"/>
      <point x="320" y="582.333" type="curve"/>
      <point x="320" y="552.833" type="line"/>
      <point x="319.5" y="482"/>
      <point x="261.5" y="429.833"/>
    </contour>
  </outline>
</glyph>
<glyph name="guillemetleft" format="2">
  <advance width="601"/>
  <unicode hex="00AB"/>
  <outline>
    <contour>
      <point x="112.5" y="239.167" type="curve"/>
      <point x="287.167" y="75.333" type="line"/>
      <point x="287.167" y="96.167" type="line"/>
      <point x="242.167" y="143"/>
      <point x="192.167" y="192.333"/>
      <point x="147.333" y="239.167" type="curve"/>
      <point x="192.167" y="285.167"/>
      <point x="242.167" y="334.5"/>
      <point x="287.167" y="380.333" type="curve"/>
      <point x="287.167" y="402.167" type="line"/>
      <point x="232.667" y="350.5"/>
      <point x="167" y="290.833"/>
    </contour>
    <contour>
      <point x="287" y="239.167" type="curve"/>
      <point x="461.667" y="75.333" type="line"/>
      <point x="461.667" y="96.167" type="line"/>
      <point x="416.667" y="143"/>
      <point x="366.667" y="192.333"/>
      <point x="321.833" y="239.167" type="curve"/>
      <point x="366.667" y="285.167"/>
      <point x="416.667" y="334.5"/>
      <point x="461.667" y="380.333" type="curve"/>
      <point x="461.667" y="402.167" type="line"/>
      <point x="407.167" y="350.5"/>
      <point x="341.5" y="290.833"/>
    </contour>
  </outline>
</glyph>
<glyph name="logicalnot" format="2">
  <advance width="555"/>
  <unicode hex="00AC"/>
  <outline>
    <contour>
      <point x="97.833" y="244.833" type="line"/>
      <point x="97.833" y="225.333" type="line"/>
      <point x="438.333" y="225.333" type="line"/>
      <point x="438.333" y="145.5" type="line"/>
      <point x="458.167" y="145.5" type="line"/>
      <point x="458.167" y="244.833" type="line"/>
    </contour>
  </outline>
</glyph>
<glyph name="registered" format="2">
  <advance width="357.66667"/>
  <unicode hex="00AE"/>
  <outline>
    <contour>
      <point x="178.833" y="420.167" type="curve"/>
      <point x="257.667" y="420.167"/>
      <point x="318.333" y="478.5"/>
      <point x="318.333" y="558.5" type="curve"/>
      <point x="318.333" y="639.5"/>
      <point x="257.667" y="697.667"/>
      <point x="178.833" y="697.667" type="curve"/>
      <point x="100" y="697.667"/>
      <point x="39.333" y="639.5"/>
      <point x="39.333" y="558.5" type="curve"/>
      <point x="39.333" y="478.5"/>
      <point x="100" y="420.167"/>
    </contour>
    <contour>
      <point x="177.833" y="436" type="curve"/>
      <point x="111.333" y="436"/>
      <point x="56.333" y="489"/>
      <point x="56.333" y="558.5" type="curve"/>
      <point x="56.333" y="629"/>
      <point x="111.333" y="682"/>
      <point x="177.833" y="682" type="curve"/>
      <point x="246.333" y="682"/>
      <point x="301.333" y="629"/>
      <point x="301.333" y="558.5" type="curve"/>
      <point x="301.333" y="489"/>
      <point x="246.333" y="436"/>
    </contour>
    <contour>
      <point x="128" y="645.167" type="line"/>
      <point x="128" y="480.5" type="line"/>
      <point x="144.667" y="480.5" type="line"/>
      <point x="144.667" y="548" type="line"/>
      <point x="172.167" y="548" type="line"/>
      <point x="210" y="548"/>
      <point x="227.5" y="566.333"/>
      <point x="227.5" y="597.667" type="curve"/>
      <point x="227.5" y="633.333"/>
      <point x="199.5" y="645.167"/>
      <point x="175.667" y="645.167" type="curve"/>
    </contour>
    <contour>
      <point x="171.167" y="563" type="curve"/>
      <point x="146.5" y="563" type="line"/>
      <point x="146.5" y="629.333" type="line"/>
      <point x="175" y="629.333" type="line"/>
      <point x="189.333" y="629.333"/>
      <point x="210.5" y="622"/>
      <point x="210.5" y="597.5" type="curve"/>
      <point x="210.5" y="577.667"/>
      <point x="198.833" y="563"/>
    </contour>
    <contour>
      <point x="195" y="552.667" type="line"/>
      <point x="177.333" y="552.5" type="line"/>
      <point x="216.833" y="480.5" type="line"/>
      <point x="235" y="480.5" type="line"/>
    </contour>
  </outline>
</glyph>
<glyph name="macron" format="2">
  <advance width="397"/>
  <unicode hex="00AF"/>
  <outline>
    <contour>
      <point x="83.5" y="508.167" type="line"/>
      <point x="83.5" y="490.5" type="line"/>
      <point x="314.5" y="490.5" type="line"/>
      <point x="314.5" y="508.167" type="line"/>
    </contour>
  </outline>
</glyph>
<glyph name="degree" format="2">
  <advance width="282"/>
  <unicode hex="00B0"/>
  <outline>
    <contour>
      <point x="59.333" y="559.5" type="curve" smooth="yes"/>
      <point x="59.333" y="559.5" type="line" smooth="yes"/>
      <point x="59.333" y="515.667"/>
      <point x="93.167" y="482.667"/>
      <point x="138.167" y="482.667" type="curve" smooth="yes"/>
      <point x="182" y="482.667"/>
      <point x="215.833" y="515.667"/>
      <point x="215.833" y="559.5" type="curve" smooth="yes"/>
      <point x="215.833" y="604.5"/>
      <point x="182" y="638.333"/>
      <point x="138.167" y="638.333" type="curve" smooth="yes"/>
      <point x="93.167" y="638.333"/>
      <point x="59.333" y="604.5"/>
    </contour>
    <contour>
      <point x="138.167" y="499.333" type="curve"/>
      <point x="138.167" y="499.333" type="line"/>
      <point x="103.667" y="499.333"/>
      <point x="76.167" y="526"/>
      <point x="76.167" y="560.5" type="curve" smooth="yes"/>
      <point x="76.167" y="594.833"/>
      <point x="103.667" y="621.5"/>
      <point x="138.167" y="621.5" type="curve" smooth="yes"/>
      <point x="171.667" y="621.5"/>
      <point x="199.333" y="594.833"/>
      <point x="199.333" y="560.5" type="curve" smooth="yes"/>
      <point x="199.333" y="526"/>
      <point x="171.667" y="499.333"/>
    </contour>
  </outline>
</glyph>
<glyph name="plusminus" format="2">
  <advance width="524.5"/>
  <unicode hex="00B1"/>
  <outline>
    <contour>
      <point x="256.833" y="571.5" type="line"/>
      <point x="256.833" y="401.667" type="line"/>
      <point x="86.167" y="401.667" type="line"/>
      <point x="86.167" y="382.833" type="line"/>
      <point x="256.833" y="382.833" type="line"/>
      <point x="256.833" y="211.167" type="line"/>
      <point x="275.667" y="211.167" type="line"/>
      <point x="275.667" y="382.833" type="line"/>
      <point x="446.333" y="382.833" type="line"/>
      <point x="446.333" y="401.667" type="line"/>
      <point x="275.667" y="401.667" type="line"/>
      <point x="275.667" y="571.5" type="line"/>
    </contour>
    <contour>
      <point x="86.167" y="151.5" type="line"/>
      <point x="86.167" y="132.667" type="line"/>
      <point x="446.333" y="132.667" type="line"/>
      <point x="446.333" y="151.5" type="line"/>
    </contour>
  </outline>
</glyph>
<glyph name="twosuperior" format="2">
  <advance width="397"/>
  <unicode hex="00B2"/>
  <outline>
    <contour>
      <point x="105.167" y="655.5" type="curve"/>
      <point x="114.667" y="644.833" type="line"/>
      <point x="129.667" y="665.833"/>
      <point x="149.5" y="682"/>
      <point x="186" y="682" type="curve" smooth="yes"/>
      <point x="228.833" y="682"/>
      <point x="264.833" y="660.167"/>
      <point x="264.833" y="599.833" type="curve" smooth="yes"/>
      <point x="264.833" y="532.667"/>
      <point x="181" y="452.333"/>
      <point x="98.333" y="374.667" type="curve"/>
      <point x="98.333" y="370.167" type="line"/>
      <point x="299.667" y="370.167" type="line"/>
      <point x="299.667" y="387.667" type="line"/>
      <point x="119.167" y="387.667" type="line"/>
      <point x="123.833" y="374" type="line"/>
      <point x="192.833" y="445.167"/>
      <point x="284.667" y="523.333"/>
      <point x="284.667" y="601.5" type="curve" smooth="yes"/>
      <point x="284.667" y="668.333"/>
      <point x="247.333" y="699.5"/>
      <point x="187.833" y="699.667" type="curve" smooth="yes"/>
      <point x="151.5" y="699.667"/>
      <point x="120.667" y="680.167"/>
    </contour>
  </outline>
</glyph>
<glyph name="threesuperior" format="2">
  <advance width="412.33333"/>
  <unicode hex="00B3"/>
  <outline>
    <contour>
      <point x="167.833" y="370.833" type="curve" smooth="yes"/>
      <point x="233.333" y="370.833"/>
      <point x="276.333" y="416.667"/>
      <point x="276.333" y="482.333" type="curve" smooth="yes"/>
      <point x="276.333" y="541.833"/>
      <point x="231.5" y="577"/>
      <point x="179.833" y="574.167" type="curve"/>
      <point x="160.167" y="574.167"/>
      <point x="138.167" y="567.833"/>
      <point x="125.833" y="559.333" type="curve"/>
      <point x="142.167" y="561" type="line"/>
      <point x="248.167" y="699.167" type="line"/>
      <point x="86.667" y="699.167" type="line"/>
      <point x="86.667" y="682.333" type="line"/>
      <point x="231.333" y="682.333" type="line"/>
      <point x="222.5" y="692.667" type="line"/>
      <point x="111.167" y="547.667" type="line"/>
      <point x="113.333" y="545.167" type="line"/>
      <point x="131.833" y="552"/>
      <point x="145" y="558.833"/>
      <point x="178" y="558.833" type="curve" smooth="yes"/>
      <point x="220.667" y="558.833"/>
      <point x="257.333" y="533.833"/>
      <point x="257.333" y="482.5" type="curve" smooth="yes"/>
      <point x="257.333" y="430.333"/>
      <point x="223" y="387.5"/>
      <point x="168" y="387.333" type="curve" smooth="yes"/>
      <point x="128.5" y="387"/>
      <point x="102.333" y="405.833"/>
      <point x="86.667" y="423.5" type="curve"/>
      <point x="78.167" y="411.333" type="line"/>
      <point x="96.333" y="391.333"/>
      <point x="125.833" y="370.833"/>
    </contour>
  </outline>
</glyph>
<glyph name="acute" format="2">
  <advance width="211"/>
  <unicode hex="00B4"/>
  <outline>
    <contour>
      <point x="161.333" y="612.5" type="line"/>
      <point x="139.167" y="612.5" type="line"/>
      <point x="49.667" y="479.5" type="line"/>
      <point x="68.667" y="479.5" type="line"/>
    </contour>
  </outline>
</glyph>
<glyph name="micro" format="2">
  <advance width="486.5"/>
  <unicode hex="00B5"/>
  <anchor x="243.333" y="0" name="bottom"/>
  <anchor x="437.833" y="10" name="ogonek"/>
  <anchor x="243.333" y="378.667" name="top"/>
  <anchor x="418.167" y="377.667" name="topright"/>
  <outline>
    <contour>
      <point x="211.167" y="-7.667" type="curve" smooth="yes"/>
      <point x="285.333" y="-7.667"/>
      <point x="358.833" y="44.333"/>
      <point x="376.333" y="107" type="curve"/>
      <point x="373" y="120" type="line"/>
      <point x="376.333" y="0" type="line"/>
      <point x="392.5" y="0" type="line"/>
      <point x="392.5" y="377.667" type="line"/>
      <point x="373" y="377.667" type="line"/>
      <point x="373" y="159.667" type="line" smooth="yes"/>
      <point x="373" y="73.333"/>
      <point x="295.667" y="10"/>
      <point x="214.667" y="10" type="curve"/>
      <point x="149.667" y="13"/>
      <point x="115.5" y="53.167"/>
      <point x="113.5" y="107.5" type="curve"/>
      <point x="113.5" y="377.667" type="line"/>
      <point x="94" y="377.667" type="line"/>
      <point x="94" y="108.167" type="line"/>
      <point x="94" y="-201" type="line"/>
      <point x="113.5" y="-201" type="line"/>
      <point x="113.5" y="73" type="line"/>
      <point x="99.833" y="68.167" type="line"/>
      <point x="114.333" y="21.667"/>
      <point x="154" y="-7.667"/>
    </contour>
  </outline>
</glyph>
<glyph name="paragraph" format="2">
  <advance width="494"/>
  <unicode hex="00B6"/>
  <outline>
    <contour>
      <point x="201.167" y="423.333" type="curve"/>
      <point x="201.167" y="0" type="line"/>
      <point x="220" y="0" type="line"/>
      <point x="220" y="732" type="line"/>
      <point x="364.333" y="732" type="line"/>
      <point x="364.333" y="0" type="line"/>
      <point x="383.167" y="0" type="line"/>
      <point x="383.167" y="750.667" type="line"/>
      <point x="201.167" y="750.667" type="line" smooth="yes"/>
      <point x="110.167" y="750.667"/>
      <point x="38" y="677.667"/>
      <point x="38" y="586.5" type="curve" smooth="yes"/>
      <point x="38" y="495.5"/>
      <point x="110.167" y="423.333"/>
    </contour>
  </outline>
</glyph>
<glyph name="cedilla" format="2">
  <advance width="449"/>
  <unicode hex="00B8"/>
  <outline>
    <contour>
      <point x="142.667" y="-181" type="curve"/>
      <point x="133.167" y="-195.833" type="line"/>
      <point x="152.333" y="-212.167"/>
      <point x="184.5" y="-223.5"/>
      <point x="221.5" y="-223.5" type="curve"/>
      <point x="283.333" y="-223.5"/>
      <point x="329.667" y="-198.167"/>
      <point x="329.667" y="-146" type="curve"/>
      <point x="329.667" y="-94.5"/>
      <point x="293.667" y="-64.5"/>
      <point x="228.167" y="-64.667" type="curve"/>
      <point x="198" y="-64.667"/>
      <point x="161" y="-74.167"/>
      <point x="146.167" y="-84" type="curve"/>
      <point x="160.667" y="-88.333" type="line"/>
      <point x="228.5" y="-3.833" type="line"/>
      <point x="213.333" y="4.833" type="line"/>
      <point x="140" y="-84" type="line"/>
      <point x="154.167" y="-97.333" type="line"/>
      <point x="169.333" y="-89.5"/>
      <point x="204.667" y="-82.5"/>
      <point x="226.667" y="-82.5" type="curve"/>
      <point x="283" y="-82.5"/>
      <point x="309.333" y="-110.167"/>
      <point x="309.333" y="-146.167" type="curve"/>
      <point x="309.333" y="-185.333"/>
      <point x="274.333" y="-207"/>
      <point x="219.833" y="-207" type="curve"/>
      <point x="184.333" y="-207"/>
      <point x="158.5" y="-196"/>
    </contour>
  </outline>
</glyph>
<glyph name="onesuperior" format="2">
  <advance width="251"/>
  <unicode hex="00B9"/>
  <outline>
    <contour>
      <point x="77.5" y="651.333" type="line"/>
      <point x="77.5" y="633.333" type="line"/>
      <point x="122.667" y="633.333" type="line"/>
      <point x="122.667" y="347.167" type="line"/>
      <point x="142.667" y="347.167" type="line"/>
      <point x="142.667" y="651.333" type="line"/>
    </contour>
  </outline>
</glyph>
<glyph name="ordmasculine" format="2">
  <advance width="382.5"/>
  <unicode hex="00BA"/>
  <outline>
    <contour>
      <point x="44.167" y="554.167" type="curve"/>
      <point x="44.167" y="470.667"/>
      <point x="109.167" y="408.833"/>
      <point x="190.833" y="408.833" type="curve"/>
      <point x="272.667" y="408.833"/>
      <point x="338.5" y="472.833"/>
      <point x="338.5" y="554.167" type="curve"/>
      <point x="338.5" y="635.667"/>
      <point x="272.667" y="701.5"/>
      <point x="190.833" y="701.5" type="curve"/>
      <point x="109.167" y="701.5"/>
      <point x="44.167" y="635.667"/>
    </contour>
    <contour>
      <point x="62.333" y="554.167" type="curve"/>
      <point x="62.333" y="621.667"/>
      <point x="116.833" y="685"/>
      <point x="190.833" y="685" type="curve"/>
      <point x="262" y="685"/>
      <point x="320.333" y="626.5"/>
      <point x="320.333" y="554.167" type="curve"/>
      <point x="320.333" y="482.833"/>
      <point x="262" y="425.333"/>
      <point x="190.833" y="425.333" type="curve"/>
      <point x="119.667" y="425.333"/>
      <point x="62.333" y="482.833"/>
    </contour>
  </outline>
</glyph>
<glyph name="onequarter" format="2">
  <advance width="725"/>
  <unicode hex="00BC"/>
  <outline>
    <contour>
      <point x="541.166" y="663.6693750000001" type="line"/>
      <point x="520.166" y="663.6693750000001" type="line"/>
      <point x="114.0" y="0.0" type="line"/>
      <point x="135.0" y="0.0" type="line"/>
    </contour>
    <component base="onesuperior" xOffset="1.167"/>
    <component base="foursuperior" xOffset="403.833" yOffset="-347.167"/>
  </outline>
</glyph>
<glyph name="AE" format="2">
  <advance width="923"/>
  <unicode hex="00C6"/>
  <anchor x="477" y="0" name="bottom"/>
  <anchor x="622.333" y="702.5" name="top"/>
  <outline>
    <contour>
      <point x="463" y="701.667" type="line"/>
      <point x="463" y="0" type="line"/>
      <point x="844.167" y="0" type="line"/>
      <point x="844.167" y="19.5" type="line"/>
      <point x="482.833" y="19.5" type="line"/>
      <point x="482.833" y="343.833" type="line"/>
      <point x="791" y="343.833" type="line"/>
      <point x="791" y="363.333" type="line"/>
      <point x="482.833" y="363.333" type="line"/>
      <point x="482.833" y="682" type="line"/>
      <point x="830.167" y="682" type="line"/>
      <point x="830.167" y="701.667" type="line"/>
    </contour>
    <contour>
      <point x="476.167" y="694" type="curve"/>
      <point x="463" y="701.667" type="line"/>
      <point x="24.167" y="0" type="line"/>
      <point x="45.833" y="0" type="line"/>
      <point x="467" y="668.333" type="line"/>
      <point x="470" y="676"/>
      <point x="473.167" y="685.667"/>
    </contour>
    <contour>
      <point x="165.833" y="224.333" type="line"/>
      <point x="163.833" y="206" type="line"/>
      <point x="471.5" y="206" type="line"/>
      <point x="471.5" y="224.333" type="line"/>
    </contour>
  </outline>
</glyph>
<glyph name="multiply" format="2">
  <advance width="501.16667"/>
  <unicode hex="00D7"/>
  <outline>
    <contour>
      <point x="263.167" y="149.833" type="curve"/>
      <point x="143.667" y="269.167" type="line"/>
      <point x="129.333" y="254.667" type="line"/>
      <point x="248.667" y="135.333" type="line"/>
      <point x="208.333" y="95"/>
      <point x="169" y="54.667"/>
      <point x="128.667" y="14.333" type="curve"/>
      <point x="133" y="9.833"/>
      <point x="138.333" y="4.5"/>
      <point x="142.833" y="0.167" type="curve"/>
      <point x="183.167" y="40.333"/>
      <point x="222.667" y="80.667"/>
      <point x="262.833" y="121" type="curve"/>
      <point x="303.333" y="80.667"/>
      <point x="343.667" y="40.333"/>
      <point x="384" y="0" type="curve"/>
      <point x="398.5" y="14.333" type="line"/>
      <point x="358" y="54.833"/>
      <point x="317.833" y="95.167"/>
      <point x="277.5" y="135.5" type="curve"/>
      <point x="317.667" y="175.833"/>
      <point x="358" y="215.333"/>
      <point x="398.333" y="255.5" type="curve"/>
      <point x="393.833" y="260"/>
      <point x="388.5" y="265.5"/>
      <point x="384.167" y="269.833" type="curve"/>
      <point x="343.667" y="229.5"/>
      <point x="303.5" y="190.167"/>
    </contour>
  </outline>
</glyph>
<glyph name="Oslash" format="2">
  <advance width="856.16667"/>
  <unicode hex="00D8"/>
  <anchor x="428" y="0" name="bottom"/>
  <anchor x="428" y="701.667" name="top"/>
  <outline>
    <contour>
      <point x="724.167" y="706.5" type="line"/>
      <point x="712.5" y="717.833" type="line"/>
      <point x="120" y="10.333" type="line"/>
      <point x="131.667" y="-1" type="line"/>
    </contour>
    <component base="O"/>
  </outline>
</glyph>
<glyph name="Thorn" format="2">
  <advance width="530"/>
  <unicode hex="00DE"/>
  <anchor x="284.5" y="0" name="bottom"/>
  <anchor x="284.5" y="701.667" name="top"/>
  <outline>
    <contour>
      <point x="263.833" y="538.5" type="curve" smooth="yes"/>
      <point x="138.833" y="538.5" type="line"/>
      <point x="138.833" y="700.667" type="line"/>
      <point x="118.833" y="700.667" type="line"/>
      <point x="118.833" y="0" type="line"/>
      <point x="138.833" y="0" type="line"/>
      <point x="138.833" y="154.167" type="line"/>
      <point x="250.833" y="154.167" type="line" smooth="yes"/>
      <point x="401.667" y="154.167"/>
      <point x="466.167" y="250.833"/>
      <point x="466.167" y="351.833" type="curve" smooth="yes"/>
      <point x="466.167" y="490.333"/>
      <point x="345.5" y="538.5"/>
    </contour>
    <contour>
      <point x="253" y="173.667" type="curve" smooth="yes"/>
      <point x="138.833" y="173.667" type="line"/>
      <point x="138.833" y="519" type="line"/>
      <point x="254" y="519" type="line" smooth="yes"/>
      <point x="364" y="519"/>
      <point x="446.167" y="453.167"/>
      <point x="446.167" y="353.5" type="curve" smooth="yes"/>
      <point x="446.167" y="282.167"/>
      <point x="404.5" y="173.667"/>
    </contour>
  </outline>
</glyph>
<glyph name="germandbls" format="2">
  <advance width="562"/>
  <unicode hex="00DF"/>
  <outline>
    <contour>
      <point x="114.5" y="427.833" type="curve" smooth="yes"/>
      <point x="114.5" y="386.5" type="line"/>
      <point x="49.5" y="386.5" type="line"/>
      <point x="49.5" y="368.167" type="line"/>
      <point x="114.5" y="368.167" type="line"/>
      <point x="114.5" y="0" type="line"/>
      <point x="134.167" y="0" type="line"/>
      <point x="134.167" y="429.5" type="line" smooth="yes"/>
      <point x="134.167" y="556.833"/>
      <point x="187.5" y="640.167"/>
      <point x="291.833" y="640.167" type="curve" smooth="yes"/>
      <point x="381.667" y="640.167"/>
      <point x="424.833" y="578"/>
      <point x="424.833" y="514.167" type="curve" smooth="yes"/>
      <point x="424.833" y="443.167"/>
      <point x="369.5" y="398.333"/>
      <point x="302" y="398.333" type="curve"/>
      <point x="302" y="378.5" type="line"/>
      <point x="306.167" y="378.5" type="line"/>
      <point x="409" y="378.667"/>
      <point x="487.833" y="295.667"/>
      <point x="487.833" y="195.5" type="curve" smooth="yes"/>
      <point x="487.833" y="95.167"/>
      <point x="404" y="9"/>
      <point x="300.333" y="9" type="curve" smooth="yes"/>
      <point x="265.167" y="9"/>
      <point x="232" y="18.667"/>
      <point x="204.5" y="36.5" type="curve"/>
      <point x="196.333" y="22.333" type="line"/>
      <point x="226.5" y="3.5"/>
      <point x="262.667" y="-8.167"/>
      <point x="302.833" y="-8.167" type="curve" smooth="yes"/>
      <point x="415" y="-8.167"/>
      <point x="507.333" y="81.667"/>
      <point x="507.333" y="195.167" type="curve" smooth="yes"/>
      <point x="507.333" y="291.167"/>
      <point x="441.5" y="368"/>
      <point x="353.667" y="389.333" type="curve"/>
      <point x="409.167" y="410.5"/>
      <point x="444.5" y="454"/>
      <point x="444.5" y="520.333" type="curve" smooth="yes"/>
      <point x="444.5" y="587.833"/>
      <point x="396.167" y="656.667"/>
      <point x="289.833" y="658.5" type="curve"/>
      <point x="178.5" y="654.833"/>
      <point x="114.5" y="574.833"/>
    </contour>
  </outline>
</glyph>
<glyph name="ae" format="2">
  <advance width="759"/>
  <unicode hex="00E6"/>
  <anchor x="379" y="0" name="bottom"/>
  <anchor x="379" y="377.667" name="top"/>
  <outline>
    <contour>
      <point x="202.333" y="-11" type="curve"/>
      <point x="230.833" y="-11"/>
      <point x="322.667" y="-4.833"/>
      <point x="364.667" y="50" type="curve"/>
      <point x="363.667" y="158.667" type="line"/>
      <point x="346.333" y="182.833" type="line"/>
      <point x="346.333" y="55.667" type="line"/>
      <point x="313" y="18.333"/>
      <point x="242" y="7.5"/>
      <point x="204.167" y="7.5" type="curve"/>
      <point x="113.667" y="7.5"/>
      <point x="76.333" y="50.333"/>
      <point x="76.333" y="102.333" type="curve"/>
      <point x="76.333" y="170.5"/>
      <point x="138.667" y="197.833"/>
      <point x="190.333" y="197.833" type="curve"/>
      <point x="253.333" y="197.833"/>
      <point x="311.5" y="165.167"/>
      <point x="357" y="108.833" type="curve"/>
      <point x="362.833" y="121" type="line"/>
      <point x="327" y="180.167"/>
      <point x="258.333" y="216.167"/>
      <point x="187.833" y="216.167" type="curve"/>
      <point x="119.5" y="216.167"/>
      <point x="54.333" y="176.667"/>
      <point x="54.333" y="99.333" type="curve"/>
      <point x="54.333" y="45"/>
      <point x="97.667" y="-11"/>
    </contour>
    <contour>
      <point x="346.5" y="183.833" type="line"/>
      <point x="366.667" y="243.833" type="line"/>
      <point x="366.667" y="268.5" type="line"/>
      <point x="366.667" y="340"/>
      <point x="335.833" y="385.333"/>
      <point x="242.167" y="385.333" type="curve"/>
      <point x="172.167" y="385.333"/>
      <point x="119.5" y="356.667"/>
      <point x="79.333" y="314.5" type="curve"/>
      <point x="91" y="299.167" type="line"/>
      <point x="141.667" y="351"/>
      <point x="189.333" y="366"/>
      <point x="241.333" y="366" type="curve"/>
      <point x="298.667" y="366"/>
      <point x="346.5" y="349"/>
      <point x="346.5" y="263" type="curve"/>
    </contour>
    <component base="e" xOffset="292.167"/>
  </outline>
</glyph>
<glyph name="eth" format="2">
  <advance width="503.16667"/>
  <unicode hex="00F0"/>
  <outline>
    <contour>
      <point x="250" y="-6.333" type="curve"/>
      <point x="357.167" y="-6.333"/>
      <point x="448.833" y="84.333"/>
      <point x="448.833" y="194.667" type="curve"/>
      <point x="448.833" y="383.167"/>
      <point x="292.167" y="620.5"/>
      <point x="143.333" y="728.833" type="curve"/>
      <point x="133" y="716.167" type="line"/>
      <point x="263.333" y="621.5"/>
      <point x="406.333" y="405.333"/>
      <point x="424.5" y="252.167" type="curve"/>
      <point x="427.833" y="270" type="line"/>
      <point x="399.167" y="329"/>
      <point x="335" y="387.333"/>
      <point x="249.167" y="387.333" type="curve"/>
      <point x="140.667" y="387.333"/>
      <point x="54.333" y="298.667"/>
      <point x="54.333" y="189.667" type="curve"/>
      <point x="54.333" y="77"/>
      <point x="141" y="-6.333"/>
    </contour>
    <contour>
      <point x="250.667" y="11.167" type="curve"/>
      <point x="152.333" y="11.167"/>
      <point x="73.833" y="90.833"/>
      <point x="73.833" y="189.5" type="curve"/>
      <point x="73.833" y="280.5"/>
      <point x="148.5" y="368.833"/>
      <point x="250.667" y="368.833" type="curve"/>
      <point x="349" y="368.833"/>
      <point x="428.333" y="288.167"/>
      <point x="428.333" y="189.5" type="curve"/>
      <point x="428.333" y="90.833"/>
      <point x="349" y="11.167"/>
    </contour>
    <contour>
      <point x="318" y="686.167" type="line"/>
      <point x="308.333" y="696.833" type="line"/>
      <point x="139.333" y="587.167" type="line"/>
      <point x="149" y="575.333" type="line"/>
    </contour>
  </outline>
</glyph>
<glyph name="divide" format="2">
  <advance width="501"/>
  <unicode hex="00F7"/>
  <outline>
    <contour>
      <point x="229" y="344.833" type="curve" smooth="yes"/>
      <point x="229" y="344.833" type="line" smooth="yes"/>
      <point x="229" y="332.5"/>
      <point x="239.167" y="322.667"/>
      <point x="251.167" y="322.667" type="curve" smooth="yes"/>
      <point x="263.167" y="322.667"/>
      <point x="273.5" y="332.5"/>
      <point x="273.5" y="344.833" type="curve" smooth="yes"/>
      <point x="273.5" y="357.167"/>
      <point x="263.167" y="367.167"/>
      <point x="251.167" y="367.167" type="curve" smooth="yes"/>
      <point x="239.167" y="367.167"/>
      <point x="229" y="357.167"/>
    </contour>
    <contour>
      <point x="229" y="92" type="curve" smooth="yes"/>
      <point x="229" y="92" type="line" smooth="yes"/>
      <point x="229" y="79.5"/>
      <point x="239.167" y="69.667"/>
      <point x="251.167" y="69.667" type="curve" smooth="yes"/>
      <point x="263.167" y="69.667"/>
      <point x="273.5" y="79.5"/>
      <point x="273.5" y="92" type="curve" smooth="yes"/>
      <point x="273.5" y="104.333"/>
      <point x="263.167" y="114.333"/>
      <point x="251.167" y="114.333" type="curve" smooth="yes"/>
      <point x="239.167" y="114.333"/>
      <point x="229" y="104.333"/>
    </contour>
    <contour>
      <point x="68" y="228.667" type="line"/>
      <point x="68" y="209.833" type="line"/>
      <point x="428.333" y="209.833" type="line"/>
      <point x="428.333" y="228.667" type="line"/>
    </contour>
  </outline>
</glyph>
<glyph name="oslash" format="2">
  <advance width="481"/>
  <unicode hex="00F8"/>
  <anchor x="240.5" y="377.667" name="top"/>
  <outline>
    <contour>
      <point x="403.333" y="368.667" type="line"/>
      <point x="391.667" y="379.833" type="line"/>
      <point x="81.167" y="10.667" type="line"/>
      <point x="91.833" y="-1.667" type="line"/>
    </contour>
    <component base="o"/>
  </outline>
</glyph>
<glyph name="thorn" format="2">
  <advance width="520"/>
  <unicode hex="00FE"/>
  <outline>
    <contour>
      <point x="283" y="-6.333" type="curve" smooth="yes"/>
      <point x="392.333" y="-6.333"/>
      <point x="479" y="76.833"/>
      <point x="479" y="189.333" type="curve" smooth="yes"/>
      <point x="479" y="299.167"/>
      <point x="392.833" y="386.333"/>
      <point x="284.333" y="386.333" type="curve" smooth="yes"/>
      <point x="202.667" y="386.333"/>
      <point x="120.833" y="329.667"/>
      <point x="98.833" y="253.333" type="curve"/>
      <point x="104.167" y="243.5" type="line"/>
      <point x="104.167" y="751.667" type="line"/>
      <point x="84.5" y="751.667" type="line"/>
      <point x="84.5" y="-181.333" type="line"/>
      <point x="104" y="-181.333" type="line"/>
      <point x="104" y="142.333" type="line"/>
      <point x="102.167" y="121.333" type="line"/>
      <point x="120.833" y="49"/>
      <point x="201.333" y="-6.333"/>
    </contour>
    <contour>
      <point x="281.833" y="12" type="curve" smooth="yes"/>
      <point x="187.833" y="12"/>
      <point x="110.5" y="83.833"/>
      <point x="104.167" y="175.667" type="curve"/>
      <point x="104.167" y="191.833" type="line"/>
      <point x="105.167" y="289.333"/>
      <point x="184.167" y="367.833"/>
      <point x="282.333" y="367.833" type="curve" smooth="yes"/>
      <point x="377.667" y="367.833"/>
      <point x="459.5" y="293.667"/>
      <point x="459.5" y="189.333" type="curve" smooth="yes"/>
      <point x="459.5" y="90.667"/>
      <point x="380.333" y="12"/>
    </contour>
  </outline>
</glyph>
<glyph name="aogonek" format="2">
  <advance width="542.66667"/>
  <unicode hex="0105"/>
  <anchor x="487.667" y="10" name="_ogonek"/>
  <anchor x="271.833" y="0" name="bottom"/>
  <anchor x="487.667" y="10" name="ogonek"/>
  <anchor x="272.667" y="377.667" name="top"/>
  <outline>
    <contour>
      <point x="249.333" y="-6.333" type="curve"/>
      <point x="331.833" y="-6.333"/>
      <point x="401.667" y="46"/>
      <point x="430.333" y="114.667" type="curve"/>
      <point x="429" y="125.667" type="line"/>
      <point x="429" y="-0.167" type="line"/>
      <point x="435.333" y="0.667" type="line"/>
      <point x="432" y="10" type="line"/>
      <point x="382.667" y="-16.833"/>
      <point x="338.333" y="-61.833"/>
      <point x="338.333" y="-110.667" type="curve"/>
      <point x="338.333" y="-157.167"/>
      <point x="372.833" y="-188"/>
      <point x="410.833" y="-188" type="curve"/>
      <point x="444.333" y="-188"/>
      <point x="472.833" y="-162.833"/>
      <point x="486.5" y="-134" type="curve"/>
      <point x="473.833" y="-125.167" type="line"/>
      <point x="459.5" y="-150.5"/>
      <point x="438.333" y="-170.333"/>
      <point x="412.333" y="-170.333" type="curve"/>
      <point x="384.5" y="-170.333"/>
      <point x="357.833" y="-147"/>
      <point x="357.833" y="-110.167" type="curve"/>
      <point x="357.833" y="-71"/>
      <point x="392.167" y="-32.667"/>
      <point x="448.5" y="1" type="curve"/>
      <point x="448.5" y="377.667" type="line"/>
      <point x="433.167" y="377.667" type="line"/>
      <point x="429" y="265.667" type="line"/>
      <point x="400" y="336.167"/>
      <point x="331.5" y="386.333"/>
      <point x="249.333" y="386.333" type="curve"/>
      <point x="143" y="386.333"/>
      <point x="54.5" y="314.333"/>
      <point x="54.5" y="189.333" type="curve"/>
      <point x="54.5" y="79"/>
      <point x="140.833" y="-6.333"/>
    </contour>
    <contour>
      <point x="251" y="11.167" type="curve"/>
      <point x="152.833" y="11.167"/>
      <point x="74" y="91"/>
      <point x="74" y="189.667" type="curve"/>
      <point x="74" y="298.833"/>
      <point x="152.833" y="368.833"/>
      <point x="251" y="368.833" type="curve"/>
      <point x="338.5" y="368.833"/>
      <point x="413" y="303.667"/>
      <point x="429" y="221.5" type="curve"/>
      <point x="429" y="180.5" type="line"/>
      <point x="428" y="82.833"/>
      <point x="349" y="11.167"/>
    </contour>
  </outline>
</glyph>
<glyph name="eogonek" format="2">
  <advance width="467"/>
  <unicode hex="0119"/>
  <outline>
    <contour>
      <point x="339.167" y="-188" type="curve"/>
      <point x="364.167" y="-188"/>
      <point x="386.833" y="-174.167"/>
      <point x="401.5" y="-155.167" type="curve"/>
      <point x="390.833" y="-142.333" type="line"/>
      <point x="377.333" y="-159.167"/>
      <point x="360.167" y="-170.333"/>
      <point x="340.667" y="-170.333" type="curve"/>
      <point x="308.167" y="-170.333"/>
      <point x="276.5" y="-142.667"/>
      <point x="276.5" y="-100.167" type="curve"/>
      <point x="276.5" y="-20.833"/>
      <point x="339.333" y="5.333"/>
      <point x="385.667" y="45.333" type="curve"/>
      <point x="373.333" y="58.5" type="line"/>
      <point x="341.5" y="29.167"/>
      <point x="298.167" y="11.333"/>
      <point x="251" y="11.333" type="curve"/>
      <point x="149.667" y="11.333"/>
      <point x="73.833" y="95.5"/>
      <point x="73.833" y="189.833" type="curve"/>
      <point x="73.833" y="288.667"/>
      <point x="152.167" y="369"/>
      <point x="250.5" y="369" type="curve"/>
      <point x="318" y="369"/>
      <point x="369.667" y="324.667"/>
      <point x="400.667" y="261" type="curve"/>
      <point x="406.833" y="270.167" type="line"/>
      <point x="74.833" y="136.5" type="line"/>
      <point x="80" y="119.833" type="line"/>
      <point x="422.833" y="258.5" type="line"/>
      <point x="394" y="332.333"/>
      <point x="334.833" y="387.333"/>
      <point x="251" y="387.333" type="curve"/>
      <point x="141.5" y="387.333"/>
      <point x="54.5" y="298.5"/>
      <point x="54.5" y="189.5" type="curve"/>
      <point x="54.5" y="80.167"/>
      <point x="140.5" y="-6.333"/>
      <point x="250.833" y="-6.333" type="curve"/>
      <point x="277.833" y="-6.333"/>
      <point x="306.667" y="-0.667"/>
      <point x="322.833" y="8.167" type="curve"/>
      <point x="312.333" y="9" type="line"/>
      <point x="275.5" y="-22.5"/>
      <point x="257" y="-61.833"/>
      <point x="257" y="-101.167" type="curve"/>
      <point x="257" y="-153.333"/>
      <point x="295.833" y="-188"/>
    </contour>
  </outline>
</glyph>
<glyph name="gcommaaccent" format="2">
  <advance width="519"/>
  <unicode hex="0123"/>
  <outline>
    <contour>
      <point x="236.833" y="507.0" type="curve"/>
      <point x="264.16700000000003" y="507.0" type="line"/>
      <point x="290.16700000000003" y="576.167"/>
      <point x="315.16700000000003" y="644.167"/>
      <point x="341.16700000000003" y="713.3340000000001" type="curve"/>
      <point x="322.83299999999997" y="713.3340000000001" type="line"/>
      <point x="293.83299999999997" y="644.167"/>
      <point x="265.83299999999997" y="576.167"/>
    </contour>
    <component base="g"/>
  </outline>
</glyph>
<glyph name="Hbar" format="2">
  <advance width="894"/>
  <unicode hex="0126"/>
  <outline>
    <contour>
      <point x="118.833" y="510.333" type="line"/>
      <point x="118.833" y="492.333" type="line"/>
      <point x="774.833" y="492.333" type="line"/>
      <point x="774.833" y="510.333" type="line"/>
    </contour>
    <component base="H" xOffset="50"/>
  </outline>
</glyph>
<glyph name="Iogonek" format="2">
  <advance width="255"/>
  <unicode hex="012E"/>
  <outline>
    <contour>
      <point x="97.5" y="-188" type="curve"/>
      <point x="131.167" y="-188"/>
      <point x="159.5" y="-162.833"/>
      <point x="173.333" y="-134" type="curve"/>
      <point x="160.5" y="-125.167" type="line"/>
      <point x="146.167" y="-150.5"/>
      <point x="125.167" y="-170.333"/>
      <point x="99.167" y="-170.333" type="curve"/>
      <point x="71.333" y="-170.333"/>
      <point x="44.5" y="-147"/>
      <point x="44.5" y="-110.167" type="curve"/>
      <point x="44.5" y="-71"/>
      <point x="77.167" y="-33.667"/>
      <point x="136.5" y="0" type="curve"/>
      <point x="132.5" y="6" type="line"/>
      <point x="123.5" y="11.5" type="line"/>
      <point x="71.333" y="-15.333"/>
      <point x="25.167" y="-60.333"/>
      <point x="25.167" y="-111.167" type="curve"/>
      <point x="25.167" y="-157.5"/>
      <point x="59.5" y="-188"/>
    </contour>
    <component base="I"/>
  </outline>
</glyph>
<glyph name="iogonek" format="2">
  <advance width="207.83333"/>
  <unicode hex="012F"/>
  <outline>
    <contour>
      <point x="75" y="-188" type="curve"/>
      <point x="108.667" y="-188"/>
      <point x="137" y="-162.833"/>
      <point x="150.833" y="-134" type="curve"/>
      <point x="138" y="-125.167" type="line"/>
      <point x="123.667" y="-150.5"/>
      <point x="102.667" y="-170.333"/>
      <point x="76.5" y="-170.333" type="curve"/>
      <point x="48.833" y="-170.333"/>
      <point x="22" y="-147"/>
      <point x="22" y="-110.167" type="curve"/>
      <point x="22" y="-71"/>
      <point x="54.5" y="-33.667"/>
      <point x="113.667" y="0" type="curve"/>
      <point x="108.667" y="6.167" type="line"/>
      <point x="101" y="11.833" type="line"/>
      <point x="48.833" y="-14.833"/>
      <point x="2.667" y="-60"/>
      <point x="2.667" y="-110.667" type="curve"/>
      <point x="2.667" y="-157.167"/>
      <point x="37" y="-188"/>
    </contour>
    <component base="idotless"/>
    <component base="dotaccentcomb" xOffset="15.333" yOffset="-38.667"/>
  </outline>
</glyph>
<glyph name="idotless" format="2">
  <advance width="208"/>
  <unicode hex="0131"/>
  <anchor x="103.167" y="0" name="bottom"/>
  <anchor x="177.667" y="10" name="ogonek"/>
  <anchor x="103.833" y="377.667" name="top"/>
  <outline>
    <contour>
      <point x="94" y="377.667" type="line"/>
      <point x="94" y="0" type="line"/>
      <point x="113.5" y="0" type="line"/>
      <point x="113.5" y="377.667" type="line"/>
    </contour>
  </outline>
</glyph>
<glyph name="kgreenlandic" format="2">
  <advance width="420"/>
  <unicode hex="0138"/>
  <outline>
    <contour>
      <point x="108.333" y="140.833" type="line"/>
      <point x="356.833" y="377.667" type="line"/>
      <point x="331.333" y="377.667" type="line"/>
      <point x="104.5" y="159.667" type="line"/>
    </contour>
    <contour>
      <point x="113.5" y="0" type="line"/>
      <point x="113.5" y="377.667" type="line"/>
      <point x="94" y="377.667" type="line"/>
      <point x="94" y="0" type="line"/>
    </contour>
    <contour>
      <point x="163.667" y="211" type="line"/>
      <point x="151.333" y="197.833" type="line"/>
      <point x="339" y="0" type="line"/>
      <point x="365.333" y="0" type="line"/>
    </contour>
  </outline>
</glyph>
<glyph name="Lslash" format="2">
  <advance width="573.16667"/>
  <unicode hex="0141"/>
  <outline>
    <contour>
      <point x="349.833" y="411.833" type="line"/>
      <point x="31.833" y="296.333" type="line"/>
      <point x="33.167" y="278" type="line"/>
      <point x="351.167" y="393.5" type="line"/>
    </contour>
    <component base="L"/>
  </outline>
</glyph>
<glyph name="lslash" format="2">
  <advance width="189.83333"/>
  <unicode hex="0142"/>
  <outline>
    <contour>
      <point x="184.333" y="351.833" type="line"/>
      <point x="27.5" y="295.333" type="line"/>
      <point x="27.5" y="276.667" type="line"/>
      <point x="184.333" y="333.167" type="line"/>
    </contour>
    <component base="l" xOffset="0.5"/>
  </outline>
</glyph>
<glyph name="Eng" format="2">
  <advance width="810.66667"/>
  <unicode hex="014A"/>
  <outline>
    <contour>
      <point x="691.667" y="-12.833" type="line"/>
      <point x="692.833" y="-11.333" type="line"/>
      <point x="692.833" y="701.667" type="line"/>
      <point x="673.333" y="701.667" type="line"/>
      <point x="673.5" y="27.5" type="line"/>
      <point x="684.167" y="26" type="line"/>
      <point x="119" y="713.333" type="line"/>
      <point x="117.833" y="713.333" type="line"/>
      <point x="117.833" y="0" type="line"/>
      <point x="137.333" y="0" type="line"/>
      <point x="137.167" y="675.667" type="line"/>
      <point x="131.833" y="666.167" type="line"/>
    </contour>
    <contour>
      <point x="692.833" y="60.667" type="line"/>
      <point x="673.333" y="66.5" type="line"/>
      <point x="673.333" y="-10.167" type="line" smooth="yes"/>
      <point x="673.333" y="-77.833"/>
      <point x="651.333" y="-132.333"/>
      <point x="618" y="-169" type="curve"/>
      <point x="633" y="-181.333" type="line"/>
      <point x="670.167" y="-142.167"/>
      <point x="692.833" y="-83.5"/>
      <point x="692.833" y="-6.667" type="curve" smooth="yes"/>
    </contour>
  </outline>
</glyph>
<glyph name="eng" format="2">
  <advance width="487"/>
  <unicode hex="014B"/>
  <anchor x="243.5" y="0" name="bottom"/>
  <anchor x="243.5" y="378.167" name="top"/>
  <outline>
    <contour>
      <point x="393" y="-6.333" type="curve" smooth="yes"/>
      <point x="393" y="272.5" type="line"/>
      <point x="391" y="339"/>
      <point x="346.167" y="385.333"/>
      <point x="275.667" y="385.333" type="curve" smooth="yes"/>
      <point x="200.333" y="385.333"/>
      <point x="133.833" y="341.667"/>
      <point x="112.5" y="270.333" type="curve"/>
      <point x="109.167" y="377.667" type="line"/>
      <point x="94" y="377.667" type="line"/>
      <point x="94" y="0" type="line"/>
      <point x="113.5" y="0" type="line"/>
      <point x="113.5" y="219.167" type="line" smooth="yes"/>
      <point x="113.5" y="308.333"/>
      <point x="190.833" y="367.667"/>
      <point x="274" y="367.667" type="curve"/>
      <point x="337.167" y="364.833"/>
      <point x="371.333" y="324.5"/>
      <point x="373.333" y="271.167" type="curve"/>
      <point x="373.333" y="-10.167" type="line" smooth="yes"/>
      <point x="373.333" y="-77.833"/>
      <point x="351.333" y="-132.333"/>
      <point x="318.167" y="-169" type="curve"/>
      <point x="333.167" y="-181.333" type="line"/>
      <point x="370.333" y="-142.167"/>
      <point x="393" y="-83.333"/>
    </contour>
  </outline>
</glyph>
<glyph name="OE" format="2">
  <advance width="1009"/>
  <unicode hex="0152"/>
  <anchor x="504.333" y="0" name="bottom"/>
  <anchor x="504.333" y="701.667" name="top"/>
  <outline>
    <contour>
      <point x="510.833" y="682.833" type="curve"/>
      <point x="528" y="697.5" type="line"/>
      <point x="499" y="705.5"/>
      <point x="468.833" y="709.667"/>
      <point x="436.833" y="709.667" type="curve" smooth="yes"/>
      <point x="239.5" y="709.667"/>
      <point x="79" y="548"/>
      <point x="79" y="349.833" type="curve" smooth="yes"/>
      <point x="79" y="152.333"/>
      <point x="239.5" y="-8"/>
      <point x="436.833" y="-8" type="curve" smooth="yes"/>
      <point x="467.833" y="-8"/>
      <point x="497.833" y="-4"/>
      <point x="526" y="3" type="curve"/>
      <point x="510" y="19.5" type="line"/>
      <point x="485.5" y="13.667"/>
      <point x="460.833" y="10.667"/>
      <point x="438" y="10.667" type="curve" smooth="yes"/>
      <point x="249.833" y="10.667"/>
      <point x="99" y="162.5"/>
      <point x="99" y="348.833" type="curve" smooth="yes"/>
      <point x="99" y="536.167"/>
      <point x="250.667" y="690.833"/>
      <point x="436.833" y="690.833" type="curve" smooth="yes"/>
      <point x="462.5" y="690.833"/>
      <point x="487.167" y="687.833"/>
    </contour>
    <contour>
      <point x="504.667" y="701.667" type="line"/>
      <point x="504.667" y="0" type="line"/>
      <point x="907.5" y="0" type="line"/>
      <point x="907.5" y="19.5" type="line"/>
      <point x="524.667" y="19.5" type="line"/>
      <point x="524.667" y="344" type="line"/>
      <point x="854.5" y="344" type="line"/>
      <point x="854.5" y="363.333" type="line"/>
      <point x="524.667" y="363.333" type="line"/>
      <point x="524.667" y="682.333" type="line"/>
      <point x="893.5" y="682.333" type="line"/>
      <point x="893.5" y="701.667" type="line"/>
    </contour>
  </outline>
</glyph>
<glyph name="Uogonek" format="2">
  <advance width="693"/>
  <unicode hex="0172"/>
  <outline>
    <contour>
      <point x="439.167" y="-188" type="curve"/>
      <point x="472.833" y="-188"/>
      <point x="501.167" y="-162.833"/>
      <point x="515" y="-134" type="curve"/>
      <point x="502.167" y="-125.167" type="line"/>
      <point x="487.833" y="-150.5"/>
      <point x="466.833" y="-170.333"/>
      <point x="440.667" y="-170.333" type="curve"/>
      <point x="413" y="-170.333"/>
      <point x="386.167" y="-147"/>
      <point x="386.167" y="-110.167" type="curve"/>
      <point x="386.167" y="-59.333"/>
      <point x="419.5" y="-13.833"/>
      <point x="477.833" y="28.833" type="curve"/>
      <point x="536" y="66.5"/>
      <point x="574.667" y="132.333"/>
      <point x="574.667" y="227.5" type="curve"/>
      <point x="574.667" y="701.667" type="line"/>
      <point x="555" y="701.667" type="line"/>
      <point x="555" y="230" type="line"/>
      <point x="555" y="90.167"/>
      <point x="466" y="10.667"/>
      <point x="346.333" y="10.667" type="curve"/>
      <point x="225.167" y="10.667"/>
      <point x="138" y="90.167"/>
      <point x="138" y="230" type="curve"/>
      <point x="138" y="701.667" type="line"/>
      <point x="118.167" y="701.667" type="line"/>
      <point x="118.167" y="227.833" type="line"/>
      <point x="118.167" y="74.667"/>
      <point x="215.167" y="-8"/>
      <point x="346.333" y="-8" type="curve"/>
      <point x="379.667" y="-8"/>
      <point x="412.667" y="-2"/>
      <point x="437.167" y="9" type="curve"/>
      <point x="439.333" y="14.5" type="line"/>
      <point x="431.667" y="11.833" type="line"/>
      <point x="394" y="-18.667"/>
      <point x="366.833" y="-66.667"/>
      <point x="366.833" y="-110.667" type="curve"/>
      <point x="366.833" y="-157.167"/>
      <point x="401.167" y="-188"/>
    </contour>
  </outline>
</glyph>
<glyph name="uogonek" format="2">
  <advance width="486.83333"/>
  <unicode hex="0173"/>
  <outline>
    <contour>
      <point x="361" y="-188" type="curve"/>
      <point x="394.667" y="-188"/>
      <point x="423" y="-162.833"/>
      <point x="436.833" y="-134" type="curve"/>
      <point x="424" y="-125.167" type="line"/>
      <point x="409.667" y="-150.5"/>
      <point x="388.667" y="-170.333"/>
      <point x="362.667" y="-170.333" type="curve"/>
      <point x="334.833" y="-170.333"/>
      <point x="308" y="-147"/>
      <point x="308" y="-110.167" type="curve"/>
      <point x="308" y="-72.833"/>
      <point x="338.5" y="-32.667"/>
      <point x="392.667" y="0" type="curve"/>
      <point x="384.833" y="4.833" type="line"/>
      <point x="377.5" y="10" type="line"/>
      <point x="329.167" y="-16.833"/>
      <point x="288.667" y="-62.833"/>
      <point x="288.667" y="-110.667" type="curve"/>
      <point x="288.667" y="-157.167"/>
      <point x="323" y="-188"/>
    </contour>
    <component base="u"/>
  </outline>
</glyph>
<glyph name="Schwa" format="2">
  <advance width="812"/>
  <unicode hex="018F"/>
  <outline>
    <contour>
      <point x="374.167" y="710.5" type="curve"/>
      <point x="280.667" y="710.5"/>
      <point x="191" y="670"/>
      <point x="125.5" y="609.167" type="curve"/>
      <point x="138.167" y="594.5" type="line"/>
      <point x="197.167" y="649.167"/>
      <point x="286.833" y="690.833"/>
      <point x="374" y="690.833" type="curve"/>
      <point x="580" y="690.833"/>
      <point x="717.667" y="523.667"/>
      <point x="717.667" y="348.333" type="curve"/>
      <point x="717.667" y="164.333"/>
      <point x="566.333" y="10.5"/>
      <point x="374.5" y="10.5" type="curve"/>
      <point x="244" y="10.5"/>
      <point x="136.5" y="92"/>
      <point x="83.833" y="215.667" type="curve"/>
      <point x="77" y="204.167" type="line"/>
      <point x="705.833" y="459.667" type="line"/>
      <point x="698.833" y="476.833" type="line"/>
      <point x="59.167" y="218.333" type="line"/>
      <point x="111.333" y="87.667"/>
      <point x="219.833" y="-7.667"/>
      <point x="374" y="-7.667" type="curve"/>
      <point x="576.667" y="-7.667"/>
      <point x="737.833" y="150.667"/>
      <point x="737.833" y="348.667" type="curve"/>
      <point x="737.833" y="549.833"/>
      <point x="578" y="710.5"/>
    </contour>
  </outline>
</glyph>
<glyph name="florin" format="2">
  <advance width="283.83333"/>
  <unicode hex="0192"/>
  <outline>
    <contour>
      <point x="95.167" y="517.833" type="curve" smooth="yes"/>
      <point x="95.167" y="375" type="line"/>
      <point x="29.667" y="375" type="line"/>
      <point x="29.667" y="355.667" type="line"/>
      <point x="95.167" y="355.667" type="line"/>
      <point x="95.167" y="57.667" type="line" smooth="yes"/>
      <point x="95.167" y="-71.333"/>
      <point x="17.167" y="-152.833"/>
      <point x="-74.5" y="-153.167" type="curve"/>
      <point x="-74.5" y="-172.667" type="line"/>
      <point x="30.833" y="-168.5"/>
      <point x="114.833" y="-88.5"/>
      <point x="114.833" y="61.333" type="curve" smooth="yes"/>
      <point x="114.833" y="355.667" type="line"/>
      <point x="245" y="355.667" type="line"/>
      <point x="245" y="375" type="line"/>
      <point x="114.833" y="375" type="line"/>
      <point x="114.833" y="521.5" type="line" smooth="yes"/>
      <point x="114.833" y="650.333"/>
      <point x="192.833" y="731.833"/>
      <point x="284.5" y="732.167" type="curve"/>
      <point x="284.5" y="751.667" type="line"/>
      <point x="180.5" y="747.667"/>
      <point x="95.167" y="667.5"/>
    </contour>
  </outline>
</glyph>
<glyph name="Nhookleft" format="2">
  <advance width="811.66667"/>
  <unicode hex="019D"/>
  <outline>
    <contour>
      <point x="691.667" y="-12.833" type="line"/>
      <point x="692.833" y="-11.333" type="line"/>
      <point x="692.833" y="701.667" type="line"/>
      <point x="673.333" y="701.667" type="line"/>
      <point x="673.5" y="27.5" type="line"/>
      <point x="684.167" y="26.5" type="line"/>
      <point x="119" y="713.333" type="line"/>
      <point x="117.833" y="713.333" type="line"/>
      <point x="117.833" y="0" type="line"/>
      <point x="137.333" y="0" type="line"/>
      <point x="137.167" y="675.667" type="line"/>
      <point x="131.833" y="666" type="line"/>
    </contour>
    <contour>
      <point x="137.333" y="60.667" type="line"/>
      <point x="117.833" y="66.5" type="line"/>
      <point x="117.833" y="-10.167" type="line" smooth="yes"/>
      <point x="117.833" y="-77.833"/>
      <point x="95.833" y="-132.333"/>
      <point x="62.5" y="-169" type="curve"/>
      <point x="77.833" y="-181.333" type="line"/>
      <point x="115" y="-142.167"/>
      <point x="137.333" y="-83.5"/>
      <point x="137.333" y="-6.667" type="curve" smooth="yes"/>
    </contour>
  </outline>
</glyph>
<glyph name="Oogonek" format="2">
  <advance width="865.33333"/>
  <unicode hex="01EA"/>
  <outline>
    <contour>
      <point x="431.667" y="-8" type="curve"/>
      <point x="468.333" y="-8"/>
      <point x="524.333" y="1.5"/>
      <point x="551.833" y="13.5" type="curve"/>
      <point x="549.833" y="20" type="line"/>
      <point x="496.667" y="-3.833"/>
      <point x="433.333" y="-40.333"/>
      <point x="433.333" y="-111.167" type="curve"/>
      <point x="433.333" y="-157.5"/>
      <point x="467.667" y="-188"/>
      <point x="505.667" y="-188" type="curve"/>
      <point x="539.333" y="-188"/>
      <point x="567.667" y="-162.833"/>
      <point x="581.333" y="-134" type="curve"/>
      <point x="568.667" y="-125.167" type="line"/>
      <point x="554.333" y="-150.5"/>
      <point x="533.333" y="-170.333"/>
      <point x="507.167" y="-170.333" type="curve"/>
      <point x="479.5" y="-170.333"/>
      <point x="452.667" y="-147"/>
      <point x="452.667" y="-110" type="curve"/>
      <point x="452.667" y="-20.833"/>
      <point x="554.5" y="-4"/>
      <point x="647.667" y="65" type="curve"/>
      <point x="721.5" y="119.333"/>
      <point x="791.5" y="210.167"/>
      <point x="791.5" y="349.833" type="curve"/>
      <point x="791.5" y="548"/>
      <point x="630" y="709.667"/>
      <point x="431.667" y="709.667" type="curve"/>
      <point x="234.333" y="709.667"/>
      <point x="73.833" y="548"/>
      <point x="73.833" y="349.833" type="curve"/>
      <point x="73.833" y="141.833"/>
      <point x="234.333" y="-8"/>
    </contour>
    <contour>
      <point x="431.833" y="10.667" type="curve"/>
      <point x="244.5" y="10.667"/>
      <point x="93.833" y="162.5"/>
      <point x="93.833" y="348.833" type="curve"/>
      <point x="93.833" y="530.333"/>
      <point x="239.667" y="690.833"/>
      <point x="431.667" y="690.833" type="curve"/>
      <point x="618" y="690.833"/>
      <point x="771.5" y="536.167"/>
      <point x="771.5" y="349.833" type="curve"/>
      <point x="771.5" y="161.5"/>
      <point x="618.167" y="10.667"/>
    </contour>
  </outline>
</glyph>
<glyph name="oogonek" format="2">
  <advance width="503.16667"/>
  <unicode hex="01EB"/>
  <outline>
    <contour>
      <point x="342.5" y="-188" type="curve"/>
      <point x="376.167" y="-188"/>
      <point x="404.5" y="-162.833"/>
      <point x="418.333" y="-134" type="curve"/>
      <point x="405.5" y="-125.167" type="line"/>
      <point x="391.167" y="-150.5"/>
      <point x="370.167" y="-170.333"/>
      <point x="344" y="-170.333" type="curve"/>
      <point x="312.167" y="-170.333"/>
      <point x="281.167" y="-143"/>
      <point x="281.167" y="-100.167" type="curve"/>
      <point x="281.167" y="-55.667"/>
      <point x="309.167" y="-9"/>
      <point x="356.667" y="24.167" type="curve" smooth="yes"/>
      <point x="411.167" y="61.833"/>
      <point x="448.833" y="119.833"/>
      <point x="448.833" y="189.667" type="curve"/>
      <point x="448.833" y="298.667"/>
      <point x="360.667" y="387.333"/>
      <point x="250.833" y="387.333" type="curve"/>
      <point x="141" y="387.333"/>
      <point x="54.333" y="298.667"/>
      <point x="54.333" y="189.667" type="curve"/>
      <point x="54.333" y="77"/>
      <point x="141" y="-6.333"/>
      <point x="250.667" y="-6.333" type="curve"/>
      <point x="288.667" y="-6.333"/>
      <point x="309.5" y="0.5"/>
      <point x="338.167" y="17.167" type="curve"/>
      <point x="323.5" y="15.333" type="line"/>
      <point x="290.5" y="-13.333"/>
      <point x="261.833" y="-53.333"/>
      <point x="261.833" y="-100.667" type="curve"/>
      <point x="261.833" y="-153.167"/>
      <point x="300.333" y="-188"/>
    </contour>
    <contour>
      <point x="250.667" y="11.167" type="curve"/>
      <point x="152.333" y="11.167"/>
      <point x="73.833" y="90.833"/>
      <point x="73.833" y="189.5" type="curve"/>
      <point x="73.833" y="280.5"/>
      <point x="148.5" y="368.833"/>
      <point x="250.667" y="368.833" type="curve"/>
      <point x="349" y="368.833"/>
      <point x="428.333" y="288.167"/>
      <point x="428.333" y="189.5" type="curve"/>
      <point x="428.333" y="90.833"/>
      <point x="349" y="11.167"/>
    </contour>
  </outline>
</glyph>
<glyph name="jdotless" format="2">
  <advance width="215.66667"/>
  <unicode hex="0237"/>
  <anchor x="109" y="0" name="bottom"/>
  <anchor x="113.833" y="377.667" name="top"/>
  <outline>
    <contour>
      <point x="63.667" y="-181.333" type="line"/>
      <point x="102" y="-142.333"/>
      <point x="123.667" y="-84"/>
      <point x="123.667" y="-6.667" type="curve"/>
      <point x="123.667" y="377.667" type="line"/>
      <point x="104" y="377.667" type="line"/>
      <point x="104" y="-10.167" type="line" smooth="yes"/>
      <point x="104" y="-77.833"/>
      <point x="82" y="-132.333"/>
      <point x="48.667" y="-169" type="curve"/>
    </contour>
  </outline>
</glyph>
<glyph name="schwa" format="2">
  <advance width="467"/>
  <unicode hex="0259"/>
  <outline>
    <contour>
      <point x="216.333" y="384.333" type="curve" smooth="yes"/>
      <point x="164.5" y="384.333"/>
      <point x="117.0" y="364.333"/>
      <point x="81.5" y="332.66700000000003" type="curve"/>
      <point x="93.83300000000003" y="319.5" type="line"/>
      <point x="125.66699999999997" y="348.83299999999997"/>
      <point x="169.0" y="366.667"/>
      <point x="216.167" y="366.667" type="curve" smooth="yes"/>
      <point x="323.16700000000003" y="366.667"/>
      <point x="393.33299999999997" y="279.66700000000003"/>
      <point x="393.33299999999997" y="188.167" type="curve" smooth="yes"/>
      <point x="393.33299999999997" y="89.33300000000003"/>
      <point x="315" y="9"/>
      <point x="216.667" y="9.0" type="curve" smooth="yes"/>
      <point x="146.33300000000003" y="9.0"/>
      <point x="93.66699999999997" y="58.16699999999997"/>
      <point x="66.5" y="117.0" type="curve"/>
      <point x="60.66699999999997" y="107.16699999999997" type="line"/>
      <point x="392.83299999999997" y="240.833" type="line"/>
      <point x="387.16700000000003" y="258.16700000000003" type="line"/>
      <point x="44.33300000000003" y="119.5" type="line"/>
      <point x="73.16699999999997" y="45.66699999999997"/>
      <point x="132.33300000000003" y="-9.333000000000027"/>
      <point x="216.167" y="-9.333000000000027" type="curve" smooth="yes"/>
      <point x="325.66700000000003" y="-9.333000000000027"/>
      <point x="412.66700000000003" y="79.5"/>
      <point x="412.66700000000003" y="188.5" type="curve" smooth="yes"/>
      <point x="412.66700000000003" y="297.83299999999997"/>
      <point x="326.66700000000003" y="384.333"/>
    </contour>
  </outline>
</glyph>
<glyph name="circumflex" format="2">
  <advance width="448"/>
  <unicode hex="02C6"/>
  <outline>
    <contour>
      <point x="344.667" y="508.167" type="line"/>
      <point x="365.833" y="508.167" type="line"/>
      <point x="232.333" y="659.667" type="line"/>
      <point x="231.333" y="659.667" type="line"/>
      <point x="98" y="508.167" type="line"/>
      <point x="119.167" y="508.167" type="line"/>
      <point x="239.167" y="645.667" type="line"/>
      <point x="225.667" y="645.167" type="line"/>
    </contour>
  </outline>
</glyph>
<glyph name="caron" format="2">
  <advance width="443.16667"/>
  <unicode hex="02C7"/>
  <outline>
    <contour>
      <point x="117.167" y="631" type="line"/>
      <point x="96" y="631" type="line"/>
      <point x="229.667" y="479.5" type="line"/>
      <point x="230.667" y="479.5" type="line"/>
      <point x="364" y="631" type="line"/>
      <point x="342.833" y="631" type="line"/>
      <point x="222.667" y="493.333" type="line"/>
      <point x="236.333" y="493.833" type="line"/>
    </contour>
  </outline>
</glyph>
<glyph name="breve" format="2">
  <advance width="348"/>
  <unicode hex="02D8"/>
  <outline>
    <contour>
      <point x="175" y="498.667" type="curve"/>
      <point x="243.167" y="498.667"/>
      <point x="297" y="566.167"/>
      <point x="298" y="657" type="curve"/>
      <point x="280.5" y="657" type="line"/>
      <point x="278.167" y="581.833"/>
      <point x="235.333" y="516.167"/>
      <point x="175" y="516.167" type="curve"/>
      <point x="115.5" y="516.167"/>
      <point x="69" y="581.833"/>
      <point x="66.5" y="657" type="curve"/>
      <point x="50" y="657" type="line"/>
      <point x="52.833" y="566.333"/>
      <point x="105.833" y="498.667"/>
    </contour>
  </outline>
</glyph>
<glyph name="dotaccent" format="2">
  <advance width="187.33333"/>
  <unicode hex="02D9"/>
  <outline>
    <contour>
      <point x="66" y="505" type="curve" smooth="yes"/>
      <point x="66" y="493.5"/>
      <point x="76.333" y="482.667"/>
      <point x="88.5" y="482.667" type="curve" smooth="yes"/>
      <point x="100.667" y="482.667"/>
      <point x="110.833" y="492.5"/>
      <point x="110.833" y="505" type="curve" smooth="yes"/>
      <point x="110.833" y="517.333"/>
      <point x="100.667" y="527.167"/>
      <point x="88.5" y="527.167" type="curve" smooth="yes"/>
      <point x="76.333" y="527.167"/>
      <point x="66" y="517.333"/>
    </contour>
  </outline>
</glyph>
<glyph name="ring" format="2">
  <advance width="417.16667"/>
  <unicode hex="02DA"/>
  <outline>
    <contour>
      <point x="161.667" y="473.333" type="curve" smooth="yes"/>
      <point x="161.667" y="435.167"/>
      <point x="189.5" y="408.5"/>
      <point x="226.833" y="408.5" type="curve" smooth="yes"/>
      <point x="264" y="408.5"/>
      <point x="291.833" y="436.167"/>
      <point x="291.833" y="473.333" type="curve" smooth="yes"/>
      <point x="291.833" y="510.5"/>
      <point x="264" y="538.167"/>
      <point x="226.833" y="538.167" type="curve" smooth="yes"/>
      <point x="189.5" y="538.167"/>
      <point x="161.667" y="510.5"/>
    </contour>
    <contour>
      <point x="178.167" y="473.167" type="curve" smooth="yes"/>
      <point x="178.167" y="500.167"/>
      <point x="200.833" y="521.833"/>
      <point x="226.833" y="521.833" type="curve" smooth="yes"/>
      <point x="252.667" y="521.833"/>
      <point x="275.333" y="499.333"/>
      <point x="275.333" y="473.167" type="curve" smooth="yes"/>
      <point x="275.333" y="447.167"/>
      <point x="252.667" y="424.5"/>
      <point x="226.833" y="424.5" type="curve" smooth="yes"/>
      <point x="200.833" y="424.5"/>
      <point x="178.167" y="447.167"/>
    </contour>
  </outline>
</glyph>
<glyph name="ogonek" format="2">
  <advance width="270.33333"/>
  <unicode hex="02DB"/>
  <outline>
    <contour>
      <point x="144.333" y="-188" type="curve"/>
      <point x="178" y="-188"/>
      <point x="206.333" y="-162.833"/>
      <point x="220.167" y="-134" type="curve"/>
      <point x="207.333" y="-125.167" type="line"/>
      <point x="193" y="-150.5"/>
      <point x="172" y="-170.333"/>
      <point x="145.833" y="-170.333" type="curve"/>
      <point x="118.167" y="-170.333"/>
      <point x="91.333" y="-147"/>
      <point x="91.333" y="-110.167" type="curve"/>
      <point x="91.333" y="-71.167"/>
      <point x="124.333" y="-33.833"/>
      <point x="184" y="0" type="curve"/>
      <point x="170.333" y="11.833" type="line"/>
      <point x="118.167" y="-14.833"/>
      <point x="72" y="-60"/>
      <point x="72" y="-110.667" type="curve"/>
      <point x="72" y="-157.167"/>
      <point x="106.333" y="-188"/>
    </contour>
  </outline>
</glyph>
<glyph name="tildecomb" format="2">
  <unicode hex="0303"/>
  <anchor x="194.167" y="377.667" name="_top"/>
  <anchor x="194.667" y="534" name="top"/>
  <outline>
    <contour>
      <point x="265.115" y="447.874" type="curve"/>
      <point x="304.31" y="447.874"/>
      <point x="336.062" y="479.792"/>
      <point x="338.213" y="557.52" type="curve"/>
      <point x="322.171" y="559.339" type="line"/>
      <point x="318.532" y="484.588"/>
      <point x="292.733" y="465.57"/>
      <point x="265.777" y="465.57" type="curve"/>
      <point x="237.497" y="465.57"/>
      <point x="219.636" y="485.25"/>
      <point x="202.436" y="506.087" type="curve"/>
      <point x="183.253" y="528.91"/>
      <point x="163.738" y="552.89"/>
      <point x="126.031" y="552.89" type="curve"/>
      <point x="90.641" y="552.89"/>
      <point x="53.431" y="520.475"/>
      <point x="51.115" y="443.244" type="curve"/>
      <point x="67.157" y="441.424" type="line"/>
      <point x="70.796" y="516.01"/>
      <point x="104.202" y="534.863"/>
      <point x="126.528" y="534.863" type="curve"/>
      <point x="153.981" y="534.863"/>
      <point x="170.849" y="514.356"/>
      <point x="188.71" y="493.85" type="curve"/>
      <point x="208.059" y="471.027"/>
      <point x="228.401" y="447.874"/>
    </contour>
  </outline>
</glyph>
<glyph name="hookabovecomb" format="2">
  <unicode hex="0309"/>
  <anchor x="137.5" y="471.667" name="_top"/>
  <anchor x="155.333" y="747.167" name="top"/>
  <outline>
    <contour>
      <point x="137.167" y="533.5" type="curve"/>
      <point x="146.833" y="524" type="line"/>
      <point x="180.333" y="551"/>
      <point x="207.667" y="571"/>
      <point x="207.667" y="606.833" type="curve" smooth="yes"/>
      <point x="207.667" y="653.5"/>
      <point x="179.833" y="669"/>
      <point x="151.167" y="669" type="curve" smooth="yes"/>
      <point x="121.667" y="669"/>
      <point x="100.667" y="655.5"/>
      <point x="79.5" y="622.833" type="curve"/>
      <point x="91.333" y="615.167" type="line"/>
      <point x="111.667" y="642.5"/>
      <point x="124.667" y="652.667"/>
      <point x="150.333" y="652.667" type="curve" smooth="yes"/>
      <point x="179.667" y="652.667"/>
      <point x="192.167" y="632.667"/>
      <point x="192.167" y="605.667" type="curve"/>
      <point x="192.167" y="577.833"/>
      <point x="167.833" y="560"/>
    </contour>
  </outline>
</glyph>
<glyph name="breveinvertedcomb" format="2">
  <unicode hex="0311"/>
  <anchor x="170" y="436.333" name="_top"/>
  <anchor x="170" y="658.333" name="top"/>
  <outline>
    <contour>
      <point x="173.0" y="658.3330000000001" type="curve"/>
      <point x="104.833" y="658.3330000000001"/>
      <point x="51.0" y="590.833"/>
      <point x="50" y="500" type="curve"/>
      <point x="67.5" y="500.0" type="line"/>
      <point x="69.83300000000003" y="575.167"/>
      <point x="112.667" y="640.833"/>
      <point x="173.0" y="640.833" type="curve"/>
      <point x="232.5" y="640.833"/>
      <point x="279.0" y="575.167"/>
      <point x="281.5" y="500.0" type="curve"/>
      <point x="298" y="500" type="line"/>
      <point x="295.16700000000003" y="590.667"/>
      <point x="242.167" y="658.3330000000001"/>
    </contour>
  </outline>
</glyph>
<glyph name="commaturnedabovecomb" format="2">
  <unicode hex="0312"/>
  <anchor x="91.667" y="377.667" name="_top"/>
  <anchor x="91.667" y="657.167" name="top"/>
  <outline>
    <contour>
      <point x="124.333" y="629.5" type="line"/>
      <point x="71.0" y="600.1669999999999"/>
      <point x="61.833" y="543.6669999999999"/>
      <point x="67.0" y="491.5" type="curve"/>
      <point x="88.666" y="491.5" type="line"/>
      <point x="81.666" y="548.0"/>
      <point x="96.5" y="593.6669999999999"/>
      <point x="134.166" y="619.834" type="curve"/>
    </contour>
  </outline>
</glyph>
<glyph name="horncomb" format="2">
  <unicode hex="031B"/>
  <anchor x="129" y="702.5" name="_topright"/>
  <anchor x="130.333" y="379.167" name="topright"/>
  <outline>
    <contour>
      <point x="89.5" y="701.667" type="curve"/>
      <point x="89.5" y="685.5" type="line"/>
      <point x="160.5" y="685.5"/>
      <point x="208.667" y="699.667"/>
      <point x="209.667" y="806.667" type="curve"/>
      <point x="191.667" y="806.667" type="line"/>
      <point x="191.167" y="724.833"/>
      <point x="158.5" y="701.667"/>
    </contour>
  </outline>
</glyph>
<glyph name="dotbelowcomb" format="2">
  <unicode hex="0323"/>
  <anchor x="88.833" y="0" name="_bottom"/>
  <anchor x="88.833" y="-123.5" name="bottom"/>
  <outline>
    <contour>
      <point x="66.48982" y="-100.40365000000003" type="curve" smooth="yes"/>
      <point x="66.48982" y="-111.81475499999999"/>
      <point x="76.74294591" y="-122.56401591000002"/>
      <point x="88.815895" y="-122.56401591000002" type="curve" smooth="yes"/>
      <point x="100.88884409" y="-122.56401591000002"/>
      <point x="110.97626091" y="-112.80702500000001"/>
      <point x="110.97626091" y="-100.40365000000003" type="curve" smooth="yes"/>
      <point x="110.97626091" y="-88.16598409000005"/>
      <point x="100.88884409" y="-78.40800090999994"/>
      <point x="88.815895" y="-78.40800090999994" type="curve" smooth="yes"/>
      <point x="76.74294591" y="-78.40800090999994"/>
      <point x="66.48982" y="-88.16598409000005"/>
    </contour>
  </outline>
</glyph>
<glyph name="commaaccentcomb" format="2">
  <unicode hex="0326"/>
  <anchor x="113.5" y="0" name="_bottom"/>
  <anchor x="79.833" y="-177.833" name="bottom"/>
  <outline>
    <contour>
      <point x="67.5" y="-183.333" type="line"/>
      <point x="120.833" y="-154"/>
      <point x="130" y="-97.5"/>
      <point x="124.833" y="-45.333" type="curve"/>
      <point x="103.167" y="-45.333" type="line"/>
      <point x="110.167" y="-101.833"/>
      <point x="95.333" y="-147.5"/>
      <point x="57.667" y="-173.667" type="curve"/>
    </contour>
  </outline>
</glyph>
<glyph name="strokeshortcomb" format="2">
  <unicode hex="0335"/>
  <anchor x="201.167" y="249.667" name="_center"/>
  <outline>
    <contour>
      <point x="85" y="259" type="line"/>
      <point x="85" y="239.833" type="line"/>
      <point x="316.833" y="239.833" type="line"/>
      <point x="316.833" y="259" type="line"/>
    </contour>
  </outline>
</glyph>
<glyph name="Delta" format="2">
  <advance width="624"/>
  <unicode hex="0394"/>
  <outline>
    <contour>
      <point x="18.5" y="0" type="line"/>
      <point x="650.167" y="0" type="line"/>
      <point x="338.5" y="733.5" type="line"/>
      <point x="333.5" y="733.5" type="line"/>
    </contour>
    <contour>
      <point x="624.5" y="6.167" type="line"/>
      <point x="631.167" y="18.5" type="line"/>
      <point x="33.667" y="18.5" type="line"/>
      <point x="41.167" y="8.667" type="line"/>
      <point x="341.833" y="708.167" type="line"/>
      <point x="329.167" y="711.5" type="line"/>
    </contour>
  </outline>
</glyph>
<glyph name="mu" format="2">
  <advance width="486.5"/>
  <unicode hex="03BC"/>
  <anchor x="243.333" y="0" name="bottom"/>
  <anchor x="437.833" y="10" name="ogonek"/>
  <anchor x="243.333" y="377.667" name="top"/>
  <anchor x="418.167" y="377.667" name="topright"/>
  <outline>
    <contour>
      <point x="211.167" y="-7.667" type="curve" smooth="yes"/>
      <point x="285.333" y="-7.667"/>
      <point x="359.167" y="44.167"/>
      <point x="376.667" y="106.833" type="curve"/>
      <point x="373.833" y="116.333" type="line"/>
      <point x="376.333" y="0" type="line"/>
      <point x="392.5" y="0" type="line"/>
      <point x="392.5" y="377.667" type="line"/>
      <point x="373" y="377.667" type="line"/>
      <point x="373" y="159.667" type="line" smooth="yes"/>
      <point x="373" y="73.333"/>
      <point x="295.667" y="10"/>
      <point x="214.667" y="10" type="curve"/>
      <point x="149.667" y="13"/>
      <point x="115.5" y="53.167"/>
      <point x="113.5" y="107.5" type="curve"/>
      <point x="113.5" y="377.667" type="line"/>
      <point x="94" y="377.667" type="line"/>
      <point x="94" y="105.167" type="line"/>
      <point x="96" y="38.667"/>
      <point x="140.667" y="-7.667"/>
    </contour>
    <contour>
      <point x="94" y="357.5" type="line"/>
      <point x="94" y="-232.167" type="line"/>
      <point x="113" y="-232.167" type="line"/>
      <point x="113" y="357.5" type="line"/>
    </contour>
  </outline>
</glyph>
<glyph name="pi" format="2">
  <advance width="283.33333"/>
  <unicode hex="03C0"/>
  <outline>
    <contour>
      <point x="5.167" y="322.167" type="line"/>
      <point x="5.167" y="303.333" type="line"/>
      <point x="56.5" y="303.333" type="line"/>
      <point x="56.5" y="0" type="line"/>
      <point x="75.333" y="0" type="line"/>
      <point x="75.333" y="303.333" type="line"/>
      <point x="220.167" y="303.333" type="line"/>
      <point x="220.167" y="0" type="line"/>
      <point x="239" y="0" type="line"/>
      <point x="239" y="303.333" type="line"/>
      <point x="278" y="303.333" type="line"/>
      <point x="278" y="322.167" type="line"/>
    </contour>
  </outline>
</glyph>
<glyph name="Germandbls" format="2">
  <advance width="837"/>
  <unicode hex="1E9E"/>
  <outline>
    <contour>
      <point x="580.333" y="-8" type="curve"/>
      <point x="685.5" y="-8"/>
      <point x="758.833" y="64.167"/>
      <point x="758.833" y="148.5" type="curve"/>
      <point x="758.833" y="236.5"/>
      <point x="679.333" y="271"/>
      <point x="600.5" y="313" type="curve"/>
      <point x="518.167" y="357.333"/>
      <point x="437.667" y="398.667"/>
      <point x="437.667" y="487" type="curve"/>
      <point x="437.667" y="564.167"/>
      <point x="506.333" y="624.667"/>
      <point x="583.5" y="624.667" type="curve"/>
      <point x="639.833" y="624.667"/>
      <point x="679.667" y="594.667"/>
      <point x="690.667" y="585.667" type="curve"/>
      <point x="700.833" y="600" type="line"/>
      <point x="652" y="656.667"/>
      <point x="549.833" y="711.5"/>
      <point x="426.667" y="711.5" type="curve"/>
      <point x="211.833" y="711.5"/>
      <point x="118.833" y="562.5"/>
      <point x="118.833" y="346.5" type="curve"/>
      <point x="118.833" y="0" type="line"/>
      <point x="138.667" y="0" type="line"/>
      <point x="138.667" y="342.5" type="line"/>
      <point x="138.667" y="586.333"/>
      <point x="254.5" y="694"/>
      <point x="429.333" y="694" type="curve"/>
      <point x="514.333" y="694"/>
      <point x="605.167" y="662.333"/>
      <point x="663.667" y="610.333" type="curve"/>
      <point x="670.5" y="616.5" type="line"/>
      <point x="652.667" y="626.667"/>
      <point x="632.667" y="642.333"/>
      <point x="582.5" y="642.333" type="curve"/>
      <point x="464" y="635.333"/>
      <point x="416.833" y="556"/>
      <point x="416.833" y="480.167" type="curve"/>
      <point x="416.833" y="389.5"/>
      <point x="501" y="339"/>
      <point x="588.333" y="297.167" type="curve"/>
      <point x="662.167" y="253"/>
      <point x="738.833" y="226"/>
      <point x="738.833" y="146.667" type="curve"/>
      <point x="738.833" y="59.667"/>
      <point x="647.667" y="10"/>
      <point x="580.833" y="10" type="curve"/>
      <point x="514.5" y="10"/>
      <point x="453.833" y="30.333"/>
      <point x="408.667" y="55" type="curve"/>
      <point x="401" y="37.5" type="line"/>
      <point x="437" y="17"/>
      <point x="495.5" y="-8"/>
    </contour>
  </outline>
</glyph>
<glyph name="ohorntilde" format="2">
  <advance width="503"/>
  <unicode hex="1EE1"/>
  <outline>
    <contour>
      <point x="322.06566105" y="448.41193398" type="curve"/>
      <point x="360.9576837" y="448.41193398"/>
      <point x="392.46424074" y="480.08320783999994"/>
      <point x="394.59861351" y="557.2103704" type="curve"/>
      <point x="378.68061817" y="559.0153095300001" type="line"/>
      <point x="375.06974764" y="484.84213476"/>
      <point x="349.47017391" y="465.97114389999996"/>
      <point x="322.72254379" y="465.97114389999996" type="curve"/>
      <point x="294.66114819" y="465.97114389999996"/>
      <point x="276.93821372" y="485.4990175"/>
      <point x="259.87116972" y="506.17494748999997" type="curve"/>
      <point x="240.83645431" y="528.8215256999999"/>
      <point x="221.47230525999998" y="552.6161602999999"/>
      <point x="184.05678037" y="552.6161602999999" type="curve"/>
      <point x="148.94034507" y="552.6161602999999"/>
      <point x="112.01797837" y="520.45172825"/>
      <point x="109.71988105" y="443.81772388" type="curve"/>
      <point x="125.63787639" y="442.01179248" type="line"/>
      <point x="129.24874692" y="516.0212427"/>
      <point x="162.39651854" y="534.72850901"/>
      <point x="184.54993856" y="534.72850901" type="curve"/>
      <point x="211.79072687" y="534.72850901"/>
      <point x="228.52833722999998" y="514.3800281199999"/>
      <point x="246.25127170000002" y="494.03253950000004" type="curve"/>
      <point x="265.45070393000003" y="471.38596128999995"/>
      <point x="285.63546027" y="448.41193398"/>
    </contour>
    <component base="ohorn"/>
  </outline>
</glyph>
<glyph name="endash" format="2">
  <advance width="510"/>
  <unicode hex="2013"/>
  <outline>
    <contour>
      <point x="100.167" y="197.167" type="line"/>
      <point x="100.167" y="178.333" type="line"/>
      <point x="401.333" y="178.333" type="line"/>
      <point x="401.333" y="197.167" type="line"/>
    </contour>
  </outline>
</glyph>
<glyph name="emdash" format="2">
  <advance width="700.66667"/>
  <unicode hex="2014"/>
  <outline>
    <contour>
      <point x="99.167" y="197.167" type="line"/>
      <point x="99.167" y="178.333" type="line"/>
      <point x="601.5" y="178.333" type="line"/>
      <point x="601.5" y="197.167" type="line"/>
    </contour>
  </outline>
</glyph>
